<svg width="45" height="45" viewBox="0 0 45 45" fill="none" xmlns="http://www.w3.org/2000/svg">
<circle cx="22.5" cy="22.5" r="22.5" fill="#E0E0E0"/>
<path d="M29.7765 18.7235H31.7698C32.5246 18.7235 33.1354 19.3353 33.1354 20.0891V31.3246H12.9688V20.0891C12.9688 19.3353 13.5806 18.7235 14.3354 18.7235H16.3287" stroke="black" stroke-linecap="round" stroke-linejoin="round"/>
<path d="M29.776 31.3232V15.3054C29.776 14.2588 28.928 13.4097 27.8802 13.4097H18.2227C17.1761 13.4097 16.3281 14.2588 16.3281 15.3054V31.3232" stroke="black" stroke-linecap="round" stroke-linejoin="round"/>
<path d="M20.7773 31.3262V26.0774C20.7773 25.4973 21.2473 25.0263 21.8284 25.0263H24.2735C24.8536 25.0263 25.3245 25.4973 25.3245 26.0774V31.3262" stroke="black" stroke-linecap="round" stroke-linejoin="round"/>
<path d="M21.2812 19.2246H24.8263M23.0527 17.452V20.997" stroke="black" stroke-linecap="round" stroke-linejoin="round"/>
</svg>
