<svg width="45" height="45" viewBox="0 0 45 45" fill="none" xmlns="http://www.w3.org/2000/svg">
<circle cx="22.5" cy="22.5" r="22.5" fill="#E0E0E0"/>
<path d="M23 33C28.5228 33 33 28.5228 33 23C33 17.4772 28.5228 13 23 13C17.4772 13 13 17.4772 13 23C13 28.5228 17.4772 33 23 33Z" stroke="black" stroke-linecap="round" stroke-linejoin="round"/>
<path d="M20.5 19.9653C20.5 19.488 20.5 19.2494 20.5997 19.1162C20.6867 19.0001 20.8197 18.9274 20.9644 18.9171C21.1304 18.9052 21.3311 19.0343 21.7326 19.2924L26.4532 22.3271C26.8016 22.551 26.9758 22.663 27.0359 22.8054C27.0885 22.9298 27.0885 23.0702 27.0359 23.1946C26.9758 23.337 26.8016 23.449 26.4532 23.6729L21.7326 26.7076C21.3311 26.9657 21.1304 27.0948 20.9644 27.0829C20.8197 27.0726 20.6867 26.9999 20.5997 26.8838C20.5 26.7506 20.5 26.512 20.5 26.0347V19.9653Z" stroke="black" stroke-linecap="round" stroke-linejoin="round"/>
</svg>
