<svg width="68" height="135" viewBox="0 0 68 135" fill="none" xmlns="http://www.w3.org/2000/svg">
<g id="&#208;&#182;&#208;&#181;&#209;&#129;&#209;&#130;_&#208;&#155; 1" clip-path="url(#clip0_864_7412)">
<g id="&#208;&#161;&#208;&#187;&#208;&#190;&#208;&#185;_x0020_1">
<path id="Vector" d="M9.2933 -15.7057C9.55647 -16.5858 10.484 -17.0906 11.3685 -16.8274C12.2486 -16.5643 12.7533 -15.6367 12.4902 -14.7523C8.91796 -2.90104 6.2345 9.0753 4.72451 21.1897C3.21453 33.3084 2.8737 45.5652 3.98678 57.9859C4.06443 58.9005 3.3871 59.7073 2.47248 59.7849C1.55786 59.8626 0.751093 59.1853 0.673437 58.2706C-0.465524 45.5738 -0.120384 33.0884 1.41117 20.7842C2.94273 8.47562 5.66933 -3.67761 9.2933 -15.7057Z" fill="#2B2A29"/>
<path id="Vector_2" d="M67.1824 26.6861C67.1695 27.605 66.4102 28.3341 65.4913 28.3212C64.5723 28.3082 63.8432 27.5489 63.8562 26.63C64.0676 14.3085 58.9077 2.37528 54.3691 -8.12559C53.3423 -10.5027 52.3414 -12.8109 51.5735 -14.7091C51.2284 -15.5634 51.6382 -16.5341 52.4924 -16.8792C53.3467 -17.2243 54.3174 -16.8102 54.6625 -15.9603C55.6073 -13.6349 56.5047 -11.564 57.4193 -9.44144C62.0916 1.37006 67.4025 13.6527 67.1781 26.6861H67.1824Z" fill="#2B2A29"/>
<path id="Vector_3" d="M29.1736 60.4493C29.1951 59.5304 29.9631 58.8099 30.882 58.8315C31.8009 58.8531 32.5214 59.621 32.4998 60.5399C32.2022 70.9373 31.8052 81.6539 31.4126 92.3704C31.0157 103.134 30.6188 113.899 30.3255 124.175L30.3211 124.261C30.0709 127.432 30.9985 129.391 32.2928 130.34C32.7716 130.69 33.3066 130.91 33.8416 131C34.3679 131.086 34.8986 131.056 35.3861 130.914C36.305 130.638 37.0686 129.926 37.293 128.856L43.842 69.7207C43.9412 68.806 44.7652 68.146 45.6799 68.2452C46.5384 68.3401 47.1726 69.0735 47.164 69.9191L49.2823 123.713C49.8517 126.224 50.7534 127.726 51.7759 128.381C52.2634 128.696 52.7984 128.804 53.329 128.722C53.9416 128.632 54.5931 128.299 55.2187 127.769C56.9185 126.328 58.3292 123.562 58.7305 119.913L63.8644 26.5653C63.9162 25.6463 64.7014 24.9431 65.6203 24.9949C66.5392 25.0466 67.2425 25.8318 67.1907 26.7508L62.0438 120.228C61.552 124.801 59.6623 128.369 57.3715 130.31C56.2713 131.242 55.0504 131.833 53.8122 132.018C52.4921 132.217 51.1762 131.954 49.9768 131.181C48.2339 130.06 46.7714 127.825 45.9991 124.3L45.9689 124.011L44.7135 92.1504L40.5804 129.391C40.1145 131.85 38.4104 133.477 36.3395 134.098C35.3731 134.387 34.3205 134.452 33.285 134.275C32.2582 134.098 31.2401 133.684 30.3298 133.019C28.1942 131.453 26.6454 128.502 27.0078 123.99C27.3055 113.618 27.7024 102.932 28.095 92.241C28.4919 81.4813 28.8888 70.7129 29.1822 60.4364L29.1736 60.4493Z" fill="#2B2A29"/>
<path id="Vector_4" d="M0.501204 56.4889C0.46669 55.5699 1.17854 54.7977 2.09747 54.7589C3.01641 54.7243 3.78866 55.4405 3.82317 56.3551C4.00869 60.9412 4.10791 65.6135 4.37971 70.1866C4.46168 71.524 5.06136 72.7191 5.95441 73.569C6.86472 74.4318 8.08133 74.9409 9.39286 74.8848L9.50935 74.8762C10.7777 74.7942 11.9167 74.1859 12.7278 73.2756C13.5777 72.3221 14.0824 71.0279 14.0264 69.6344L13.4741 55.928C13.4396 55.0091 14.1558 54.2368 15.0704 54.198C15.9893 54.1635 16.7616 54.8797 16.8004 55.7943L17.3526 69.5006C17.4432 71.7915 16.6192 73.9141 15.2171 75.4888C13.8365 77.0376 11.8822 78.0601 9.69055 78.1982L9.47052 78.2154C7.23574 78.2844 5.18216 77.4259 3.65923 75.9806C2.17513 74.5699 1.19148 72.5853 1.05774 70.3549L0.501204 56.4802V56.4889Z" fill="#2B2A29"/>
<path id="Vector_5" d="M13.9699 66.485C13.9354 65.566 14.6516 64.7938 15.5662 64.755C16.4852 64.7204 17.2574 65.4366 17.2962 66.3512C17.4904 71.1487 17.8873 76.3387 17.8873 81.093C17.9779 82.5469 18.625 83.8455 19.6 84.773C20.5837 85.7092 21.9125 86.2615 23.3362 86.2054L23.4656 86.2011C24.8505 86.1148 26.0887 85.4504 26.9774 84.4581C27.905 83.4184 28.4486 82.0119 28.3882 80.5019C28.3536 79.583 29.0698 78.8108 29.9844 78.7762C30.9034 78.7417 31.6756 79.4536 31.7144 80.3725C31.8094 82.7842 30.9422 85.0233 29.4667 86.6756C28.0128 88.3107 25.9506 89.385 23.6425 89.5273L23.4009 89.5446C21.0626 89.6179 18.9054 88.7163 17.3049 87.1933C15.7388 85.7092 14.7077 83.6168 14.5653 81.2742C14.2417 76.4164 14.1684 71.3687 13.9743 66.485H13.9699Z" fill="#2B2A29"/>
</g>
</g>
<defs>
<clipPath id="clip0_864_7412">
<rect width="67.1902" height="151.383" fill="white" transform="translate(0 -17)"/>
</clipPath>
</defs>
</svg>
