<svg width="78" height="135" viewBox="0 0 78 135" fill="none" xmlns="http://www.w3.org/2000/svg">
    <g clip-path="url(#clip0_666_4687)">
        <path d="M57.1108 78.7801C57.1551 79.5986 56.5268 80.2976 55.7127 80.3419C54.8942 80.3861 54.1952 79.7623 54.151 78.9438C53.39 65.0956 52.1821 55.5744 50.9743 46.062C49.7576 36.4745 48.5409 26.8781 47.7755 13.0166C47.4171 9.76471 46.1606 7.29592 44.6475 6.01729C44.09 5.54388 43.5104 5.24745 42.9662 5.16781C42.4928 5.09702 42.0194 5.18993 41.5814 5.47309C40.6744 6.05711 39.8647 7.39326 39.3604 9.63198L37.4712 57.645C37.4402 58.4635 36.75 59.1006 35.9315 59.0696C35.1882 59.0431 34.5954 58.4679 34.5157 57.7511C33.5335 48.8848 33.7105 40.0051 33.8919 31.1254C34.0689 22.3829 34.2458 13.6316 33.2858 4.93775C33.0822 3.98209 32.4053 3.34941 31.5868 3.10164C31.1532 2.97334 30.6798 2.94237 30.2108 3.02201C29.733 3.10164 29.2552 3.30074 28.8304 3.61044C27.6757 4.45549 26.8483 6.20311 27.0784 9.03026L27.0828 9.21609C27.3969 20.3964 27.0386 28.8779 26.6581 37.9301C26.4103 43.8145 26.1493 49.9422 26.0608 57.1317C26.0519 57.9502 25.3794 58.605 24.5609 58.5962C23.7469 58.5873 23.0965 57.9237 23.0965 57.114L22.977 11.7911C22.6939 10.8973 22.1364 10.3753 21.4816 10.1585C20.9993 10.0036 20.4507 9.9815 19.9065 10.07L19.8623 10.0788C19.296 10.1762 18.7297 10.4018 18.2253 10.7248L18.1545 10.769C17.2431 11.3796 16.575 12.322 16.575 13.4413L14.8495 62.5604C14.823 63.3789 14.1416 64.0204 13.3231 63.9939C12.5046 63.9674 11.8631 63.286 11.8852 62.4675L12.04 35.01C12.0356 32.8908 11.1729 31.3865 10.0845 30.7449C9.73496 30.537 9.36774 30.4264 9.02707 30.422C8.70409 30.4175 8.37226 30.5105 8.06698 30.7051C7.04939 31.3555 6.26185 33.0589 6.26185 36.1028L2.98341 77.9969L7.96965 132.235C8.04044 133.049 7.44315 133.77 6.62907 133.845C5.81499 133.916 5.09383 133.319 5.01861 132.505L0.0279513 78.227L0.0102539 77.8775L3.28427 36.0674C3.29312 31.8776 4.67351 29.3557 6.46095 28.2054C7.2706 27.6877 8.16432 27.4488 9.06246 27.4577C9.93848 27.4665 10.8101 27.7187 11.5976 28.1877C12.1197 28.4974 12.6064 28.9 13.0444 29.3911L13.5974 13.4413C13.5974 11.2247 14.8407 9.41076 16.5352 8.2914L16.6237 8.22946C17.4554 7.69854 18.3978 7.32689 19.3623 7.15877L19.4199 7.14992C20.433 6.98179 21.4683 7.03489 22.4151 7.34459C23.0124 7.54811 23.5743 7.84454 24.0698 8.24273C24.0389 4.79617 25.3396 2.49551 27.0784 1.2213C27.8925 0.628435 28.795 0.25679 29.7109 0.101938C30.6311 -0.0573382 31.5735 0.00460261 32.4319 0.261215C34.2591 0.809833 35.7634 2.23005 36.197 4.38028L36.2279 4.57053C36.3695 5.86686 36.489 7.15877 36.5863 8.4551C37.3075 5.69431 38.533 3.9113 39.9754 2.98661C41.046 2.29641 42.2185 2.06635 43.3954 2.2389C44.4926 2.4026 45.5854 2.92909 46.5676 3.76087C48.6073 5.49079 50.2885 8.66747 50.7309 12.7379L50.7398 12.8264C51.5008 26.679 52.7086 36.1957 53.9165 45.7081C55.1332 55.3089 56.3543 64.9142 57.1153 78.8022L57.1108 78.7801Z" fill="#2B2A29"/>
        <path d="M47.9302 133.222C48.0939 134.022 47.5763 134.81 46.7711 134.969C45.9703 135.133 45.1827 134.615 45.0235 133.81L43.2272 125.001C43.1254 124.501 43.2891 124.01 43.6165 123.669L49.9831 117.126C55.0933 112.573 59.2743 107.423 62.6323 101.751C65.986 96.0881 68.5256 89.8984 70.3573 83.2619L74.9276 57.0698C74.317 56.2026 73.6003 55.7469 72.7597 55.7469C71.6093 55.7469 70.136 56.4459 68.3176 57.906L56.9382 79.5499C56.6993 80.0012 56.2613 80.2799 55.7879 80.333C49.815 81.0011 44.8332 82.8549 40.7407 85.7528C36.6526 88.6463 33.4051 92.615 30.9054 97.5216C30.5337 98.2516 29.6356 98.5436 28.9056 98.1719C28.1755 97.8003 27.8835 96.9021 28.2552 96.1721C30.9629 90.8541 34.5201 86.5271 39.0329 83.3327C43.3555 80.271 48.5408 78.2757 54.6774 77.4749L65.8356 56.2513C65.9241 56.0831 66.0479 55.9283 66.2072 55.7956C68.6981 53.7427 70.8793 52.7649 72.7685 52.7649C74.8524 52.7649 76.4894 53.8489 77.7105 55.9062C77.9273 56.2159 78.0291 56.6096 77.9583 57.0167L73.2508 83.93C71.3395 90.8718 68.6893 97.3446 65.1896 103.26C61.6811 109.193 57.3143 114.573 51.9741 119.329L46.2888 125.174L47.9302 133.213V133.222Z" fill="#2B2A29"/>
    </g>
    <defs>
        <clipPath id="clip0_666_4687">
            <rect width="77.9769" height="135" fill="white"/>
        </clipPath>
    </defs>
</svg>
