<svg width="90" height="133" viewBox="0 0 90 133" fill="none" xmlns="http://www.w3.org/2000/svg">
<g id="&#208;&#182;&#208;&#181;&#209;&#129;&#209;&#130;&#209;&#139; 1" clip-path="url(#clip0_1628_17407)">
<g id="&#208;&#161;&#208;&#187;&#208;&#190;&#208;&#185;_x0020_1">
<path id="Vector" d="M38.1421 133.904C38.3769 134.696 37.9263 135.53 37.1345 135.766C36.3426 136.001 35.5085 135.55 35.2723 134.759C32.0189 123.959 29.572 113.047 28.1954 101.996C26.8203 90.9483 26.5126 79.7387 27.5348 68.3381C27.6048 67.5186 28.331 66.9105 29.1505 66.9805C29.9701 67.0505 30.5782 67.7767 30.5082 68.5962C29.5078 79.746 29.8141 90.7514 31.1688 101.633C32.522 112.511 34.9354 123.262 38.1407 133.904H38.1421Z" fill="#2B2A29"/>
<path id="Vector_2" d="M58.1303 122.559C58.1128 123.383 57.4275 124.035 56.6035 124.017C55.7796 124 55.1278 123.314 55.1453 122.49C55.294 116.898 56.4329 111.836 58.7807 107.434C60.7989 103.648 63.7052 100.363 67.6279 97.6593C65.2335 96.0611 63.5507 94.2791 62.4103 92.3658C61.1475 90.2528 60.57 87.9969 60.4344 85.655C55.014 84.3046 49.8868 82.7953 46.3141 80.4942C42.0925 77.7731 39.978 74.0648 41.795 68.5176C42.0298 67.7943 42.7662 67.3728 43.4953 67.5099L69.9743 70.9572C70.4365 71.017 70.8244 71.2853 71.0519 71.6543L89.1765 100.986C89.4346 101.406 89.4609 101.904 89.2888 102.33L76.0114 134.983C75.7008 135.749 74.8273 136.119 74.0617 135.81C73.2962 135.499 72.9258 134.626 73.2364 133.86L86.2352 101.906L68.8849 73.8285L44.328 70.632C43.6922 73.9131 45.2044 76.2215 47.9299 77.9758C51.3815 80.2011 56.6896 81.6666 62.2455 83.0243C62.9003 83.1832 63.3873 83.7738 63.3873 84.4767C63.3815 86.7311 63.8131 88.8821 64.9783 90.842C66.1551 92.8281 68.1194 94.6684 71.1759 96.3017C71.4106 96.4271 71.6162 96.6166 71.7606 96.8631C72.1777 97.5733 71.9385 98.489 71.2284 98.9061C66.7267 101.54 63.52 104.889 61.4143 108.838C59.2955 112.812 58.2645 117.427 58.1303 122.558V122.559Z" fill="#2B2A29"/>
<path id="Vector_3" d="M56.1089 66.3009C56.1293 67.1248 55.4803 67.8131 54.6564 67.835C53.8311 67.8554 53.1442 67.2065 53.1223 66.3826C52.8599 57.1562 52.5011 47.4895 52.1468 37.8256C51.7939 28.2318 51.4395 18.6321 51.1727 9.3226C50.846 5.27449 52.2372 2.62485 54.1548 1.21618C54.9729 0.615376 55.8857 0.24498 56.8088 0.0874887C57.7377 -0.0714608 58.6841 -0.0102142 59.5518 0.247897C61.4111 0.806407 62.9437 2.26758 63.3607 4.47537L67.0705 37.9131L68.1963 9.30656L68.2284 9.04991C68.9211 5.88259 70.2349 3.87895 71.7982 2.87129C72.8773 2.17571 74.057 1.94384 75.2426 2.12029C76.3523 2.28508 77.4489 2.81588 78.4362 3.65438C80.4938 5.3999 82.1897 8.60369 82.6316 12.7087L87.2513 96.6369C87.2965 97.4609 86.6651 98.1667 85.8412 98.2119C85.0173 98.2571 84.3115 97.6256 84.2663 96.8017L79.6553 12.9901C79.2951 9.71342 78.0278 7.23001 76.5025 5.938C75.9411 5.45969 75.3563 5.16367 74.808 5.082C74.3312 5.01201 73.8529 5.10534 73.4139 5.3897C72.4982 5.97883 71.6859 7.3248 71.1755 9.58071L69.2754 57.881C69.2827 58.6393 68.714 59.2984 67.9426 59.383C67.123 59.4734 66.3822 58.8799 66.2918 58.0589L60.4107 4.96534C60.2065 4.0029 59.5226 3.36418 58.6972 3.11774C58.2612 2.98941 57.7829 2.95879 57.3119 3.03899C56.8307 3.1192 56.3509 3.31606 55.9222 3.63104C54.7585 4.48412 53.9273 6.24423 54.1548 9.09074V9.16657C54.4173 18.3915 54.776 28.0597 55.1304 37.7221C55.4847 47.3436 55.8391 56.9681 56.1059 66.3024L56.1089 66.3009Z" fill="#2B2A29"/>
<path id="Vector_4" d="M32.6584 53.9628L32.4863 53.9935C31.2964 54.2166 30.2946 54.9019 29.6398 55.8265C28.969 56.77 28.6584 57.9745 28.8655 59.2009L30.9304 71.3438C31.1375 72.5658 31.833 73.5953 32.7765 74.2661C33.6923 74.915 34.8575 75.23 36.0474 75.0565L36.2297 75.0229C37.3934 74.8042 38.3718 74.1523 39.0251 73.2643L39.0747 73.1914C39.7251 72.2741 40.0401 71.1075 39.8636 69.9147L37.7842 57.6741C37.5771 56.4535 36.883 55.4225 35.938 54.7532C35.0193 54.0999 33.8527 53.7878 32.657 53.9643L32.6584 53.9628ZM32.1378 51.0172C34.1473 50.6949 36.113 51.214 37.6661 52.3136C39.238 53.4247 40.3901 55.1411 40.7357 57.1797L42.8064 69.3649C43.1389 71.3846 42.6183 73.3634 41.5144 74.9223L41.4458 75.0127C40.3303 76.5366 38.6475 77.6478 36.6569 77.9861L36.6117 77.9934C34.5906 78.3259 32.6059 77.8067 31.047 76.7014C29.4809 75.5873 28.3289 73.8738 27.9833 71.8337L25.9184 59.6909C25.5728 57.6566 26.0919 55.6617 27.2045 54.0926C28.3187 52.5235 30.0277 51.3744 32.0649 51.0274L32.1407 51.0172H32.1378Z" fill="#2B2A29"/>
<path id="Vector_5" d="M44.241 45.9525L44.0704 45.9816C42.7988 46.2193 41.7299 46.9514 41.0299 47.9371C40.3168 48.9448 39.9843 50.2266 40.206 51.5332L42.3715 64.2681C42.5931 65.5747 43.3339 66.6742 44.3416 67.3888C45.3244 68.0844 46.5669 68.4183 47.8414 68.2287L48.0105 68.201C49.2821 67.9619 50.354 67.2313 51.0539 66.244C51.7685 65.2393 52.098 63.956 51.8764 62.648L49.7109 49.9131C49.4892 48.6079 48.7499 47.507 47.7422 46.7924C46.7594 46.0968 45.5155 45.7629 44.2424 45.9525H44.241ZM43.7145 43.0068C45.8071 42.6699 47.8574 43.208 49.4732 44.3542C51.1035 45.5106 52.2993 47.2926 52.658 49.4085L54.8235 62.1551C55.1822 64.2652 54.6441 66.3388 53.4877 67.9692C52.3314 69.6053 50.5508 70.8011 48.4334 71.1613L48.3649 71.1715C46.2723 71.5083 44.222 70.9702 42.6063 69.8241C40.9759 68.6677 39.7787 66.8857 39.42 64.7698L37.2545 52.0232C36.8957 49.9102 37.4338 47.8336 38.5917 46.2033C39.7495 44.573 41.5301 43.3772 43.646 43.017L43.7145 43.0068Z" fill="#2B2A29"/>
<path id="Vector_6" d="M40.9101 22.2076C34.3072 22.7996 28.1519 24.042 22.4195 25.8809C16.6959 27.7154 11.3907 30.1521 6.4808 33.1313L4.93359 30.5765C10.0462 27.4733 15.5613 24.9403 21.5052 23.0359C27.4374 21.1328 33.8114 19.8481 40.652 19.2327L40.9101 22.2061V22.2076Z" fill="#2B2A29"/>
<path id="Vector_7" fill-rule="evenodd" clip-rule="evenodd" d="M3.16878 24.3353L10.7196 38.0123L0 34.7487L3.16878 24.3353Z" fill="#2B2A29"/>
</g>
</g>
<defs>
<clipPath id="clip0_1628_17407">
<rect width="89.3998" height="135.919" fill="white"/>
</clipPath>
</defs>
</svg>
