<svg width="82" height="124" viewBox="0 0 82 124" fill="none" xmlns="http://www.w3.org/2000/svg">
<g id="Frame 2367">
<path id="Vector 176 (Stroke)" fill-rule="evenodd" clip-rule="evenodd" d="M14.6025 9.33645C14.696 12.4791 15.8382 16.783 17.7907 20.6775C19.8912 24.8669 21.8859 31.271 23.6379 37.3536C24.1591 39.1634 24.6586 40.9432 25.1344 42.6385C26.2823 46.7289 27.2922 50.3273 28.1367 52.6671C28.7499 54.3661 29.1445 55.6084 29.3502 56.4618C29.4499 56.8753 29.5255 57.2777 29.537 57.6266C29.5424 57.7923 29.5385 58.0544 29.4535 58.3348C29.3691 58.613 29.1193 59.159 28.4682 59.4025C27.8635 59.6287 27.3514 59.4224 27.1487 59.3216C26.918 59.2069 26.741 59.0583 26.6294 58.9557C26.3972 58.7421 26.175 58.4694 25.9794 58.207C25.5752 57.6646 25.1031 56.9178 24.6197 56.0914C24.2814 55.5129 23.7083 54.5354 22.9704 53.2771C19.5903 47.5125 12.7536 35.8528 9.1985 29.6475C8.22814 27.9538 7.33575 27.4476 6.79333 27.3462C6.29769 27.2535 5.68976 27.427 5.04916 28.1274C3.716 29.5849 2.88331 32.7522 4.06401 35.9318C4.55899 37.2647 5.02467 38.5634 5.48551 39.8486C7.56775 45.6555 9.55119 51.1869 13.6921 58.3602C22.4773 73.5791 24.8956 96.5337 31.3699 113.323C33.3911 118.565 47.564 137.271 49.7107 138.898C50.3709 139.399 50.5004 140.34 50 141C49.4996 141.66 48.5587 141.79 47.8985 141.289C45.5382 139.5 30.8762 120.381 28.5708 114.402C22.1041 97.6327 19.8641 75.0528 11.0939 59.8601C6.80803 52.4356 4.72903 46.6337 2.63996 40.8037C2.18528 39.5348 1.73013 38.2646 1.25165 36.9761C-0.271859 32.8733 0.653182 28.4885 2.83549 26.1026C3.95263 24.8812 5.54187 24.0601 7.3448 24.3973C9.10096 24.7257 10.6086 26.0739 11.8016 28.1562C14.7858 33.365 20.0896 42.4293 23.7118 48.6099C23.2358 46.9779 22.7319 45.1824 22.2065 43.3103C21.7382 41.6417 21.2529 39.9124 20.7551 38.184C18.9917 32.0618 17.0653 25.9241 15.1089 22.0221C13.0046 17.825 11.713 13.0934 11.6038 9.4257C11.5501 7.62149 11.7748 5.86389 12.5254 4.55824C12.9159 3.87885 13.4723 3.28373 14.2316 2.91565C14.9944 2.54586 15.8377 2.46555 16.6958 2.60818C19.7217 3.11119 22.0527 5.33294 23.9102 7.84977C25.6572 10.2169 27.1769 13.1163 28.5625 15.7599C28.664 15.9537 28.7649 16.1461 28.8651 16.3369C31.2848 20.9443 35.3316 30.597 37.0398 34.8116C37.351 35.5794 36.9809 36.454 36.2131 36.7652C35.4454 37.0764 34.5707 36.7063 34.2595 35.9385C32.5424 31.702 28.5487 22.1868 26.2091 17.7317C26.1173 17.557 26.0256 17.3822 25.9339 17.2073C24.5182 14.5078 23.1005 11.8047 21.4964 9.63123C19.7708 7.29315 18.0455 5.87372 16.2038 5.56757C15.845 5.50792 15.6489 5.56247 15.5402 5.61516C15.428 5.66957 15.2808 5.78456 15.1262 6.0534C14.7866 6.6442 14.5549 7.73548 14.6025 9.33645ZM26.5386 57.7249C26.5388 57.7317 26.5384 57.7298 26.5384 57.7206L26.5386 57.7249ZM28.6579 56.7454C28.6639 56.7506 28.6647 56.7517 28.6602 56.7476L28.6579 56.7454Z" fill="black"/>
<path id="Vector 177 (Stroke)" fill-rule="evenodd" clip-rule="evenodd" d="M57.2855 0.58376C60.4435 1.08772 63.911 3.81318 65.9535 8.32409C69.8329 16.8918 71.4827 25.977 72.0322 33.376C72.5592 40.4715 74.134 46.7749 77.5833 54.4495C81.2493 62.606 81.5011 70.7437 81.5011 83.115C81.5011 93.1502 76.8427 127.276 75.6734 136.696C75.5713 137.518 74.8221 138.102 74 138C73.1779 137.898 72.5942 137.149 72.6962 136.327C73.8705 126.867 78.5011 92.931 78.5011 83.115C78.5011 70.6723 78.212 63.1664 74.847 55.6793C71.2654 47.7103 69.5952 41.0673 69.0405 33.5982C68.5083 26.4324 66.913 17.7163 63.2206 9.56152C61.4772 5.7112 58.7252 3.85147 56.8127 3.54627C55.871 3.396 55.2762 3.62667 54.9515 3.94512C54.6312 4.25927 54.2811 4.94656 54.4483 6.33617C55.2574 13.0612 57.4132 27.0293 58.4789 31.8123C58.9423 33.8921 59.2616 37.6547 59.479 41.3972C59.699 45.1832 59.8213 49.0872 59.8666 51.5303C59.882 52.3585 59.223 53.0425 58.3947 53.0578C57.5665 53.0732 56.8825 52.4142 56.8671 51.5859C56.8224 49.174 56.7013 45.3102 56.4841 41.5712C56.2643 37.7885 55.9526 34.2688 55.5507 32.4647C54.453 27.5378 52.2832 13.4554 51.4697 6.69453C51.2313 4.71268 51.6586 2.97251 52.851 1.80321C54.0389 0.638223 55.692 0.329464 57.2855 0.58376Z" fill="black"/>
<path id="Vector 178 (Stroke)" fill-rule="evenodd" clip-rule="evenodd" d="M39.8199 49.4674C37.6246 48.698 36.0822 48.8479 34.7333 50.0011C33.9429 50.6768 33.5537 51.2935 33.4116 51.9084C33.269 52.5258 33.3248 53.3606 33.8496 54.5674C34.9356 57.0646 37.7726 60.5909 43.1874 65.8566C51.845 74.2759 55.8041 78.7059 57.9607 81.6986C58.4451 82.3707 58.2928 83.3082 57.6207 83.7925C56.9486 84.2769 56.0112 84.1246 55.5268 83.4525C53.537 80.6913 49.7452 76.4185 41.0959 68.0074C35.6938 62.7541 32.4464 58.8632 31.0985 55.7638C30.4064 54.1723 30.158 52.6639 30.4886 51.2331C30.8198 49.7999 31.6813 48.6634 32.7839 47.7208C35.2208 45.6374 38.0049 45.6524 40.8121 46.6362C43.5246 47.5868 46.525 49.5251 49.7321 51.6576C50.7087 52.307 51.7941 53.0097 52.9456 53.7551C55.5474 55.4394 58.4865 57.3421 61.2697 59.3417C65.2757 62.2199 69.1758 65.4457 71.4951 68.7711C75.9328 75.1337 76.3315 79.9548 76.6055 83.268C76.6128 83.3563 76.62 83.4435 76.6272 83.5296C76.6962 84.3551 76.0828 85.0803 75.2573 85.1492C74.4317 85.2182 73.7066 84.6049 73.6376 83.7793C73.6298 83.6864 73.6221 83.5925 73.6143 83.4977C73.3565 80.3726 73.0113 76.1891 69.0345 70.4873C67.0271 67.6092 63.4906 64.6314 59.5192 61.7781C56.7957 59.8213 53.9698 57.9922 51.3952 56.3257C50.224 55.5676 49.1049 54.8432 48.071 54.1558C44.7881 51.9728 42.11 50.2699 39.8199 49.4674Z" fill="black"/>
<path id="Vector 179 (Stroke)" fill-rule="evenodd" clip-rule="evenodd" d="M40.7109 26.851C42.4513 25.5697 44.3697 25.0909 46.5743 25.2479C48.4151 25.3791 50.7243 26.3411 52.7065 27.3398C54.7493 28.3689 56.6845 29.563 57.8561 30.3576C58.5417 30.8226 58.7205 31.7554 58.2555 32.441C57.7905 33.1266 56.8578 33.3055 56.1721 32.8405C55.0902 32.1067 53.2666 30.9812 51.3567 30.019C49.3863 29.0262 47.549 28.325 46.3611 28.2403C44.7798 28.1277 43.5883 28.458 42.4894 29.267C41.3273 30.1225 40.1692 31.5865 38.8542 33.9473C37.8899 35.6786 37.0695 38.4998 36.4422 41.4582C35.8239 44.3744 35.426 47.2599 35.2504 49.0106C35.1678 49.8349 34.4326 50.4361 33.6083 50.3535C32.784 50.2708 32.1828 49.5356 32.2654 48.7113C32.4504 46.8657 32.8638 43.8714 33.5074 40.8359C34.1421 37.8425 35.0344 34.64 36.2334 32.4874C37.6226 29.9933 39.0335 28.0859 40.7109 26.851Z" fill="black"/>
<path id="Vector 180 (Stroke)" fill-rule="evenodd" clip-rule="evenodd" d="M49.9111 33.9145C50.7178 33.7258 51.5247 34.2268 51.7134 35.0334C52.2637 37.3859 51.8346 40.1221 50.9815 42.8575C50.1182 45.6258 48.7604 48.5781 47.2541 51.4464C46.8689 52.1798 45.9621 52.4621 45.2287 52.077C44.4952 51.6918 44.2129 50.785 44.5981 50.0515C46.0664 47.2558 47.3314 44.4851 48.1175 41.9644C48.9139 39.4109 49.1608 37.2921 48.7923 35.7168C48.6035 34.9101 49.1045 34.1032 49.9111 33.9145Z" fill="black"/>
</g>
</svg>
