<svg width="74" height="139" viewBox="0 0 74 139" fill="none" xmlns="http://www.w3.org/2000/svg">
<path fill-rule="evenodd" clip-rule="evenodd" d="M65.4 1.81457C66.2058 1.62223 67.015 2.11952 67.2073 2.92531C68.3089 7.5404 69.9431 14.8879 71.2683 21.9459C72.5804 28.9344 73.6314 35.8448 73.4846 39.4673C73.4276 40.8733 73.1052 45.2557 71.597 49.095C70.843 51.0146 69.7371 52.9447 68.0841 54.2633C66.3654 55.6343 64.1631 56.2542 61.5022 55.6836C60.6922 55.5099 60.1764 54.7125 60.3501 53.9025C60.5237 53.0925 61.3212 52.5766 62.1312 52.7503C63.9249 53.1349 65.2072 52.7206 66.2133 51.9181C67.285 51.0631 68.1439 49.6804 68.8047 47.9982C70.1264 44.6336 70.434 40.6556 70.487 39.3458C70.6174 36.1279 69.6471 29.5689 68.3198 22.4995C67.0055 15.4997 65.3823 8.2009 64.2893 3.62185C64.0969 2.81606 64.5942 2.00692 65.4 1.81457Z" fill="#2B2A29"/>
<path fill-rule="evenodd" clip-rule="evenodd" d="M12.6609 0.578671C13.4459 0.843443 13.8676 1.69443 13.6028 2.47941C11.7402 8.00171 9.00063 16.7901 6.84107 25.1881C5.76105 29.3881 4.83139 33.47 4.22805 36.9867C3.61747 40.5455 3.36741 43.3843 3.56666 45.1667C3.95939 48.6798 4.26184 52.6694 4.55151 56.4905C4.67819 58.1617 4.80244 59.8006 4.93072 61.3534C5.14303 63.9231 5.36619 66.2587 5.62937 68.1587C5.90029 70.1146 6.19267 71.4325 6.48159 72.0828C6.98808 73.2227 7.52433 73.8757 7.93024 74.1763C8.27961 74.435 8.39573 74.3593 8.41113 74.3492C8.41184 74.3488 8.41234 74.3484 8.41264 74.3483C8.53235 74.2899 8.91106 73.9953 9.25956 72.9753C9.59544 71.9923 9.83304 70.525 9.83304 68.4983C9.83304 63.1456 9.21442 59.9707 8.89065 58.309C8.80285 57.8584 8.73673 57.5191 8.71051 57.2778C8.621 56.4542 9.21607 55.714 10.0397 55.6245C10.8632 55.5349 11.6034 56.13 11.6929 56.9536C11.7035 57.0509 11.7415 57.24 11.7977 57.5193C12.0823 58.9361 12.833 62.6721 12.833 68.4983C12.833 70.7272 12.5757 72.5485 12.0984 73.9453C11.6338 75.3052 10.8812 76.4819 9.72819 77.0445C8.46211 77.6622 7.15816 77.3375 6.14493 76.5872C5.17205 75.8668 4.36487 74.7071 3.74004 73.3009C3.25745 72.2148 2.92508 70.5003 2.65774 68.5703C2.38266 66.5844 2.15408 64.1807 1.94091 61.6004C1.80884 60.0019 1.68259 58.336 1.55481 56.6502C1.26717 52.855 0.971843 48.9583 0.585233 45.5C0.335345 43.2646 0.656063 40.0651 1.27125 36.4794C1.89368 32.8515 2.84478 28.6829 3.93559 24.441C6.11768 15.9553 8.88006 7.09467 10.7602 1.52058C11.025 0.735608 11.876 0.313899 12.6609 0.578671Z" fill="#2B2A29"/>
<path fill-rule="evenodd" clip-rule="evenodd" d="M61.9274 44.4428C62.7535 44.5041 63.3735 45.2236 63.3121 46.0498L61.8472 45.941C63.3121 46.0498 63.3121 46.0503 63.312 46.0511L63.3069 46.12L63.2913 46.3238C63.2775 46.5031 63.2569 46.7686 63.2293 47.1141C63.1743 47.805 63.0917 48.8161 62.9814 50.0992C62.7608 52.6651 62.4295 56.3194 61.9861 60.6759C61.0996 69.3859 59.7639 80.9164 57.968 92.1739C56.176 103.406 53.9118 114.461 51.1473 122.172C49.7766 125.995 48.2203 129.182 46.4116 131.132C45.4951 132.12 44.4202 132.893 43.1707 133.18C41.8753 133.478 40.5915 133.208 39.3949 132.473C38.6889 132.039 38.4682 131.115 38.9017 130.409C39.3353 129.704 40.259 129.483 40.9649 129.916C41.5979 130.305 42.084 130.352 42.4991 130.256C42.9601 130.151 43.5364 129.821 44.212 129.092C45.5876 127.609 46.9796 124.907 48.3233 121.159C50.9878 113.728 53.2179 102.906 55.0054 91.7013C56.7891 80.5212 58.1181 69.0522 59.0015 60.3721C59.4431 56.0336 59.773 52.3952 59.9924 49.8423C60.1021 48.5658 60.1842 47.5609 60.2388 46.8757C60.2661 46.5331 60.2866 46.2704 60.3001 46.0937L60.3154 45.8939L60.3203 45.8284C60.3204 45.8278 60.3204 45.8276 61.7731 45.9355L60.3203 45.8284C60.3817 45.0022 61.1012 44.3814 61.9274 44.4428Z" fill="#2B2A29"/>
<path fill-rule="evenodd" clip-rule="evenodd" d="M42.2104 46.9908C43.0361 47.0578 43.6511 47.7816 43.584 48.6073C42.6387 60.2478 42.099 77.1375 41.7015 92.4154C41.6084 95.9928 41.5231 99.4848 41.4421 102.8C41.1783 113.597 40.9603 122.521 40.6689 126.423C40.3732 130.383 39.4582 133.404 38.0729 135.448C36.6626 137.528 34.6918 138.665 32.4942 138.481C30.3801 138.304 28.4624 136.933 26.9839 134.915C25.4904 132.876 24.3326 130.04 23.7329 126.566C21.6964 114.768 21.2062 102.307 21.1086 89.8525C21.0745 85.5006 21.0881 81.1595 21.1017 76.8456C20.4988 71.5 21.1521 60.7802 20.8627 52.9991C20.8319 52.1713 21.4781 51.4752 22.306 51.4444C23.1338 51.4137 23.8299 52.0598 23.8607 52.8877C24.152 60.7238 24.1269 68.8214 24.1017 76.9448C24.0884 81.2439 24.075 85.5503 24.1085 89.829C24.2057 102.242 24.6955 114.505 26.6892 126.056C27.2293 129.185 28.2441 131.559 29.4041 133.142C30.5791 134.746 31.7958 135.412 32.7448 135.491C33.6103 135.564 34.6313 135.178 35.5896 133.765C36.5728 132.314 37.4031 129.87 37.6773 126.199C37.9625 122.38 38.1775 113.584 38.4406 102.82C38.5221 99.4851 38.6083 95.9608 38.7025 92.3374C39.0997 77.0725 39.6407 60.1007 40.5939 48.3644C40.6609 47.5387 41.3847 46.9237 42.2104 46.9908Z" fill="#2B2A29"/>
<path fill-rule="evenodd" clip-rule="evenodd" d="M11.2218 67.0264C12.0358 66.8725 12.8204 67.4077 12.9742 68.2218C13.3009 69.9508 14.1937 72.5995 15.4929 74.4607C16.1429 75.3919 16.8035 75.9936 17.4174 76.2666C17.9497 76.5034 18.542 76.5423 19.3214 76.1264C19.9335 75.7998 20.3697 75.0288 20.6128 73.9334C20.8261 72.9723 20.8207 72.0789 20.8187 71.7517C20.8186 71.7255 20.8185 71.7029 20.8185 71.6842C20.8185 70.8558 21.49 70.1842 22.3185 70.1842C23.1469 70.1842 23.8185 70.8558 23.8185 71.6842C23.8185 71.699 23.8186 71.719 23.8188 71.7438C23.8217 72.0751 23.8321 73.2743 23.5415 74.5834C23.242 75.9332 22.5327 77.8132 20.7337 78.7732C19.1585 79.6137 17.5959 79.6293 16.1983 79.0078C14.8823 78.4225 13.8378 77.3308 13.0329 76.1779C11.4224 73.8707 10.4061 70.7883 10.0264 68.7788C9.87254 67.9648 10.4077 67.1802 11.2218 67.0264Z" fill="#2B2A29"/>
</svg>
