<svg width="96" height="125" viewBox="0 0 96 125" fill="none" xmlns="http://www.w3.org/2000/svg">
    <g clip-path="url(#clip0_691_4373)">
        <path d="M65.8085 122.323C66.4554 122.845 66.5598 123.793 66.0381 124.44C65.5164 125.088 64.569 125.192 63.9221 124.67L37.5126 103.342L37.3081 103.142L31.4027 96.1622L18.0727 86.2461C17.768 86.0205 17.5719 85.6989 17.4968 85.3522L13.3066 66.0337C13.1313 65.2192 13.6488 64.4172 14.4627 64.2418L14.7423 64.2084C16.7205 64.0162 18.8072 63.9244 20.823 64.53C22.989 65.1816 24.9756 66.5809 26.4864 69.3711L30.0463 78.8403C32.8383 78.999 35.476 79.4501 37.9717 80.1435C40.2921 80.7909 42.504 81.6514 44.6158 82.6873C45.7301 80.8369 46.9738 79.0157 48.4262 77.2489C50.0288 75.2982 51.8776 73.427 54.0812 71.6768L48.977 49.1964L6.75431 25.0994C6.57068 24.995 6.42044 24.8613 6.29941 24.7026C4.74271 22.6684 4.1167 20.6259 4.01236 18.5792C3.90803 16.616 4.29198 14.7238 4.76358 12.8525C4.96391 12.0464 5.7819 11.5535 6.59155 11.754C7.39702 11.9545 7.88949 12.7732 7.68917 13.5835C7.27599 15.2292 6.93795 16.8666 7.02141 18.4288C7.09236 19.8281 7.50971 21.2315 8.52385 22.6434L51.0346 46.9074C51.3935 47.1079 51.6731 47.4546 51.7691 47.8931L57.2154 71.8731C57.3782 72.4537 57.1862 73.1012 56.6729 73.4896C54.3149 75.269 52.3867 77.1779 50.7549 79.1661C49.1148 81.1627 47.7459 83.2721 46.5105 85.4316C46.1057 86.1333 45.2126 86.3923 44.4948 86.008C42.191 84.7758 39.7579 83.7691 37.1745 83.0507C34.6037 82.3364 31.8826 81.902 28.9821 81.8101C28.3769 81.806 27.8052 81.4342 27.5798 80.8327L23.807 70.762C22.7386 68.8239 21.3989 67.8591 19.9633 67.4288C18.9157 67.1155 17.7722 67.0529 16.6203 67.0988L20.3222 84.1826L33.2849 93.8273C33.3976 93.9025 33.5019 93.9985 33.5937 94.103L39.5159 101.108L65.8044 122.339L65.8085 122.323Z" fill="#2B2A29"/>
        <path d="M61.1676 39.3679C61.585 40.0864 61.3387 41.0095 60.6209 41.423C59.9031 41.8407 58.9807 41.5943 58.5676 40.8758L52.5369 30.5044L32.7298 12.7899L3.56158 3.7175C5.34781 10.3881 8.56971 14.4857 12.7181 16.6953C17.4174 19.2015 23.4105 19.377 29.9169 18.1782C30.7307 18.0278 31.5153 18.5708 31.6656 19.3853C31.8158 20.1998 31.2732 20.9851 30.4594 21.1355C23.327 22.4512 16.6787 22.2131 11.3033 19.3477C5.87367 16.4531 1.8296 10.9478 0.0308465 1.78774C-0.0108879 1.55383 -0.00254102 1.30321 0.072581 1.05677C0.314641 0.263149 1.15768 -0.183787 1.95063 0.0626542L33.9276 10.0122C34.1279 10.0749 34.3199 10.1793 34.4868 10.3296L54.6612 28.37C54.8031 28.4828 54.9283 28.6248 55.0285 28.796L61.176 39.3679H61.1676Z" fill="#2B2A29"/>
        <path d="M95.8533 103.042C96.2122 103.789 95.8992 104.692 95.1522 105.051C94.4051 105.41 93.5037 105.097 93.1447 104.349L64.1936 44.5098L26.2444 21.4279C25.535 20.9976 25.3096 20.0745 25.7395 19.3644C26.1693 18.6544 27.0917 18.4288 27.8011 18.859L66.08 42.1456C66.3429 42.2918 66.5683 42.5174 66.706 42.8098L95.8491 103.046L95.8533 103.042Z" fill="#2B2A29"/>
        <path d="M20.9394 65.1064C20.9394 65.9377 20.2675 66.6102 19.437 66.6102C18.6065 66.6102 17.9346 65.9377 17.9346 65.1064L17.9554 57.1201C17.9554 56.882 18.0097 56.6523 18.114 56.4518L24.7498 43.0938C25.0044 42.58 25.5177 42.2751 26.0519 42.2584L39.1482 41.3186C39.9787 41.2601 40.6965 41.8867 40.755 42.7179C40.8134 43.5491 40.1874 44.2675 39.3569 44.326L27.0619 45.2074L20.9561 57.4877L20.9394 65.1064Z" fill="#2B2A29"/>
        <path d="M29.0949 73.7277C29.0949 74.5589 28.423 75.2314 27.5925 75.2314C26.762 75.2314 26.09 74.5589 26.09 73.7277C26.09 72.2282 26.065 70.5532 26.0024 68.6527C25.944 66.8064 25.8438 64.7096 25.6977 62.3037C25.6644 61.7105 25.9774 61.1717 26.4657 60.9002C27.9723 60.0523 29.3453 58.9496 30.6015 57.6296C31.887 56.2763 33.0514 54.6974 34.1072 52.9306C34.4954 52.2789 35.305 52.0283 35.9853 52.3207C38.3099 53.3107 40.7806 53.908 43.3765 54.1335C46.0015 54.3633 48.7602 54.2171 51.6315 53.72C52.4495 53.5822 53.23 54.1335 53.3677 54.9522C53.5054 55.7709 52.9545 56.552 52.1365 56.6898C49.0023 57.2287 45.989 57.3916 43.1135 57.1409C40.6512 56.9279 38.2765 56.41 36.0062 55.5704C35.017 57.0992 33.9445 58.4901 32.7801 59.7098C31.5489 61.0046 30.2092 62.1241 28.7569 63.043C28.8737 65.0312 28.953 66.8649 29.0073 68.5608C29.0657 70.4571 29.0949 72.1697 29.0949 73.7277Z" fill="#2B2A29"/>
        <path d="M29.187 76.4719C28.6319 77.0901 27.6762 77.1403 27.0627 76.5847C26.445 76.0292 26.3949 75.0727 26.95 74.4586C28.4942 72.7461 29.9215 70.9333 31.2111 69.0202C32.5007 67.1155 33.6567 65.1064 34.6625 62.9929C35.0214 62.241 35.9187 61.9236 36.67 62.2786L36.9287 62.4373C38.0096 63.1307 39.1239 63.6319 40.2633 63.9536C41.4444 64.2877 42.6547 64.4381 43.8817 64.4214C44.5244 64.413 45.0794 64.814 45.3006 65.3779C46.056 67.1114 47.0493 68.7404 48.2805 70.2441C49.5242 71.7645 51.0224 73.1596 52.7669 74.4252C53.4389 74.9139 53.5891 75.8579 53.105 76.5304C52.6167 77.2029 51.6735 77.3533 51.0016 76.8688C49.0442 75.4528 47.3581 73.878 45.9517 72.1571C44.7497 70.691 43.7439 69.1038 42.9301 67.4079C41.7449 67.3536 40.5846 67.1698 39.4536 66.8482C38.5063 66.5809 37.5714 66.2133 36.6574 65.7413C35.7643 67.4622 34.7794 69.1163 33.7068 70.6994C32.3421 72.721 30.8271 74.6424 29.1828 76.4678L29.187 76.4719Z" fill="#2B2A29"/>
    </g>
    <defs>
        <clipPath id="clip0_691_4373">
            <rect width="96" height="125" fill="white"/>
        </clipPath>
    </defs>
</svg>
