<svg width="30" height="30" viewBox="0 0 30 30" fill="none" xmlns="http://www.w3.org/2000/svg">
<circle cx="15" cy="15" r="15" fill="#5A60F8"/>
<g clip-path="url(#clip0_864_8333)">
<path d="M10.6289 19.1C9.67578 18.0781 9.14141 16.8563 9.01953 15.4375C9.69141 15.4375 10.357 15.4375 10.9945 15.4375C11.0883 15.9281 11.1664 16.4156 11.2789 16.8969C11.3914 17.375 11.582 17.8281 11.8039 18.2594C11.4102 18.5375 11.0258 18.8156 10.6289 19.1Z" fill="white"/>
<path d="M20.957 15.4406C20.8352 16.8562 20.2977 18.0781 19.3508 19.1031C18.957 18.8187 18.5695 18.5437 18.1758 18.2593C18.6195 17.3874 18.8789 16.4437 18.9445 15.4406C19.6102 15.4406 20.2758 15.4406 20.957 15.4406Z" fill="white"/>
<path d="M11.0274 14.5813C10.3587 14.5813 9.69615 14.5813 9.03678 14.5813C8.95553 13.6094 9.78365 11.7188 10.6368 10.9219C11.0212 11.2 11.4055 11.475 11.7962 11.7594C11.3462 12.6344 11.0899 13.5781 11.0274 14.5813Z" fill="white"/>
<path d="M19.343 10.9249C20.1398 11.6031 20.943 13.4124 20.9523 14.5843C20.2898 14.5843 19.6305 14.5843 18.9555 14.5843C18.8898 13.5874 18.6367 12.6406 18.1836 11.7624C18.5711 11.4812 18.9555 11.2031 19.343 10.9249Z" fill="white"/>
<path d="M14.6086 14.5844C13.6805 14.5844 12.7586 14.5844 11.8242 14.5844C11.8805 13.7031 12.1148 12.8813 12.5148 12.1094C12.8617 12.2125 13.1992 12.3312 13.5461 12.4125C13.893 12.4937 14.2492 12.5313 14.6117 12.5906C14.6086 13.2406 14.6086 13.9062 14.6086 14.5844Z" fill="white"/>
<path d="M15.3672 14.5813C15.3672 13.9063 15.3672 13.2406 15.3672 12.5656C16.0859 12.5219 16.7766 12.3656 17.4391 12.0938C17.7547 12.4969 18.1797 14.0094 18.1422 14.5813C17.2203 14.5813 16.2984 14.5813 15.3672 14.5813Z" fill="white"/>
<path d="M12.5377 17.9281C12.2002 17.4125 11.8064 16.0063 11.8377 15.4375C12.7564 15.4375 13.6752 15.4375 14.6033 15.4375C14.6033 16.1062 14.6033 16.7781 14.6033 17.4594C13.8939 17.5094 13.2033 17.6563 12.5377 17.9281Z" fill="white"/>
<path d="M18.1492 15.4406C18.0836 16.3218 17.8555 17.1468 17.4492 17.9312C16.7773 17.6593 16.0898 17.5062 15.3711 17.4624C15.3711 16.7874 15.3711 16.1187 15.3711 15.4406C16.2898 15.4406 17.2117 15.4406 18.1492 15.4406Z" fill="white"/>
<path d="M15.3672 20.2781C15.3672 19.6 15.3672 18.9438 15.3672 18.275C15.9391 18.3094 16.4859 18.425 17.0266 18.6344C16.5766 19.2875 16.0328 19.8281 15.3672 20.2781Z" fill="white"/>
<path d="M14.607 20.2719C14.032 19.9125 13.2633 19.1531 12.957 18.6344C13.4883 18.4281 14.0352 18.3125 14.607 18.275C14.607 18.9406 14.607 19.6 14.607 20.2719Z" fill="white"/>
<path d="M15.3711 11.7406C15.3711 11.0719 15.3711 10.4188 15.3711 9.74377C16.0305 10.1906 16.5773 10.7281 17.0305 11.3781C16.4898 11.5875 15.943 11.7063 15.3711 11.7406Z" fill="white"/>
<path d="M14.6055 11.7406C14.0336 11.7063 13.4898 11.5875 12.9492 11.3781C13.3992 10.7281 13.9492 10.1938 14.6055 9.74377C14.6055 10.4156 14.6055 11.0719 14.6055 11.7406Z" fill="white"/>
<path d="M17.7617 18.9625C18.093 19.2 18.4117 19.425 18.7461 19.6625C17.8805 20.3563 16.9242 20.7688 15.8555 20.9219C16.6055 20.3969 17.2367 19.7531 17.7617 18.9625Z" fill="white"/>
<path d="M11.2266 19.6625C11.5641 19.4219 11.8828 19.1969 12.2141 18.9625C12.7359 19.75 13.3672 20.3938 14.1203 20.9188C13.0516 20.7688 12.0984 20.3563 11.2266 19.6625Z" fill="white"/>
<path d="M11.2266 10.3594C12.0984 9.6656 13.0516 9.24998 14.1203 9.09998C13.3703 9.6281 12.7328 10.2687 12.2078 11.0562C11.8828 10.825 11.5641 10.5969 11.2266 10.3594Z" fill="white"/>
<path d="M15.8594 9.09998C16.9281 9.24998 17.8781 9.66248 18.7469 10.3562C18.4156 10.5937 18.0969 10.8219 17.7688 11.0562C17.2438 10.2687 16.6094 9.63123 15.8594 9.09998Z" fill="white"/>
</g>
<defs>
<clipPath id="clip0_864_8333">
<rect width="12" height="12" fill="white" transform="translate(9 9)"/>
</clipPath>
</defs>
</svg>
