<svg width="30" height="30" viewBox="0 0 30 30" fill="none" xmlns="http://www.w3.org/2000/svg">
<circle cx="15" cy="15" r="15" fill="#5A60F8"/>
<g clip-path="url(#clip0_864_8313)">
<path d="M22.9989 14.5285C22.9989 14.8415 22.9989 15.1546 22.9989 15.4676C22.9911 15.5224 22.9793 15.5772 22.9715 15.6319C22.9206 15.9763 22.8932 16.3245 22.8189 16.665C22.4001 18.5862 21.4138 20.1592 19.8482 21.3448C17.903 22.82 15.7073 23.3091 13.3199 22.8083C11.406 22.4091 9.85214 21.4074 8.66232 19.8618C7.37465 18.191 6.83844 16.2893 7.04197 14.1959C7.20635 12.5016 7.86388 11.0029 8.995 9.7234C10.2318 8.32649 11.7739 7.4539 13.6173 7.12521C13.9187 7.07043 14.224 7.04304 14.5253 7C14.8384 7 15.1516 7 15.4647 7C15.5038 7.00783 15.5429 7.02348 15.586 7.02739C16.8384 7.11739 18.0087 7.47347 19.0772 8.12693C21.1476 9.39863 22.4236 11.226 22.8737 13.6207C22.9285 13.922 22.9559 14.2272 22.9989 14.5285ZM15.0028 8.2404C11.2807 8.23258 8.25136 11.2534 8.23962 14.9863C8.22788 18.7036 11.2494 21.7322 14.9833 21.7518C18.7054 21.7674 21.7504 18.7271 21.7543 14.998C21.7543 11.2729 18.7328 8.24823 15.0028 8.2404Z" fill="white"/>
<path d="M14.379 13.1707C14.379 12.572 14.3751 11.9734 14.379 11.3747C14.3829 10.9012 14.7939 10.596 15.2127 10.7525C15.4749 10.8464 15.6197 11.0773 15.6197 11.406C15.6197 12.4507 15.6236 13.4994 15.6158 14.5442C15.6158 14.6811 15.651 14.7672 15.7685 14.8533C16.4573 15.3581 17.1383 15.8746 17.8193 16.3872C18.1285 16.6219 18.1872 16.9976 17.9681 17.2793C17.7528 17.5571 17.3849 17.6002 17.0796 17.3771C16.5082 16.9545 15.9368 16.5241 15.3653 16.0937C15.1422 15.9254 14.9191 15.7533 14.6882 15.5889C14.469 15.4324 14.3712 15.2289 14.3751 14.9629C14.379 14.3681 14.379 13.7694 14.379 13.1707Z" fill="white"/>
</g>
<defs>
<clipPath id="clip0_864_8313">
<rect width="16" height="16" fill="white" transform="translate(7 7)"/>
</clipPath>
</defs>
</svg>
