<svg width="205" height="82" viewBox="0 0 205 82" fill="none" xmlns="http://www.w3.org/2000/svg">
<path d="M96.1945 11.3507C99.3781 10.7211 102.562 10.1326 105.704 9.37978C108.613 8.68183 111.015 7.02573 113.114 4.91803C113.759 4.27476 114.39 3.61782 115.104 3.04297C115.818 2.45444 116.6 2.41343 117.121 2.79666C117.684 3.19357 117.958 4.0832 117.698 4.90436C117.162 6.56041 116.01 7.80587 114.857 9.03767C113.896 10.0642 112.867 11.0496 111.783 11.9529C110.233 13.2394 109.437 14.7722 109.505 16.8115C109.601 19.453 109.519 22.0945 109.601 24.736C109.629 25.5434 109.45 25.9951 108.668 26.2962C105.134 27.6855 103.648 28.3629 99.831 28.3629C99.2683 27.2816 99.0625 26.2278 99.0899 25.1191C99.1558 22.1418 99.3739 19.0832 99.1585 16.1134C99.0351 14.5943 98.9116 14.5395 97.3197 14.3205C92.2678 13.6335 86.7891 13.2126 96.1945 11.3505L96.1945 11.3507Z" fill="black"/>
<path d="M96.4808 1.52854C96.6993 0.612411 97.537 1.26371 97.6062 1.77016C97.8807 2.97456 97.766 3.8417 97.1034 5.35712C96.1615 7.51141 96.8544 8.46828 97.3418 10.4191C96.8056 10.5239 96.2691 10.6288 95.7328 10.7348C94.9585 10.8881 94.2045 11.0847 93.4425 11.3264C93.0206 9.53133 91.6714 8.62067 90.2952 7.72373C89.5404 7.23102 88.8132 6.65616 88.182 6.02662C87.458 5.43664 87.9202 4.24067 88.8384 4.83193C90.286 5.76397 91.9452 6.97188 93.7297 6.25746C95.7512 5.44819 95.8937 3.31762 96.4808 1.52849V1.52854Z" fill="black"/>
<path d="M112.046 2.20072C112.696 1.82663 113.194 2.96206 112.426 3.48134C111.8 4.13113 110.252 5.48123 110.015 6.55315C108.788 7.41945 107.459 8.11099 105.998 8.55773C105.78 6.9023 106.918 5.64059 106.432 4.01468C108.916 4.52107 110.084 3.25451 112.046 2.20066V2.20072Z" fill="black"/>
<path d="M66.4498 41.898H59.094V54.7554H66.4498V56.3073H57.5381V40.3462H66.4498V41.898Z" fill="black"/>
<path d="M82.9022 41.898H75.5463V47.1704H81.8248V48.7222H75.5463V56.3072H73.9904V40.3462H82.9022V41.898Z" fill="black"/>
<path d="M58.3163 47.1704H65.3684V48.7222H58.3163V47.1704Z" fill="black"/>
<path d="M102.73 56.3072L108.299 40.3462H110.002L115.57 56.3072H113.928L112.298 51.6343H106.003L104.373 56.3072H102.73ZM111.756 50.0825L109.15 42.6126L106.544 50.0825H111.756H111.756Z" fill="black"/>
<path d="M98.9252 41.898H91.5694V47.1704H97.8479V48.7222H91.5694V56.3072H90.0135V40.3462H98.9252V41.898Z" fill="black"/>
<path d="M130.818 41.898H123.462V47.1704H129.741V48.7222H123.462V56.3072H121.906V40.3462H130.818V41.898Z" fill="black"/>
<path d="M134.623 56.3072L140.191 40.3462H141.895L147.463 56.3072H145.82L144.19 51.6343H137.896L136.265 56.3072H134.623ZM143.649 50.0825L141.043 42.6126L138.437 50.0825H143.649H143.649Z" fill="black"/>
<path d="M203.995 79.8915H0V82H203.995V79.8915Z" fill="black"/>
<path fill-rule="evenodd" clip-rule="evenodd" d="M2.11408 16.4287V82H0V16.4287V14.3202H2.11408H75.4211V16.4287H2.11408Z" fill="black"/>
<path fill-rule="evenodd" clip-rule="evenodd" d="M202.886 16.4287V82H205V16.4287V14.3202H202.886H129.579V16.4287H202.886Z" fill="black"/>
<path d="M92.6343 5.13007C93.4603 5.13007 94.1299 4.46221 94.1299 3.63836C94.1299 2.81451 93.4603 2.14664 92.6343 2.14664C91.8083 2.14664 91.1387 2.81451 91.1387 3.63836C91.1387 4.46221 91.8083 5.13007 92.6343 5.13007Z" fill="black"/>
<path d="M101.985 8.98393C104.222 8.98393 106.035 7.17531 106.035 4.94426C106.035 2.71321 104.222 0.904581 101.985 0.904581C99.7477 0.904581 97.9343 2.71321 97.9343 4.94426C97.9343 7.17531 99.7477 8.98393 101.985 8.98393Z" fill="black"/>
<path d="M107.493 3.23308C108.388 3.23308 109.114 2.50933 109.114 1.61654C109.114 0.72375 108.388 0 107.493 0C106.598 0 105.872 0.72375 105.872 1.61654C105.872 2.50933 106.598 3.23308 107.493 3.23308Z" fill="black"/>
</svg>
