<svg width="36" height="36" viewBox="0 0 36 36" fill="none" xmlns="http://www.w3.org/2000/svg">
<g id="excel 1">
<g id="Group">
<g id="Group_2">
<path id="Vector" d="M0.0976562 30.5688C0.0976562 22.3338 0.0976562 14.0988 0.0976562 5.86376C0.414059 5.27371 0.961349 5.07703 1.5856 5.02572C1.70532 5.01717 1.83359 4.98296 1.95331 4.95731C7.40056 3.93969 12.8478 2.91352 18.2951 1.8959C19.2015 1.72487 19.7488 2.1781 19.7488 3.10165C19.7488 4.13637 19.7574 5.17109 19.7574 6.20581C19.7574 7.59114 19.7574 8.97647 19.7402 10.3703C19.7402 10.6098 19.8771 10.5841 20.0224 10.5841C20.9802 10.5841 21.9294 10.5841 22.8872 10.5841C23.614 10.5841 24.11 11.0288 24.11 11.6787C24.11 12.3201 23.614 12.7647 22.8872 12.7647C21.9465 12.7647 20.9973 12.7733 20.0567 12.7562C19.7916 12.7476 19.7317 12.8332 19.7402 13.0811C19.7574 13.5942 19.7659 14.1073 19.7402 14.6119C19.7231 14.9112 19.8343 14.9625 20.0994 14.9539C21.0401 14.9368 21.9893 14.9454 22.9299 14.9454C23.2634 14.9454 23.5627 15.0394 23.7936 15.2789C24.11 15.6124 24.2041 16.0143 24.0245 16.4419C23.8449 16.878 23.4858 17.1174 23.0069 17.1174C22.0064 17.126 21.0059 17.126 20.0053 17.1174C19.8001 17.1174 19.7317 17.1687 19.7402 17.3825C19.7574 17.9298 19.7574 18.4771 19.7402 19.0158C19.7317 19.2553 19.8087 19.3151 20.0395 19.3151C21.0059 19.298 21.9722 19.3066 22.9385 19.3066C23.3917 19.3066 23.7594 19.4862 23.9732 19.8966C24.358 20.6235 23.8449 21.4701 22.9898 21.4786C22.032 21.4957 21.0828 21.5043 20.1251 21.4701C19.783 21.4615 19.706 21.5641 19.7317 21.8891C19.7574 22.3765 19.7488 22.864 19.7317 23.3514C19.7231 23.5994 19.7745 23.6763 20.0481 23.6763C21.0144 23.6592 21.9807 23.6678 22.947 23.6678C23.4345 23.6678 23.8107 23.873 24.0074 24.3263C24.3324 25.0531 23.8107 25.8313 22.9812 25.8399C21.9893 25.857 21.0059 25.8399 20.0139 25.8399C19.8685 25.8399 19.7317 25.8142 19.7317 26.0536C19.7488 27.439 19.7402 28.8243 19.7488 30.2182C19.7488 31.2957 19.7488 32.3817 19.7317 33.4592C19.7231 34.2117 19.116 34.6906 18.372 34.5537C17.8333 34.4511 17.3031 34.3485 16.7644 34.2459C11.6934 33.2967 6.63094 32.3389 1.55995 31.4068C0.9699 31.3042 0.414059 31.1588 0.0976562 30.5688ZM15.379 12.7049C15.379 12.6792 15.3705 12.5937 15.3534 12.5253C15.2422 12.0721 14.9515 11.7899 14.4982 11.6958C14.0279 11.6018 13.6602 11.7984 13.3694 12.1661C12.386 13.4318 11.3941 14.6888 10.4278 15.963C10.2311 16.2281 10.1456 16.2024 9.94888 15.9715C9.16215 15.048 8.34977 14.133 7.55449 13.218C7.25519 12.8759 6.89603 12.6878 6.4428 12.7818C5.60477 12.9614 5.29692 13.9192 5.86986 14.5947C6.78486 15.6637 7.71696 16.7241 8.65762 17.7759C8.81155 17.9469 8.81155 18.0495 8.66617 18.2291C7.72552 19.4177 6.81051 20.6149 5.87841 21.8036C5.63897 22.1029 5.50215 22.4278 5.59621 22.8127C5.69883 23.2488 5.98103 23.5224 6.41715 23.625C6.91313 23.7448 7.28084 23.5481 7.58014 23.1633C8.40963 22.0943 9.24767 21.034 10.0686 19.9565C10.2653 19.6914 10.3679 19.7085 10.5731 19.9479C11.5052 21.034 12.4544 22.1114 13.3951 23.1889C13.703 23.5395 14.0621 23.7448 14.5324 23.6336C15.379 23.4455 15.6612 22.4792 15.0626 21.7865C14.0023 20.5636 12.9419 19.3493 11.873 18.1436C11.7105 17.964 11.7019 17.8614 11.8558 17.6647C12.9333 16.2965 13.9937 14.9197 15.0626 13.5515C15.2337 13.3206 15.379 13.0726 15.379 12.7049Z" fill="#2E7D32"/>
<path id="Vector_2" d="M19.7656 30.2267C19.7656 28.8414 19.7656 27.4561 19.7485 26.0622C19.7485 25.8228 19.8853 25.8484 20.0307 25.8484C21.0227 25.8484 22.0061 25.857 22.998 25.8484C23.8275 25.8398 24.3492 25.0617 24.0242 24.3348C23.819 23.8816 23.4513 23.6763 22.9638 23.6763C21.9975 23.6763 21.0312 23.6678 20.0649 23.6849C19.7998 23.6934 19.7399 23.6079 19.7485 23.3599C19.7656 22.8725 19.7742 22.3851 19.7485 21.8976C19.7314 21.5812 19.7998 21.4701 20.1419 21.4786C21.0996 21.5043 22.0488 21.4957 23.0066 21.4872C23.8617 21.4701 24.3748 20.632 23.99 19.9052C23.7677 19.4947 23.4085 19.3151 22.9553 19.3151C21.989 19.3151 21.0227 19.3066 20.0563 19.3237C19.8169 19.3237 19.7485 19.2724 19.757 19.0244C19.7742 18.4771 19.7742 17.9298 19.757 17.3911C19.7485 17.1773 19.8169 17.126 20.0221 17.126C21.0227 17.1345 22.0232 17.1345 23.0237 17.126C23.5026 17.126 23.8532 16.8865 24.0413 16.4504C24.2209 16.0228 24.1268 15.6209 23.8104 15.2874C23.5795 15.0394 23.2802 14.9539 22.9467 14.9539C22.0061 14.9539 21.0569 14.9454 20.1162 14.9625C19.8511 14.971 19.7399 14.9197 19.757 14.6204C19.7827 14.1073 19.7742 13.5942 19.757 13.0897C19.7485 12.8417 19.7998 12.7562 20.0735 12.7647C21.0141 12.7818 21.9633 12.7733 22.904 12.7733C23.6308 12.7733 24.1268 12.3286 24.1268 11.6873C24.1268 11.0459 23.6308 10.6012 22.904 10.5927C21.9462 10.5927 20.997 10.5927 20.0392 10.5927C19.8939 10.5927 19.757 10.6183 19.757 10.3789C19.7742 8.99357 19.7656 7.60824 19.7742 6.21436C24.4261 6.21436 29.0781 6.22291 33.7301 6.21436C34.3116 6.21436 34.7562 6.37683 34.9957 6.94123C35.0128 6.98398 35.0812 7.00964 35.1239 7.04384C35.1239 14.5092 35.1239 21.9661 35.1239 29.4314C35.0897 29.4571 35.0299 29.4656 35.0128 29.4999C34.7562 30.107 34.2773 30.2524 33.6616 30.2524C29.0182 30.2182 24.3919 30.2267 19.7656 30.2267ZM28.488 12.7476C28.8472 12.7476 29.2149 12.7562 29.5741 12.7476C30.1983 12.7305 30.6601 12.2602 30.6687 11.6702C30.6772 11.0801 30.2154 10.5927 29.5997 10.5756C28.8643 10.5585 28.1289 10.5585 27.3849 10.5756C26.7692 10.5927 26.3074 11.0716 26.3074 11.6702C26.316 12.2602 26.7778 12.7305 27.3935 12.7476C27.7612 12.7562 28.1289 12.7476 28.488 12.7476ZM28.4709 17.1174C28.8301 17.1174 29.1978 17.126 29.557 17.1174C30.1983 17.1003 30.6687 16.63 30.6687 16.0228C30.6687 15.4328 30.2069 14.9539 29.5826 14.9453C28.8558 14.9282 28.1289 14.9282 27.402 14.9453C26.7778 14.9539 26.316 15.4242 26.3074 16.0228C26.2989 16.63 26.7778 17.1003 27.4106 17.1174C27.7697 17.126 28.1203 17.1174 28.4709 17.1174ZM28.5222 19.3066C28.1631 19.3066 27.7954 19.298 27.4362 19.3066C26.7863 19.3237 26.316 19.7854 26.316 20.3926C26.316 20.9998 26.7863 21.4701 27.4277 21.4872C28.146 21.4957 28.8558 21.4957 29.5741 21.4872C30.2154 21.4786 30.6858 20.9998 30.6772 20.3926C30.6687 19.8026 30.2069 19.3408 29.5826 19.3151C29.2235 19.298 28.8729 19.3066 28.5222 19.3066ZM28.4624 25.8484C28.8386 25.8484 29.2149 25.857 29.5826 25.8484C30.1983 25.8313 30.6687 25.3524 30.6687 24.7624C30.6687 24.1723 30.2069 23.6934 29.5826 23.6763C28.8558 23.6592 28.1289 23.6592 27.402 23.6763C26.7607 23.6849 26.2903 24.1723 26.2989 24.7795C26.3074 25.3695 26.7778 25.8313 27.3935 25.8484C27.7612 25.857 28.1118 25.857 28.4624 25.8484Z" fill="#EBEEF0"/>
<path id="Vector_3" d="M15.3797 12.7049C15.3797 13.0726 15.2343 13.3206 15.0462 13.56C13.9773 14.9283 12.9169 16.3136 11.8394 17.6733C11.6855 17.87 11.6941 17.9726 11.8565 18.1522C12.9255 19.3579 13.9944 20.5722 15.0462 21.7951C15.6448 22.4877 15.3712 23.454 14.516 23.6422C14.0457 23.7448 13.678 23.5481 13.3787 23.1975C12.438 22.12 11.4888 21.0425 10.5567 19.9565C10.3515 19.7171 10.2574 19.7 10.0522 19.9651C9.2398 21.0425 8.40176 22.1115 7.56372 23.1718C7.27297 23.5481 6.89671 23.7533 6.40073 23.6336C5.9646 23.531 5.68241 23.2573 5.57979 22.8212C5.48572 22.4364 5.6311 22.1115 5.86199 21.8122C6.79409 20.6235 7.71764 19.4263 8.64975 18.2377C8.78657 18.0581 8.79512 17.964 8.6412 17.7844C7.70054 16.7326 6.77699 15.6722 5.85344 14.6033C5.27194 13.9278 5.57979 12.97 6.42638 12.7904C6.88816 12.6878 7.24732 12.8845 7.53806 13.2265C8.33335 14.1415 9.14573 15.048 9.93246 15.9801C10.1291 16.211 10.2147 16.2366 10.4113 15.9715C11.3776 14.6974 12.3696 13.4403 13.353 12.1747C13.6438 11.807 14.0115 11.6103 14.4818 11.7044C14.935 11.7985 15.2172 12.0892 15.337 12.5339C15.3712 12.5937 15.3797 12.6793 15.3797 12.7049Z" fill="#FEFEFE"/>
<path id="Vector_4" d="M28.4886 12.7476C28.1294 12.7476 27.7617 12.7562 27.4026 12.7476C26.7783 12.7305 26.3165 12.2602 26.3165 11.6702C26.308 11.0801 26.7697 10.5927 27.394 10.5756C28.1294 10.5585 28.8648 10.5585 29.6088 10.5756C30.2245 10.5927 30.6863 11.0801 30.6777 11.6702C30.6692 12.2602 30.2074 12.7305 29.5832 12.7476C29.2155 12.7562 28.8477 12.7476 28.4886 12.7476Z" fill="#2E7D32"/>
<path id="Vector_5" d="M28.4715 17.1174C28.1209 17.1174 27.7703 17.1259 27.4197 17.1174C26.7783 17.1003 26.308 16.63 26.3165 16.0228C26.3251 15.4328 26.7868 14.9624 27.4111 14.9453C28.138 14.9282 28.8648 14.9282 29.5917 14.9453C30.216 14.9624 30.6777 15.4328 30.6777 16.0228C30.6777 16.63 30.2074 17.1003 29.5661 17.1174C29.1983 17.1259 28.8306 17.1174 28.4715 17.1174Z" fill="#2E7D32"/>
<path id="Vector_6" d="M28.5234 19.3065C28.874 19.3065 29.2246 19.298 29.5752 19.3065C30.1995 19.3236 30.6613 19.7854 30.6698 20.384C30.6784 20.9912 30.208 21.47 29.5667 21.4786C28.8484 21.4871 28.1386 21.4871 27.4203 21.4786C26.7789 21.47 26.3086 20.9912 26.3086 20.384C26.3086 19.7769 26.7789 19.3151 27.4288 19.298C27.7965 19.298 28.1557 19.3065 28.5234 19.3065Z" fill="#2E7D32"/>
<path id="Vector_7" d="M28.4629 25.857C28.1123 25.857 27.7617 25.8656 27.4111 25.857C26.7868 25.8399 26.3251 25.3781 26.3165 24.7881C26.308 24.1809 26.7783 23.6935 27.4197 23.6849C28.1465 23.6678 28.8734 23.6678 29.6003 23.6849C30.2245 23.702 30.6863 24.1809 30.6863 24.771C30.6863 25.361 30.2245 25.8399 29.6003 25.857C29.2154 25.8656 28.8392 25.8485 28.4629 25.857Z" fill="#2E7D32"/>
</g>
</g>
</g>
</svg>
