<svg width="12" height="12" viewBox="0 0 12 12" fill="none" xmlns="http://www.w3.org/2000/svg">
    <g clip-path="url(#clip0_915_10653)">
        <path d="M10.6239 10.3573C10.8795 10.3573 11.1351 10.3607 11.3907 10.3573C11.4691 10.3573 11.5543 10.347 11.6293 10.3232C11.8781 10.2448 12.0315 9.98919 11.9906 9.73358C11.9463 9.45752 11.7315 9.27008 11.4521 9.26667C10.9204 9.26326 10.3887 9.26326 9.85367 9.26667C9.75824 9.26667 9.70712 9.24622 9.66622 9.15079C9.33904 8.39419 8.48019 8.00566 7.69292 8.25105C6.89542 8.49984 6.40806 9.30416 6.56483 10.1153C6.70115 10.814 7.28054 11.3558 7.9792 11.4342C8.70513 11.516 9.38335 11.1275 9.67304 10.4629C9.70712 10.3845 9.74461 10.3573 9.82981 10.3573C10.0956 10.3607 10.3581 10.3573 10.6239 10.3573ZM1.34699 5.45639C1.08457 5.45639 0.818735 5.45639 0.55631 5.45639C0.413169 5.45639 0.287068 5.50069 0.181417 5.59271C0.0178267 5.73926 -0.0401114 5.96761 0.028051 6.1755C0.0996216 6.3868 0.290476 6.53676 0.518821 6.53676C1.06071 6.54358 1.5992 6.54358 2.14109 6.53676C2.24333 6.53676 2.28764 6.56743 2.32853 6.65945C2.66935 7.42969 3.53842 7.8114 4.33933 7.54557C5.13683 7.28314 5.60033 6.44815 5.41288 5.6302C5.2527 4.94176 4.67673 4.43736 3.96443 4.3692C3.2794 4.30444 2.608 4.69978 2.32853 5.3371C2.28764 5.43594 2.23651 5.45979 2.14109 5.45639C1.87525 5.45298 1.61283 5.45639 1.34699 5.45639ZM10.3717 0.558915C9.47196 0.54869 8.73921 1.27121 8.72899 2.17777C8.71876 3.07411 9.44469 3.81367 10.3478 3.8239C11.2476 3.83412 11.9974 3.09797 12.0008 2.19481C12.0042 1.29507 11.2783 0.569139 10.3717 0.558915ZM3.81107 2.7333C4.64947 2.7333 5.48786 2.7333 6.32626 2.7333C6.58528 2.7333 6.8443 2.7367 7.10672 2.72989C7.37596 2.72307 7.59408 2.52199 7.63157 2.25957C7.66565 2.01077 7.5191 1.75857 7.27372 1.67678C7.19533 1.64951 7.10672 1.63929 7.02493 1.63929C4.88803 1.63588 2.75114 1.63929 0.614248 1.63929C0.549494 1.63929 0.484739 1.6427 0.423393 1.65633C0.208681 1.71427 0.0689485 1.84718 0.0178266 2.0619C-0.0673764 2.41634 0.188233 2.7333 0.566534 2.7333C1.65032 2.7333 2.73069 2.7333 3.81107 2.7333ZM2.72728 10.3573C2.86361 10.3573 2.99993 10.3573 3.13626 10.3573C3.71564 10.3573 4.29502 10.3607 4.8744 10.3573C5.26293 10.3539 5.52194 10.0403 5.43674 9.67905C5.3788 9.42685 5.15727 9.26667 4.86418 9.26667C3.47707 9.26667 2.08656 9.26667 0.699451 9.26667C0.641513 9.26667 0.580167 9.26326 0.522229 9.26667C0.188233 9.28371 -0.0469277 9.58362 0.0110104 9.90739C0.0621322 10.1835 0.28366 10.3539 0.593799 10.3539C1.3061 10.3573 2.01839 10.3573 2.72728 10.3573ZM9.26066 6.54358C9.75142 6.54358 10.2388 6.54358 10.7296 6.54358C10.9818 6.54358 11.234 6.55039 11.4828 6.54017C11.8099 6.52654 12.0451 6.22662 11.9837 5.90626C11.9326 5.62679 11.7179 5.45979 11.4044 5.45979C9.98318 5.45979 8.55858 5.45979 7.13739 5.45979C7.10331 5.45979 7.06923 5.45979 7.03515 5.4632C6.81021 5.48024 6.61254 5.64724 6.56142 5.86536C6.47281 6.21981 6.7216 6.54358 7.09991 6.54358C7.82243 6.54358 8.54154 6.54017 9.26066 6.54358Z" fill="white"/>
        <path d="M10.624 10.3573C10.3616 10.3573 10.0957 10.3607 9.83329 10.3539C9.74809 10.3505 9.7106 10.3811 9.67652 10.4595C9.39024 11.1241 8.70861 11.5126 7.98268 11.4308C7.28743 11.3524 6.70464 10.8106 6.56831 10.1119C6.41154 9.30075 6.8989 8.49984 7.6964 8.24764C8.48027 8.00226 9.33912 8.39078 9.6697 9.14739C9.71401 9.24622 9.76172 9.26667 9.85715 9.26326C10.3888 9.25986 10.9205 9.25986 11.4556 9.26326C11.735 9.26667 11.9497 9.45412 11.994 9.73018C12.0349 9.98238 11.8816 10.238 11.6328 10.3198C11.5578 10.3436 11.4726 10.3505 11.3942 10.3539C11.1352 10.3607 10.8796 10.3573 10.624 10.3573Z" fill="white"/>
        <path d="M1.3466 5.45638C1.60903 5.45638 1.87486 5.45297 2.13729 5.45979C2.23271 5.4632 2.28384 5.43934 2.32473 5.3405C2.60079 4.69978 3.2756 4.30443 3.96063 4.3726C4.67293 4.44076 5.25231 4.94175 5.40908 5.6336C5.59994 6.45496 5.13303 7.28654 4.33553 7.54897C3.53462 7.8148 2.66214 7.43309 2.32473 6.66286C2.28384 6.57084 2.23953 6.54016 2.13729 6.54016C1.5954 6.54357 1.05691 6.54357 0.515021 6.54016C0.286676 6.53676 0.0958215 6.39021 0.0242509 6.1789C-0.0473197 5.97101 0.0106184 5.74266 0.177616 5.59611C0.283268 5.50069 0.409369 5.45638 0.55251 5.45979C0.821752 5.45979 1.08418 5.45638 1.3466 5.45638Z" fill="white"/>
        <path d="M10.3713 0.558915C11.2779 0.569139 12.0038 1.29507 12.0004 2.19481C11.997 3.09797 11.2506 3.83412 10.3475 3.8239C9.44774 3.81367 8.7184 3.07411 8.72862 2.17777C8.73885 1.27121 9.46818 0.54869 10.3713 0.558915Z" fill="white"/>
        <path d="M3.81065 2.73331C2.73027 2.73331 1.64649 2.73331 0.566114 2.73331C0.187812 2.73331 -0.0677971 2.41635 0.017406 2.06191C0.0685278 1.8472 0.208261 1.71428 0.419564 1.66316C0.480911 1.64953 0.545665 1.64612 0.610419 1.64612C2.74731 1.64612 4.88421 1.64612 7.0211 1.64612C7.1063 1.64612 7.1915 1.65634 7.26989 1.68361C7.51187 1.7654 7.66183 2.0142 7.62774 2.2664C7.59026 2.52882 7.37214 2.7299 7.10289 2.73672C6.84388 2.74353 6.58486 2.74013 6.32243 2.74013C5.49085 2.73331 4.64904 2.73331 3.81065 2.73331Z" fill="white"/>
        <path d="M2.72689 10.3573C2.0146 10.3573 1.30571 10.3573 0.593408 10.3573C0.283268 10.3573 0.0617405 10.1869 0.0106187 9.9108C-0.0507275 9.58702 0.187841 9.2837 0.521837 9.27007C0.579775 9.26666 0.641121 9.27007 0.699059 9.27007C2.08617 9.27007 3.47668 9.27007 4.86379 9.27007C5.15688 9.27007 5.375 9.43025 5.43635 9.68245C5.52155 10.0403 5.26254 10.3573 4.87401 10.3607C4.29463 10.3641 3.71525 10.3607 3.13587 10.3607C2.99954 10.3573 2.86322 10.3573 2.72689 10.3573Z" fill="white"/>
        <path d="M9.26016 6.54359C8.54104 6.54359 7.82193 6.547 7.09941 6.54359C6.72111 6.54018 6.47231 6.21982 6.56092 5.86537C6.61545 5.64725 6.81313 5.48366 7.03465 5.46322C7.06873 5.45981 7.10282 5.45981 7.1369 5.45981C8.55808 5.45981 9.98268 5.45981 11.4039 5.45981C11.7174 5.45981 11.9321 5.62681 11.9832 5.90627C12.0412 6.22664 11.8094 6.52655 11.4823 6.54018C11.2301 6.55041 10.9813 6.54359 10.7291 6.54359C10.2417 6.54359 9.75093 6.54359 9.26016 6.54359Z" fill="white"/>
    </g>
    <defs>
        <clipPath id="clip0_915_10653">
            <rect width="12" height="10.8821" fill="white" transform="translate(0 0.558929)"/>
        </clipPath>
    </defs>
</svg>
