<svg width="16" height="17" viewBox="0 0 16 17" fill="none" xmlns="http://www.w3.org/2000/svg">
<g id="Icon_Ok">
<path id="Vector" fill-rule="evenodd" clip-rule="evenodd" d="M4.35844 5.26291C4.35844 3.33907 6.01604 1.78003 8.05956 1.78003C10.1037 1.78003 11.7607 3.33907 11.7607 5.26291C11.7607 7.18611 10.1031 8.74515 8.05956 8.74515C6.0154 8.74515 4.35844 7.18611 4.35844 5.26291ZM6.52996 5.26291C6.52996 6.05779 7.21476 6.70291 8.05956 6.70291C8.90436 6.70291 9.58916 6.05779 9.58916 5.26291C9.58916 4.46739 8.90436 3.82291 8.05956 3.82291C7.21476 3.82291 6.52996 4.46739 6.52996 5.26291ZM11.7831 10.5378C11.7364 10.573 10.8487 11.2328 9.36708 11.517L11.6032 13.6034C11.9962 13.9727 11.9968 14.5724 11.6045 14.9423C11.4105 15.1208 11.1566 15.2199 10.893 15.22C10.6293 15.2201 10.3753 15.1212 10.1812 14.9429L8.01028 12.9538L6.0378 14.9301C5.84068 15.1234 5.577 15.22 5.31332 15.22C5.05596 15.2214 4.80731 15.1269 4.61572 14.9551C4.52112 14.8718 4.44488 14.7698 4.39185 14.6555C4.33881 14.5412 4.31015 14.4171 4.30769 14.2911C4.30522 14.1651 4.329 14.04 4.37751 13.9237C4.42602 13.8074 4.49821 13.7024 4.58948 13.6156L6.71236 11.5285C5.18916 11.2508 4.26436 10.5736 4.21636 10.5378C3.78308 10.2101 3.71332 9.61427 4.06148 9.20659C4.409 8.79827 5.04196 8.73299 5.47588 9.05939C5.48484 9.06707 6.45188 9.75059 8.01028 9.75123C9.56804 9.75059 10.5152 9.06643 10.5242 9.06003C10.9581 8.73299 11.5911 8.79827 11.9386 9.20659C12.2868 9.61427 12.217 10.2101 11.7831 10.5378Z" fill="black"/>
</g>
</svg>
