<svg width="16" height="17" viewBox="0 0 16 17" fill="none" xmlns="http://www.w3.org/2000/svg">
<g id="Icon_Vk">
<path id="Vector" d="M8.71488 13.3C3.248 13.3 0.12992 9.69675 0 3.69995H2.73856C2.82816 8.10123 4.84672 9.96555 6.44608 10.3496V3.69995H9.024V7.49515C10.6029 7.33259 12.2618 5.60267 12.8211 3.69995H15.4003C15.1871 4.6917 14.7661 5.62701 14.1651 6.44427C13.5554 7.2735 12.7816 7.96843 11.8918 8.48587C12.8848 8.95827 13.7674 9.63398 14.4826 10.4692C15.1871 11.292 15.7048 12.2578 16 13.3H13.1616C12.8947 12.3925 12.3619 11.586 11.632 10.9844C10.8875 10.3705 9.98224 9.98347 9.024 9.86955V13.3H8.7136H8.71488Z" fill="black"/>
</g>
</svg>
