<svg width="16" height="17" viewBox="0 0 16 17" fill="none" xmlns="http://www.w3.org/2000/svg">
<g id="Icon_Tg">
<path id="Vector" fill-rule="evenodd" clip-rule="evenodd" d="M1.01158 8.01927C4.96294 6.39367 7.59782 5.32167 8.91622 4.80391C12.6807 3.32551 13.4628 3.06823 13.9722 3.05991C14.0842 3.05799 14.3351 3.08423 14.497 3.20903C14.6346 3.31399 14.6724 3.45607 14.6903 3.55527C14.7089 3.65511 14.7313 3.88167 14.7133 4.05959C14.5092 6.08327 13.6266 10.9953 13.1773 13.2621C12.9879 14.2209 12.6135 14.5421 12.2513 14.5741C11.4641 14.6426 10.8663 14.0833 10.1041 13.6109C8.9111 12.8724 8.23718 12.4129 7.07942 11.6922C5.74118 10.8596 6.60838 10.402 7.37126 9.65383C7.57094 9.45799 11.0385 6.47943 11.1057 6.20871C11.114 6.17479 11.1223 6.04871 11.0429 5.98215C10.9636 5.91559 10.8465 5.93863 10.762 5.95655C10.6423 5.98215 8.73702 7.17191 5.04486 9.52519C4.50406 9.87591 4.01446 10.0468 3.57478 10.0378C3.09094 10.0282 2.16038 9.77991 1.4679 9.56743C0.619262 9.30695 -0.0552978 9.16871 0.00358216 8.72647C0.0336622 8.49607 0.370302 8.25991 1.01158 8.01927Z" fill="black"/>
</g>
</svg>
