<svg width="24" height="24" viewBox="0 0 24 24" fill="none" xmlns="http://www.w3.org/2000/svg">
<circle cx="12" cy="12" r="12" fill="#5A60F8"/>
<path d="M10.1992 8.47498C9.5779 8.47498 9.07422 8.97866 9.07422 9.59998V9.60688C9.07422 10.2282 9.5779 10.7319 10.1992 10.7319H10.2061C10.8274 10.7319 11.3311 10.2282 11.3311 9.60688V9.59998C11.3311 8.97866 10.8274 8.47498 10.2061 8.47498H10.1992Z" fill="white"/>
<path fill-rule="evenodd" clip-rule="evenodd" d="M16.2426 6.7245C13.8995 4.42517 10.1005 4.42517 7.75736 6.7245C5.41421 9.02384 5.41421 12.7518 7.75736 15.0512L11.6269 18.8483C11.7258 18.9454 11.8601 19 12 19C12.1399 19 12.2742 18.9454 12.3731 18.8483L16.2426 15.0512C18.5858 12.7518 18.5858 9.02384 16.2426 6.7245ZM8.50359 7.45678C10.4346 5.56187 13.5654 5.56187 15.4964 7.45678C17.4274 9.3517 17.4274 12.424 15.4964 14.3189L12 17.7499L8.50359 14.3189C6.57257 12.424 6.57257 9.3517 8.50359 7.45678Z" fill="white"/>
</svg>
