<svg width="30" height="30" viewBox="0 0 30 30" fill="none" xmlns="http://www.w3.org/2000/svg">
<circle cx="15" cy="15" r="15" fill="#5A60F8"/>
<path d="M22.2342 11.1127C22.2342 13.7031 22.2342 16.2969 22.2342 18.8873C22.1925 19.0195 22.1681 19.1586 22.109 19.2803C21.8587 19.7775 21.4414 20 20.892 20C17.0395 20 13.1869 20 9.33781 20C9.30651 20 9.27174 20 9.24045 20C8.82668 19.9826 8.4755 19.8296 8.24601 19.4819C8.12779 19.3081 8.07564 19.089 7.99566 18.8908C7.99219 16.2935 7.99219 13.7031 7.99219 11.1127C8.03391 10.9805 8.05825 10.8414 8.12084 10.7197C8.36771 10.2191 8.78843 10 9.33433 10C13.1869 10 17.0395 10 20.892 10C20.9233 10 20.9581 10 20.9894 10C21.3893 10.0174 21.7231 10.1739 21.9734 10.4903C22.116 10.6745 22.182 10.8901 22.2342 11.1127ZM9.43516 10.8414C9.47341 10.8797 9.49427 10.9075 9.51861 10.9318C11.0729 12.4757 12.6271 14.0195 14.1813 15.5598C14.7411 16.1127 15.4852 16.1092 16.045 15.5529C17.5958 14.0125 19.1466 12.4722 20.6973 10.9318C20.7252 10.904 20.746 10.8762 20.7773 10.838C16.9943 10.8414 13.2252 10.8414 9.43516 10.8414ZM20.7008 19.1551C19.5569 17.9903 18.3816 16.7942 17.1925 15.5841C16.9908 15.7893 16.803 15.9875 16.6083 16.1787C15.9268 16.8394 15.0054 16.9993 14.1779 16.5786C13.9588 16.4673 13.7641 16.3004 13.5798 16.137C13.3851 15.9666 13.2147 15.7719 13.0165 15.5702C11.8239 16.7837 10.6521 17.9798 9.4908 19.1586C13.2252 19.1551 16.9943 19.1551 20.7008 19.1551ZM12.342 15.0035C11.1946 13.8421 10.0193 12.6495 8.83363 11.4465C8.83363 13.8178 8.83363 16.1787 8.83363 18.5709C10.0297 17.3574 11.2015 16.1648 12.342 15.0035ZM21.3893 18.5779C21.3893 16.1752 21.3893 13.8143 21.3893 11.4221C20.1897 12.6391 19.011 13.8352 17.867 14.9965C19.0179 16.1683 20.1932 17.3609 21.3893 18.5779Z" fill="white"/>
</svg>
