<svg width="36" height="36" viewBox="0 0 36 36" fill="none" xmlns="http://www.w3.org/2000/svg">
<g id="pdf 1">
<g id="Group">
<g id="Group_2">
<path id="Vector" d="M3.98972 0.130188C10.4929 0.130188 17.0107 0.130188 23.5139 0.130188L23.5284 0.144647L23.5139 0.159105C23.5139 2.7326 23.4994 5.30609 23.4994 7.87959C23.4994 9.18079 24.4865 10.1639 25.8075 10.1639C28.2462 10.1639 30.6704 10.1639 33.1091 10.1639C33.2397 10.1639 33.3849 10.1928 33.5155 10.0916C33.6317 10.1784 33.5736 10.3085 33.5881 10.4097C33.6026 10.7712 33.5881 11.1326 33.5881 11.494C33.5881 18.7952 33.5881 26.1109 33.5881 33.4121C33.5881 34.8724 32.6446 35.8121 31.1784 35.8121C30.8736 35.8121 30.5687 35.8121 30.2639 35.8121C21.7429 35.8121 13.2365 35.8121 4.71552 35.8121C4.29456 35.8121 3.87359 35.7832 3.49617 35.5808C2.59617 35.1181 2.21875 34.3519 2.21875 33.3543C2.21875 23.1037 2.21875 12.8386 2.21875 2.58802C2.21875 2.38561 2.21875 2.19766 2.2623 1.99525C2.39294 1.27236 2.77036 0.751876 3.42359 0.375973C3.6123 0.289226 3.84456 0.303682 3.98972 0.130188ZM15.6897 19.1133C15.6897 19.9374 15.6897 20.7615 15.6897 21.5856C15.6897 22.1639 15.9365 22.4097 16.5171 22.4242C17.0252 22.4386 17.5478 22.4386 18.0558 22.4242C19.1881 22.3808 20.1752 22.0483 20.7994 21.0362C21.351 20.1543 21.4091 19.1712 21.1768 18.1736C20.8865 16.8868 20.1026 16.0916 18.7962 15.8459C18.0704 15.7013 17.33 15.7591 16.6042 15.7591C15.951 15.7591 15.7042 16.0193 15.7042 16.6699C15.6752 17.4796 15.6897 18.3037 15.6897 19.1133ZM10.0865 19.0989C10.0865 19.7061 10.0865 20.3133 10.0865 20.9061C10.0865 21.2531 10.0429 21.6001 10.13 21.9471C10.2317 22.3374 10.5946 22.5254 10.972 22.3952C11.3204 22.2651 11.3929 21.976 11.4075 21.6724C11.422 21.2675 11.422 20.8627 11.4075 20.4579C11.4075 20.2555 11.4655 20.1977 11.6687 20.1977C12.0171 20.2121 12.3655 20.2121 12.7139 20.1687C13.7591 20.0242 14.4704 19.2579 14.5575 18.1591C14.6446 17.0892 14.0349 16.1784 13.0478 15.8892C12.38 15.6868 11.6833 15.788 11.001 15.7736C10.3187 15.7591 10.101 15.9904 10.101 16.6699C10.0865 17.4651 10.0865 18.2748 10.0865 19.0989ZM22.4107 19.1133C22.4107 19.6049 22.4107 20.082 22.4107 20.5736C22.4252 21.0073 22.3671 21.4555 22.4397 21.8892C22.5123 22.2507 22.7591 22.4675 23.0929 22.4242C23.4268 22.3952 23.6446 22.1495 23.6591 21.7446C23.6736 21.3398 23.6736 20.935 23.6591 20.5302C23.6591 20.3278 23.7171 20.2699 23.9204 20.2699C24.2542 20.2844 24.6026 20.2844 24.9365 20.2699C25.3284 20.2555 25.5607 19.9953 25.5607 19.6193C25.5607 19.2579 25.3429 19.0266 24.951 19.0121C24.6171 18.9977 24.2687 18.9977 23.9349 19.0121C23.7462 19.0121 23.6736 18.9543 23.6736 18.7519C23.6881 18.2748 23.6881 17.7977 23.6736 17.3205C23.6591 17.1037 23.7462 17.0459 23.9639 17.0459C24.3413 17.0603 24.7333 17.0603 25.1107 17.0459C25.3865 17.0459 25.6042 16.9591 25.7204 16.6699C25.8946 16.1928 25.6187 15.7736 25.0962 15.7591C24.501 15.7446 23.9058 15.7591 23.3107 15.7591C22.672 15.7591 22.4252 15.9904 22.4107 16.641C22.3962 17.4651 22.4107 18.2892 22.4107 19.1133Z" fill="#D60000"/>
<path id="Vector_2" d="M23.5301 0.173584C23.5882 0.216957 23.6318 0.26033 23.6898 0.303704C26.9269 3.5278 30.1785 6.75189 33.4156 9.96153C33.4592 10.0049 33.4882 10.0483 33.5318 10.0917C33.4156 10.1929 33.2705 10.1639 33.1253 10.1639C30.6866 10.1639 28.2624 10.1639 25.8237 10.1639C24.5027 10.1639 23.5156 9.18081 23.5156 7.87961C23.5156 5.32057 23.5301 2.74708 23.5301 0.173584Z" fill="#8E2419"/>
<path id="Vector_3" d="M15.6903 19.1133C15.6903 18.3036 15.6903 17.494 15.6903 16.6699C15.6903 16.0193 15.9371 15.759 16.5903 15.759C17.3306 15.759 18.0564 15.7012 18.7822 15.8458C20.0887 16.0916 20.8726 16.9012 21.1629 18.1735C21.3951 19.1711 21.3371 20.1398 20.7855 21.0362C20.1613 22.0482 19.1742 22.3807 18.0419 22.4241C17.5338 22.4386 17.0113 22.4386 16.5032 22.4241C15.9226 22.4096 15.6758 22.1639 15.6758 21.5855C15.6758 20.7615 15.6903 19.9374 15.6903 19.1133ZM17.0984 19.0843C17.0984 19.6771 17.1129 20.2699 17.0984 20.8627C17.0984 21.0795 17.1709 21.1518 17.3742 21.1374C17.679 21.1229 17.9838 21.1374 18.2887 21.1229C18.8403 21.0795 19.2758 20.8337 19.5371 20.3422C19.958 19.5325 19.9435 18.694 19.5371 17.8699C19.3484 17.494 19.029 17.2771 18.6226 17.1615C18.2161 17.0313 17.7951 17.0892 17.3742 17.0747C17.1564 17.0602 17.0984 17.147 17.0984 17.3639C17.0984 17.9133 17.0984 18.506 17.0984 19.0843Z" fill="#FEFEFE"/>
<path id="Vector_4" d="M10.0879 19.0989C10.0879 18.2892 10.0879 17.4796 10.0879 16.6555C10.0879 15.976 10.3202 15.7446 10.9879 15.7591C11.6702 15.7736 12.3669 15.6723 13.0347 15.8748C14.0218 16.1639 14.6169 17.0748 14.5444 18.1446C14.4573 19.229 13.746 20.0097 12.7008 20.1543C12.3524 20.1976 12.004 20.1977 11.6556 20.1832C11.4669 20.1832 11.3944 20.241 11.3944 20.4434C11.4089 20.8483 11.4089 21.2531 11.3944 21.6579C11.3798 21.976 11.3073 22.2651 10.9589 22.3808C10.596 22.5109 10.2185 22.323 10.1169 21.9326C10.0298 21.5856 10.0734 21.2386 10.0734 20.8916C10.0879 20.2989 10.0879 19.6916 10.0879 19.0989ZM11.4089 17.9567C11.4089 18.0145 11.4089 18.0723 11.4089 18.1302C11.4089 18.9832 11.4089 18.9832 12.2653 18.9687C12.846 18.9543 13.1944 18.5784 13.1944 17.9711C13.1944 17.3784 12.8605 17.0169 12.2944 17.0025C12.0911 17.0025 11.9024 17.0169 11.6992 17.0025C11.4524 16.9736 11.4089 17.0892 11.4234 17.3061C11.4234 17.5085 11.4089 17.7254 11.4089 17.9567Z" fill="#FEFEFE"/>
<path id="Vector_5" d="M22.4114 19.1133C22.4114 18.2892 22.4114 17.4651 22.4114 16.641C22.4114 16.0049 22.6582 15.7591 23.3114 15.7591C23.9066 15.7591 24.5017 15.7447 25.0969 15.7591C25.6195 15.7736 25.8953 16.1928 25.7211 16.67C25.6195 16.9591 25.3872 17.0459 25.1114 17.0459C24.734 17.0459 24.342 17.0603 23.9646 17.0459C23.7614 17.0459 23.6743 17.0892 23.6743 17.3206C23.6888 17.7977 23.6888 18.2748 23.6743 18.7519C23.6743 18.9543 23.7469 19.0121 23.9356 19.0121C24.2695 18.9977 24.6178 18.9977 24.9517 19.0121C25.3437 19.0266 25.5614 19.2579 25.5614 19.6194C25.5614 19.9953 25.3291 20.2555 24.9372 20.27C24.6033 20.2844 24.2549 20.2844 23.9211 20.27C23.7178 20.2555 23.6598 20.3278 23.6598 20.5302C23.6743 20.935 23.6743 21.3398 23.6598 21.7447C23.6453 22.1495 23.4275 22.3953 23.0937 22.4242C22.7743 22.4531 22.513 22.2507 22.4404 21.8892C22.3678 21.4555 22.4114 21.0073 22.4114 20.5736C22.3969 20.082 22.4114 19.5904 22.4114 19.1133Z" fill="#FEFEFE"/>
<path id="Vector_6" d="M17.0955 19.0844C17.0955 18.5061 17.11 17.9278 17.0955 17.3495C17.0955 17.147 17.1536 17.0603 17.3713 17.0603C17.7923 17.0892 18.2133 17.0314 18.6197 17.1471C19.0117 17.2627 19.3455 17.494 19.5342 17.8555C19.9552 18.6796 19.9552 19.5037 19.5342 20.3278C19.2875 20.8193 18.8375 21.0651 18.2859 21.1085C17.981 21.1374 17.6762 21.1085 17.3713 21.123C17.1536 21.1374 17.081 21.0651 17.0955 20.8483C17.0955 20.2699 17.0955 19.6772 17.0955 19.0844Z" fill="#D60000"/>
<path id="Vector_7" d="M11.4051 17.9567C11.4051 17.7399 11.4197 17.5085 11.4051 17.2917C11.3906 17.0748 11.4487 16.9736 11.6809 16.988C11.8697 17.0025 12.0729 16.988 12.2761 16.988C12.8422 17.0025 13.1761 17.364 13.1761 17.9567C13.1761 18.564 12.8422 18.9254 12.2471 18.9543C11.3906 18.9832 11.3906 18.9832 11.3906 18.1158C11.4051 18.0724 11.4051 18.0146 11.4051 17.9567Z" fill="#D60000"/>
</g>
</g>
</g>
</svg>
