<svg width="24" height="24" viewBox="0 0 24 24" fill="none" xmlns="http://www.w3.org/2000/svg">
<path fill-rule="evenodd" clip-rule="evenodd" d="M11 4.77778C7.56356 4.77778 4.77778 7.56356 4.77778 11C4.77778 14.4364 7.56356 17.2222 11 17.2222C14.4364 17.2222 17.2222 14.4364 17.2222 11C17.2222 7.56356 14.4364 4.77778 11 4.77778ZM3 11C3 6.58172 6.58172 3 11 3C15.4183 3 19 6.58172 19 11C19 15.4183 15.4183 19 11 19C6.58172 19 3 15.4183 3 11Z" fill="black"/>
<path fill-rule="evenodd" clip-rule="evenodd" d="M15.2767 16.2767C15.6457 15.9078 16.244 15.9078 16.613 16.2767L20.7233 20.387C21.0922 20.756 21.0922 21.3543 20.7233 21.7233C20.3543 22.0922 19.756 22.0922 19.387 21.7233L15.2767 17.613C14.9078 17.244 14.9078 16.6457 15.2767 16.2767Z" fill="black"/>
</svg>
