<svg width="18" height="19" viewBox="0 0 18 19" fill="none" xmlns="http://www.w3.org/2000/svg">
<g id="share 1">
<g id="Group">
<g id="Group_2">
<path id="Vector" d="M9.00915 6.30167C9.00915 6.2169 9.00915 6.1471 9.00915 6.07729C9.00915 4.79086 9.01413 3.49945 9.00915 2.21302C9.00915 1.92383 9.0989 1.69447 9.36815 1.5748C9.64239 1.45014 9.87175 1.54488 10.0812 1.73934C12.6241 4.08782 15.167 6.43131 17.705 8.77978C18.064 9.10887 18.064 9.4579 17.71 9.78699C15.1621 12.1404 12.6141 14.4889 10.0712 16.8424C9.86676 17.0319 9.6374 17.1166 9.37313 17.0019C9.0989 16.8823 9.00915 16.6579 9.00915 16.3687C9.01413 15.0823 9.00915 13.7909 9.00915 12.5044C9.00915 12.4396 9.00915 12.3698 9.00915 12.315C8.74987 12.315 8.51053 12.305 8.2712 12.315C7.08948 12.3848 5.92272 12.5493 4.80084 12.9632C3.46953 13.4568 2.47729 14.3344 1.7892 15.5659C1.58477 15.9299 1.3953 16.2989 1.20084 16.6679C1.04128 16.967 0.781999 17.1067 0.502774 17.0368C0.208591 16.9621 0.0390625 16.7327 0.0390625 16.3986C0.0390625 15.0175 0.0789517 13.6363 0.338232 12.2751C0.592525 10.9338 1.06122 9.69225 2.00859 8.67507C2.89114 7.73269 3.99308 7.17923 5.21469 6.8302C6.38145 6.49613 7.57812 6.37147 8.78975 6.32161C8.85956 6.31164 8.92438 6.30665 9.00915 6.30167ZM16.4884 9.28837C14.3892 7.35374 12.31 5.43408 10.2008 3.48449C10.2008 3.60416 10.2008 3.66898 10.2008 3.73879C10.2008 4.77092 10.2008 5.80305 10.2008 6.83519C10.2008 7.25402 9.9615 7.48837 9.53768 7.49834C9.11385 7.50831 8.69003 7.5133 8.2712 7.53823C7.12438 7.60804 5.99751 7.76759 4.91552 8.17646C3.7338 8.62023 2.78643 9.34322 2.17812 10.4751C1.75928 11.2529 1.54987 12.0906 1.42521 12.9582C1.37535 13.3222 1.34045 13.6911 1.30056 14.0551C1.36039 14.0452 1.38034 14.0252 1.40028 14.0003C2.36759 12.7388 3.67397 12.0108 5.18477 11.592C6.60084 11.2031 8.04682 11.0884 9.50278 11.0784C9.97147 11.0734 10.2008 11.3078 10.2008 11.7765C10.2008 12.8036 10.2008 13.8308 10.2008 14.8529C10.2008 14.9177 10.2008 14.9826 10.2008 15.0873C12.315 13.1427 14.3942 11.223 16.4884 9.28837Z" fill="#4F4F4F"/>
</g>
</g>
</g>
</svg>
