<svg width="36" height="36" viewBox="0 0 36 36" fill="none" xmlns="http://www.w3.org/2000/svg">
<g id="word 2" clip-path="url(#clip0_868_7774)">
<g id="Group">
<g id="Group_2">
<path id="Vector" d="M0 31.5656C0 23.025 0 14.4938 0 5.95313C0.16875 5.5125 0.525 5.3625 0.965625 5.25938C2.4375 4.94063 3.9 4.59375 5.3625 4.25625C10.2281 3.13125 15.1031 2.00625 19.9688 0.881251C20.5219 0.750001 20.8875 1.04063 20.8969 1.60313C20.9062 2.18438 20.8969 2.775 20.8969 3.35625C20.8969 3.85313 20.8969 3.85313 21.4125 3.85313C25.9406 3.85313 30.4594 3.85313 34.9875 3.85313C35.6438 3.85313 35.8969 4.10625 35.8969 4.7625C35.8969 13.6031 35.8969 22.4438 35.8969 31.2844C35.8969 31.9406 35.6437 32.1844 34.9781 32.1938C33.8719 32.1938 32.7563 32.1938 31.65 32.1938C28.2281 32.1938 24.7969 32.1938 21.375 32.1938C20.9156 32.1938 20.9062 32.2031 20.8969 32.6625C20.8969 33.225 20.8969 33.7875 20.8969 34.35C20.8969 35.0063 20.5594 35.2687 19.9125 35.1656C17.8781 34.8375 15.8344 34.5281 13.8 34.2094C11.7469 33.8906 9.70313 33.5906 7.65 33.2719C5.55938 32.9531 3.45937 32.625 1.36875 32.2969C0.825 32.2313 0.215625 32.2594 0 31.5656ZM34.4812 18.0375C34.4812 13.9219 34.4813 9.80625 34.4906 5.69063C34.4906 5.4 34.4531 5.24063 34.0969 5.24063C29.8313 5.25 25.5563 5.25 21.2906 5.24063C21.0094 5.24063 20.8969 5.33438 20.8969 5.625C20.9062 6.375 20.8969 7.125 20.8969 7.875C20.8969 8.35313 20.8969 8.35313 21.3938 8.35313C24.8344 8.35313 28.275 8.35313 31.7063 8.35313C31.8844 8.35313 32.0531 8.34375 32.2312 8.3625C32.6156 8.39063 32.8781 8.67188 32.8781 9.04688C32.8781 9.40313 32.625 9.69375 32.2594 9.72188C32.1 9.74063 31.9312 9.73125 31.7719 9.73125C28.3125 9.73125 24.8531 9.73125 21.3844 9.73125C20.9062 9.73125 20.8969 9.74063 20.8969 10.2188C20.8969 10.9219 20.8969 11.625 20.8969 12.3281C20.8969 12.8344 20.8969 12.8344 21.3938 12.8344C24.8625 12.8344 28.3406 12.8344 31.8094 12.8344C31.95 12.8344 32.0906 12.8344 32.2312 12.8438C32.6156 12.8719 32.8781 13.1625 32.8781 13.5375C32.8781 13.8938 32.6156 14.175 32.25 14.2125C32.0906 14.2313 31.9219 14.2219 31.7625 14.2219C28.3125 14.2219 24.8625 14.2219 21.4125 14.2219C20.8969 14.2219 20.8969 14.2219 20.8969 14.7563C20.8969 15.45 20.8969 16.1344 20.8969 16.8281C20.8969 17.3344 20.8969 17.3344 21.3938 17.3344C24.8625 17.3344 28.3406 17.3344 31.8094 17.3344C31.95 17.3344 32.0906 17.3344 32.2312 17.3438C32.5969 17.3719 32.8594 17.6438 32.8781 18C32.8875 18.375 32.6344 18.675 32.25 18.7031C32.0906 18.7219 31.9219 18.7125 31.7625 18.7125C28.3219 18.7125 24.8812 18.7125 21.45 18.7125C20.8969 18.7125 20.8969 18.7125 20.8969 19.2469C20.8969 19.9406 20.8969 20.625 20.8969 21.3188C20.8969 21.825 20.8969 21.825 21.4031 21.825C24.8906 21.825 28.3687 21.825 31.8562 21.825C31.9969 21.825 32.1375 21.8156 32.2781 21.8344C32.6156 21.8719 32.8687 22.1438 32.8875 22.4906C32.8969 22.8563 32.6531 23.1469 32.2875 23.1938C32.1281 23.2125 31.9594 23.2125 31.8 23.2125C28.3313 23.2125 24.8531 23.2125 21.3844 23.2125C20.9156 23.2125 20.9062 23.2219 20.9062 23.6813C20.9062 24.3938 20.9062 25.1063 20.9062 25.8188C20.9062 26.3156 20.9062 26.3156 21.4125 26.3156C24.8812 26.3156 28.3594 26.3156 31.8281 26.3156C31.9594 26.3156 32.0812 26.3156 32.2125 26.3156C32.6063 26.3344 32.8781 26.6063 32.8875 26.9813C32.8969 27.3656 32.625 27.6562 32.2219 27.6844C32.0719 27.6938 31.9219 27.6938 31.7625 27.6938C28.3031 27.6938 24.8438 27.6938 21.375 27.6938C20.9062 27.6938 20.8969 27.7031 20.8969 28.1625C20.8969 28.875 20.8969 29.5875 20.8969 30.3C20.8969 30.7969 20.8969 30.7969 21.4031 30.7969C25.5937 30.7969 29.775 30.7969 33.9656 30.7969C34.4719 30.7969 34.4719 30.7969 34.4719 30.3C34.4813 26.2219 34.4812 22.1344 34.4812 18.0375ZM9.7125 16.4906C9.75938 16.5563 9.7875 16.5844 9.79688 16.6125C10.1344 17.7938 10.4625 18.9656 10.8 20.1469C11.175 21.4688 11.55 22.7906 11.9344 24.1125C12.075 24.5906 12.3281 24.7969 12.7406 24.7969C13.125 24.7969 13.3781 24.5906 13.5094 24.1594C13.9406 22.6594 14.3719 21.1594 14.8031 19.6594C15.3562 17.7188 15.9094 15.7781 16.4625 13.8375C16.5844 13.4063 16.4344 13.0313 16.0875 12.8531C15.6 12.6 15.1125 12.8438 14.9344 13.4344C14.3906 15.3281 13.8562 17.2219 13.3125 19.1156C13.125 19.7625 12.9375 20.4 12.7313 21.1313C11.9906 18.5438 11.2781 16.0594 10.5656 13.575C10.4156 13.0594 10.1438 12.8156 9.73125 12.8156C9.32812 12.8156 9.04687 13.0687 8.89687 13.575C8.35312 15.4875 7.80937 17.4094 7.25625 19.3219C7.09687 19.875 6.9375 20.4281 6.76875 20.9813C6.66562 20.8781 6.6375 20.7844 6.60938 20.6906C5.91563 18.2813 5.23125 15.8719 4.52813 13.4625C4.4625 13.2375 4.30312 12.9938 4.11562 12.8531C3.85312 12.6469 3.54375 12.6938 3.2625 12.8906C2.9625 13.0969 2.87813 13.4344 3.00938 13.9031C3.975 17.2875 4.95 20.6719 5.91563 24.0563C6.05625 24.5344 6.3 24.7313 6.72187 24.7313C7.14375 24.7313 7.3875 24.525 7.52813 24.0469C7.99688 22.4344 8.45625 20.8219 8.91563 19.2094C9.1875 18.3094 9.45 17.4188 9.7125 16.4906Z" fill="#1565C0"/>
</g>
</g>
</g>
<defs>
<clipPath id="clip0_868_7774">
<rect width="36" height="36" fill="white"/>
</clipPath>
</defs>
</svg>
