<svg width="46" height="46" viewBox="0 0 46 46" fill="none" xmlns="http://www.w3.org/2000/svg">
<g clip-path="url(#clip0_2223_16732)">
<path d="M4.50781 15.707H10.3443C10.9127 17.3097 12.4432 18.4609 14.2383 18.4609C16.0334 18.4609 17.5639 17.3097 18.1323 15.707H32.1387V10.0156H46L42.8445 4.50781L46 -1H29.3848V12.9531H18.1323C17.5639 11.3504 16.0334 10.1992 14.2383 10.1992C12.4432 10.1992 10.9127 11.3504 10.3443 12.9531H4.50781C1.4708 12.9531 -1 15.4239 -1 18.4609C-1 21.4979 1.4708 23.9688 4.50781 23.9688H24.1138C24.6822 25.5714 26.2127 26.7227 28.0078 26.7227C29.8029 26.7227 31.3334 25.5714 31.9018 23.9688H33.5156C36.0264 23.9688 38.3047 25.3343 39.5101 27.4655C38.4402 28.2127 37.7383 29.4523 37.7383 30.8535C37.7383 32.2547 38.4402 33.4943 39.5101 34.2416C38.3047 36.3727 36.0264 37.7383 33.5156 37.7383H31.9018C31.3334 36.1356 29.8029 34.9844 28.0078 34.9844C26.2127 34.9844 24.6822 36.1356 24.1138 37.7383H18.3691V40.4922H24.1138C24.6822 42.0949 26.2127 43.2461 28.0078 43.2461C29.8029 43.2461 31.3334 42.0949 31.9018 40.4922H33.5156C37.2714 40.4922 40.6561 38.3091 42.2331 34.9674C44.341 34.7824 46 33.0085 46 30.8535C46 28.6985 44.341 26.9246 42.2331 26.7396C40.6561 23.398 37.2714 21.2148 33.5156 21.2148H31.9018C31.3334 19.6122 29.8029 18.4609 28.0078 18.4609C26.2127 18.4609 24.6822 19.6122 24.1138 21.2148H4.50781C2.98931 21.2148 1.75391 19.9794 1.75391 18.4609C1.75391 16.9424 2.98931 15.707 4.50781 15.707ZM-1 40.4922H18.3691V46H-1V40.4922Z" fill="#2B2A29"/>
<path d="M12.8613 32.2305V26.7227H4.50781V32.2305H-1V37.7383H18.3691V32.2305H12.8613ZM7.26172 29.4766H10.1074V32.2305H7.26172V29.4766Z" fill="#2B2A29"/>
</g>
<defs>
<clipPath id="clip0_2223_16732">
<rect width="47" height="47" fill="white" transform="translate(-1 -1)"/>
</clipPath>
</defs>
</svg>
