<svg width="46" height="46" viewBox="0 0 46 46" fill="none" xmlns="http://www.w3.org/2000/svg">
<g id="Frame" clip-path="url(#clip0_2223_16748)">
<g id="Group">
<path id="Vector" d="M5.18398 40.3668H9.2C8.61602 41.8313 5.77695 41.8313 5.18398 40.3668ZM38.8035 45.0028C35.048 45.0028 31.9844 42.0918 31.7238 38.3993C31.6699 38.4083 14.3301 38.4083 14.2762 38.3993C13.3328 47.4465 0.413281 47.0243 0.0898438 37.8961C0.0898438 34.1407 3.00078 31.077 6.69336 30.8165C6.68437 30.7625 6.68437 15.2286 6.69336 15.1747C-2.35391 14.2313 -1.92266 1.32075 7.19648 0.997314C10.952 0.997314 14.0156 3.90825 14.2762 7.60083C14.3301 7.59185 31.6699 7.59185 31.7238 7.60083C32.6672 -1.44644 45.5867 -1.02417 45.9102 8.10395C45.9102 11.8594 42.9992 14.9231 39.3066 15.1836C39.3156 15.2375 39.3156 30.7715 39.3066 30.8254C48.3539 31.7688 47.9227 44.6793 38.8035 45.0028ZM40.1063 7.12466C40.1063 7.7895 41.1305 7.7895 41.1305 7.12466C41.1484 6.42388 42.1816 6.42388 42.1906 7.12466C42.1906 7.7895 43.2148 7.7895 43.2148 7.12466C43.152 5.08521 40.1602 5.08521 40.1063 7.12466ZM35.668 11.4012C35.668 12.0661 36.6922 12.0661 36.6922 11.4012C36.6922 11.0688 37.5367 10.5657 38.8125 10.5657C40.0793 10.5657 40.9328 11.0688 40.9328 11.4012C40.9328 12.0661 41.948 12.0661 41.957 11.4012C41.9121 8.94849 35.6949 8.94849 35.668 11.4012ZM34.4012 7.12466C34.4012 7.7895 35.4164 7.7895 35.4254 7.12466C35.4344 6.42388 36.4676 6.42388 36.4855 7.12466C36.4855 7.7895 37.5008 7.7895 37.5098 7.12466C37.4469 5.08521 34.4551 5.08521 34.4012 7.12466ZM8.49922 6.08247C8.55312 8.13091 11.5539 8.13091 11.5988 6.08247C11.5898 5.40864 10.5926 5.40864 10.5746 6.08247C10.5746 6.77427 9.51445 6.77427 9.51445 6.08247C9.50547 5.41763 8.5082 5.41763 8.49922 6.08247ZM5.89375 6.08247C5.88477 5.40864 4.87852 5.40864 4.86953 6.08247C4.86953 6.37895 4.62695 6.61255 4.33945 6.61255C4.04297 6.61255 3.80938 6.37895 3.80938 6.08247C3.80039 5.41763 2.79414 5.41763 2.78516 6.08247C2.84805 8.13091 5.83984 8.13091 5.89375 6.08247ZM10.332 10.0625C10.323 9.39771 9.3168 9.39771 9.30781 10.0625C9.30781 10.395 8.46328 10.8981 7.1875 10.8981C5.91172 10.8981 5.06719 10.395 5.06719 10.0625C5.06719 9.39771 4.05195 9.39771 4.04297 10.0625C4.08789 12.5063 10.3051 12.5063 10.332 10.0625ZM6.06445 36.0633C6.01055 34.0868 3.12656 34.0868 3.07266 36.0633C3.12656 38.0309 6.01055 38.0309 6.06445 36.0633ZM10.332 39.8547C10.332 39.5762 10.0984 39.3426 9.81992 39.3426H4.56406C4.28555 39.3426 4.05195 39.5762 4.05195 39.8547C4.17773 43.3497 10.2152 43.3497 10.332 39.8547ZM9.81992 34.5629C7.85234 34.6168 7.84336 37.5008 9.81992 37.5547C11.7965 37.5008 11.7875 34.6168 9.81992 34.5629ZM38.3004 30.8165C38.2914 30.7625 38.2914 15.2286 38.3004 15.1747C34.7785 14.9231 31.9754 12.12 31.7238 8.5981C31.6699 8.60708 14.3301 8.60708 14.2762 8.5981C14.0246 12.12 11.2215 14.9231 7.69961 15.1747C7.70859 15.2286 7.70859 30.7625 7.69961 30.8165C11.2215 31.068 14.0246 33.8711 14.2762 37.393C14.3301 37.384 31.6699 37.384 31.7238 37.393C31.9754 33.8711 34.7785 31.068 38.3004 30.8165ZM34.6797 35.4165L36.6922 36.8C37.2402 37.1774 37.8242 36.3418 37.2762 35.9645L35.2637 34.5809C34.7156 34.2036 34.1406 35.0481 34.6797 35.4165ZM41.9391 41.2024C41.9121 38.7497 35.6949 38.7497 35.668 41.2024C35.668 41.4899 35.9016 41.7145 36.1801 41.7145C36.4676 41.7145 36.6922 41.4899 36.6922 41.2024C36.6922 40.87 37.5367 40.3668 38.8125 40.3668C40.0793 40.3668 40.9328 40.87 40.9328 41.2024C40.9148 41.8672 41.9391 41.8672 41.9391 41.2024ZM42.3434 34.5809L40.3309 35.9645C40.0973 36.1262 40.0434 36.4407 40.2051 36.6743C40.3578 36.9079 40.6902 36.9618 40.9148 36.8L42.9273 35.4165C43.4754 35.0391 42.9004 34.2036 42.3434 34.5809ZM9.81992 35.5872C9.2 35.5872 9.2 36.5395 9.81992 36.5395C10.4488 36.5305 10.4398 35.5872 9.81992 35.5872ZM4.86055 36.4317C5.35469 36.0543 4.7707 35.2997 4.28555 35.686C3.79141 36.0723 4.36641 36.818 4.86055 36.4317ZM23.7367 21.2301L23.3594 21.6075C23.1707 21.8051 22.8293 21.8051 22.6406 21.6075C22.2633 21.1942 21.7961 20.754 21.1941 20.7629C19.7836 20.6551 18.966 22.5239 19.9992 23.4942L23 26.495L26.0008 23.4942C27.4473 21.9489 25.282 19.8106 23.7367 21.2301ZM30.1066 23C29.7293 32.4247 16.2707 32.4247 15.9023 23C15.9023 19.0739 19.0828 15.8934 23.009 15.8934C26.9262 15.8934 30.1066 19.0739 30.1066 23ZM23 20.5293C20.4934 18.1125 16.8996 21.6973 19.2805 24.2219L22.6406 27.5821C22.8383 27.7797 23.1617 27.7797 23.3594 27.5821L26.7195 24.2219C26.7195 24.2219 26.7285 24.2219 26.7285 24.2129C29.1094 21.6973 25.4887 18.1125 23 20.5293Z" fill="#2B2A29"/>
</g>
</g>
<defs>
<clipPath id="clip0_2223_16748">
<rect width="46" height="46" fill="white"/>
</clipPath>
</defs>
</svg>
