<svg width="46" height="46" viewBox="0 0 46 46" fill="none" xmlns="http://www.w3.org/2000/svg">
<g clip-path="url(#clip0_2223_16758)">
<path d="M26.6958 18.0117C25.907 16.7163 24.5322 15.9429 23.018 15.9429C21.805 15.9429 20.6832 16.4335 19.8591 17.3246C19.1231 18.1187 18.7149 19.1619 18.7163 20.2446C18.7163 22.6167 20.6461 24.5464 23.0181 24.5464C25.3901 24.5464 27.3199 22.6166 27.3199 20.2446C27.3199 19.803 27.2535 19.368 27.1225 18.9517C27.0187 18.6223 26.8754 18.3067 26.6958 18.0117ZM24.1109 27.3362H21.9251C19.548 27.3362 17.3638 28.5315 16.0825 30.5337C15.3673 31.6497 14.9876 32.9475 14.9883 34.273V39.0645H31.0478V34.273C31.0485 32.9475 30.6687 31.6497 29.9536 30.5337C28.6722 28.5315 26.488 27.3362 24.1109 27.3362Z" fill="#2B2A29"/>
<path d="M14.6969 19.5031C18.0309 18.1234 19.6152 14.3023 18.2356 10.9683C16.8559 7.63429 13.0348 6.04996 9.7008 7.42958C6.3668 8.80921 4.78247 12.6304 6.16209 15.9643C7.54172 19.2983 11.3629 20.8827 14.6969 19.5031Z" fill="#2B2A29"/>
<path d="M12.2811 34.273C12.2811 32.4271 12.807 30.6296 13.8021 29.0751C14.8876 27.379 16.4396 26.1005 18.2339 25.3597C17.098 24.2969 16.3162 22.8616 16.0831 21.2508C15.0573 22.1393 13.8308 22.7076 12.1932 22.7076C10.1128 22.7076 8.19107 22.0163 6.64502 20.8516C4.65475 21.6972 2.93372 23.1292 1.7241 25.0193C0.597295 26.7778 -0.00109557 28.8228 1.50582e-06 30.9114V36.2371H12.2811V34.273Z" fill="#2B2A29"/>
<path d="M38.4215 18.0904C40.9728 15.539 40.9728 11.4024 38.4215 8.85105C35.8701 6.29969 31.7335 6.29969 29.1822 8.85105C26.6308 11.4024 26.6308 15.539 29.1822 18.0904C31.7335 20.6417 35.8701 20.6417 38.4215 18.0904Z" fill="#2B2A29"/>
<path d="M44.2771 25.0193C43.0675 23.1293 41.3465 21.6973 39.3562 20.8516C37.8101 22.0164 35.8884 22.7077 33.8081 22.7077C32.1786 22.7077 30.9696 22.0953 29.9631 21.163C29.7462 22.8094 28.9572 24.2778 27.8008 25.3597C29.5951 26.1005 31.1471 27.3791 32.2326 29.0752C33.2266 30.6265 33.7545 32.4306 33.7535 34.2731V36.2371H46.0012V30.9114C46.0012 28.8191 45.405 26.7817 44.2771 25.0193Z" fill="#2B2A29"/>
</g>
<defs>
<clipPath id="clip0_2223_16758">
<rect width="46" height="46" fill="white"/>
</clipPath>
</defs>
</svg>
