<svg width="46" height="46" viewBox="0 0 46 46" fill="none" xmlns="http://www.w3.org/2000/svg">
<path d="M39.1727 20.914C39.7652 20.8111 40.3198 20.5522 40.7797 20.164C41.1576 19.8499 41.4626 19.4569 41.6734 19.0125C41.8841 18.5681 41.9955 18.083 41.9999 17.591C42.0042 17.099 41.9013 16.612 41.6984 16.164C41.4955 15.7159 41.1975 15.3176 40.8251 14.9969C40.3573 14.6042 39.7942 14.3424 39.1929 14.2378C38.5917 14.1332 37.9735 14.1896 37.4009 14.4012C37.7429 14.9391 37.9255 15.5633 37.9275 16.2011C37.9275 16.3815 37.856 16.5544 37.7287 16.6819C37.6015 16.8094 37.4289 16.8811 37.2489 16.8811C37.0689 16.8811 36.8963 16.8094 36.769 16.6819C36.6418 16.5544 36.5703 16.3815 36.5703 16.2011C36.5703 15.6601 36.3558 15.1412 35.974 14.7587C35.5922 14.3761 35.0744 14.1612 34.5345 14.1612C34.3545 14.1612 34.1819 14.0896 34.0546 13.9621C33.9274 13.8345 33.8559 13.6616 33.8559 13.4813C33.8559 13.3009 33.9274 13.128 34.0546 13.0004C34.1819 12.8729 34.3545 12.8013 34.5345 12.8013C35.1954 12.8013 35.8421 12.9964 36.3932 13.3623C37.0413 13.0127 37.7624 12.8211 38.4982 12.8027C39.234 12.7844 39.9637 12.94 40.6283 13.2569C40.7485 13.0896 40.8543 12.9128 40.9446 12.7278C40.9833 12.6558 41.0179 12.581 41.0484 12.5048C41.2208 12.056 41.3131 11.5814 41.3205 11.1014C41.3197 10.5859 41.2127 10.0761 41.0061 9.60401C40.7996 9.13189 40.498 8.70758 40.1203 8.35766C39.7425 8.00774 39.2967 7.73974 38.8108 7.57044C38.3249 7.40114 37.8093 7.3342 37.2964 7.37379C37.2204 7.37855 37.141 7.39079 37.063 7.40235C36.9849 7.41391 36.9048 7.43295 36.8261 7.44859C37.1038 8.0621 37.2479 8.72781 37.2489 9.40145C37.2489 9.58179 37.1774 9.75474 37.0501 9.88226C36.9229 10.0098 36.7503 10.0814 36.5703 10.0814C36.3903 10.0814 36.2177 10.0098 36.0904 9.88226C35.9632 9.75474 35.8917 9.58179 35.8917 9.40145C35.893 8.745 35.7042 8.10227 35.3482 7.55117C34.9923 7.00008 34.4844 6.56428 33.8862 6.29661C33.288 6.02893 32.6252 5.94088 31.978 6.04313C31.3309 6.14538 30.7272 6.43353 30.2403 6.87266L30.2328 6.87742C29.6591 7.39358 29.2789 8.09083 29.1552 8.8534C29.6041 8.96508 30.0152 9.19463 30.3461 9.51841C30.4109 9.58113 30.4626 9.65616 30.4982 9.73912C30.5338 9.82208 30.5525 9.9113 30.5533 10.0016C30.5541 10.0919 30.5369 10.1814 30.5028 10.265C30.4686 10.3485 30.4183 10.4245 30.3545 10.4883C30.2908 10.5522 30.2151 10.6026 30.1317 10.6368C30.0483 10.671 29.9589 10.6882 29.8688 10.6874C29.7787 10.6867 29.6896 10.6679 29.6069 10.6323C29.5241 10.5966 29.4492 10.5448 29.3866 10.4799C29.1281 10.2325 28.7845 10.0944 28.427 10.0944C28.0696 10.0944 27.7259 10.2325 27.4675 10.4799C27.4049 10.5448 27.33 10.5966 27.2472 10.6323C27.1644 10.6679 27.0754 10.6867 26.9853 10.6874C26.8952 10.6882 26.8058 10.671 26.7224 10.6368C26.639 10.6026 26.5632 10.5522 26.4995 10.4883C26.4358 10.4245 26.3854 10.3485 26.3513 10.265C26.3172 10.1814 26.3 10.0919 26.3008 10.0016C26.3016 9.9113 26.3203 9.82208 26.3559 9.73912C26.3914 9.65616 26.4431 9.58113 26.5079 9.51841C26.86 9.173 27.3022 8.93424 27.7837 8.8296C27.8888 7.96699 28.2287 7.14999 28.7663 6.46808C28.6785 6.41237 28.5879 6.36108 28.4949 6.3144C27.9778 6.0746 27.4087 5.96915 26.8402 6.0078C26.2717 6.04644 25.722 6.22793 25.242 6.53552C24.7619 6.84311 24.3669 7.26689 24.0933 7.76777C23.8198 8.26865 23.6765 8.83049 23.6768 9.40145V37.9601C23.6739 38.2722 23.7442 38.5807 23.8821 38.8606C24.0201 39.1405 24.2217 39.3841 24.4708 39.5716C24.7712 39.8056 25.1313 39.9504 25.5099 39.9893C25.8885 40.0283 26.2704 39.9599 26.6121 39.7919C26.9538 39.6239 27.2414 39.3631 27.4424 39.0392C27.6433 38.7153 27.7493 38.3414 27.7484 37.9601C27.7484 37.8921 27.741 37.8241 27.7349 37.7561C27.2893 37.6217 26.8661 37.4221 26.4788 37.1638C26.3288 37.064 26.2246 36.9086 26.1891 36.7318C26.1535 36.555 26.1895 36.3713 26.2891 36.221C26.3887 36.0708 26.5438 35.9664 26.7203 35.9308C26.8967 35.8951 27.0801 35.9312 27.23 36.031C27.6195 36.2894 28.0586 36.4628 28.5193 36.5416C28.7127 36.577 28.9088 36.5967 29.1056 36.6001C29.9408 36.6019 30.7471 36.2942 31.3696 35.7363C31.992 35.1784 32.3866 34.4096 32.4776 33.5777C32.5685 32.7459 32.3493 31.9097 31.8622 31.23C31.375 30.5503 30.6543 30.0751 29.8385 29.8956C29.2074 30.2778 28.4854 30.4804 27.7484 30.4804C27.5685 30.4804 27.3959 30.4088 27.2686 30.2813C27.1413 30.1537 27.0698 29.9808 27.0698 29.8005C27.0698 29.6201 27.1413 29.4472 27.2686 29.3196C27.3959 29.1921 27.5685 29.1205 27.7484 29.1205C28.4683 29.1205 29.1588 28.8339 29.6678 28.3239C30.1769 27.8138 30.4629 27.122 30.4629 26.4006C30.4629 26.2203 30.5343 26.0473 30.6616 25.9198C30.7889 25.7923 30.9615 25.7207 31.1415 25.7207C31.3214 25.7207 31.494 25.7923 31.6213 25.9198C31.7486 26.0473 31.8201 26.2203 31.8201 26.4006C31.8201 27.2812 31.535 28.1379 31.0057 28.841C31.6331 29.1198 32.1936 29.5302 32.6493 30.0444C33.105 30.5586 33.4454 31.1648 33.6475 31.822C33.7202 31.8261 33.7833 31.8404 33.8579 31.8404C34.7575 31.8393 35.6199 31.4807 36.2559 30.8434C36.892 30.206 37.2498 29.3419 37.2509 28.4405C37.2509 28.4222 37.2462 28.4058 37.2462 28.3875C36.3411 28.2594 35.4928 27.8704 34.8045 27.2679C34.1161 26.6653 33.6175 25.8752 33.3693 24.9938C32.6416 24.898 31.9538 24.6053 31.3796 24.1472C31.31 24.0914 31.252 24.0224 31.209 23.9441C31.166 23.8659 31.1387 23.7799 31.1289 23.6911C31.119 23.6023 31.1267 23.5124 31.1515 23.4265C31.1763 23.3407 31.2177 23.2606 31.2734 23.1908C31.3859 23.0499 31.5497 22.9595 31.7287 22.9396C31.8173 22.9297 31.907 22.9374 31.9927 22.9622C32.0783 22.9871 32.1583 23.0286 32.2279 23.0844C32.79 23.5348 33.5076 23.743 34.2229 23.6633C34.9382 23.5836 35.5927 23.2225 36.0423 22.6594C36.1548 22.5186 36.3185 22.4283 36.4975 22.4084C36.6764 22.3885 36.8559 22.4407 36.9965 22.5534C37.137 22.6661 37.2271 22.8301 37.247 23.0094C37.2668 23.1887 37.2148 23.3686 37.1023 23.5094C36.519 24.2405 35.7016 24.7473 34.7883 24.9441C35.0345 25.5702 35.4619 26.1081 36.0156 26.4888C36.5694 26.8695 37.2241 27.0756 37.8956 27.0806C38.3433 27.0828 38.7871 26.9966 39.2015 26.827C39.616 26.6573 39.993 26.4075 40.3111 26.0917C40.6291 25.776 40.882 25.4006 41.0552 24.9869C41.2284 24.5732 41.3186 24.1294 41.3205 23.6808C41.3205 23.5733 41.3151 23.466 41.3042 23.3591V23.3503C41.2687 22.9954 41.1785 22.6481 41.0369 22.3208C40.9431 22.1457 40.8447 21.9732 40.7417 21.8034C40.3188 22.0221 39.8653 22.1754 39.3967 22.2583C39.2213 22.2833 39.0431 22.2387 38.9001 22.1339C38.7572 22.0291 38.6607 21.8724 38.6315 21.6973C38.6023 21.5223 38.6425 21.3427 38.7436 21.1969C38.8448 21.0512 38.9988 20.9509 39.1727 20.9174V20.914ZM30.4629 16.8811C29.5633 16.8822 28.7009 17.2407 28.0648 17.8781C27.4287 18.5154 27.0709 19.3796 27.0698 20.2809C27.0698 20.4613 26.9983 20.6342 26.8711 20.7617C26.7438 20.8892 26.5712 20.9609 26.3912 20.9609C26.2112 20.9609 26.0386 20.8892 25.9114 20.7617C25.7841 20.6342 25.7126 20.4613 25.7126 20.2809C25.7142 19.019 26.2152 17.8093 27.1057 16.917C27.9962 16.0248 29.2035 15.5228 30.4629 15.5212C30.6428 15.5212 30.8154 15.5928 30.9427 15.7203C31.07 15.8478 31.1415 16.0208 31.1415 16.2011C31.1415 16.3815 31.07 16.5544 30.9427 16.6819C30.8154 16.8094 30.6428 16.8811 30.4629 16.8811ZM22.3196 37.9601V9.6986L21.7279 9.09751C20.7721 8.11757 19.6305 7.33892 18.3702 6.8073C17.1099 6.27569 15.7562 6.00184 14.3888 6.00184C13.0213 6.00184 11.6676 6.27569 10.4073 6.8073C9.14699 7.33892 8.00541 8.11757 7.04965 9.09751C2.98345 13.2426 2.98345 19.8886 7.04965 24.0337L22.3196 39.5111V37.9601ZM14.3881 8.72149C13.3796 8.72109 12.3812 8.92338 11.4521 9.31639C10.523 9.70941 9.68205 10.2852 8.97892 11.0096C7.60168 12.406 6.79519 14.2679 6.71781 16.2297C6.71045 16.405 6.63572 16.5707 6.50925 16.6921C6.38277 16.8135 6.21435 16.8812 6.03921 16.8811H6.01138C5.83159 16.8735 5.66218 16.7947 5.54039 16.6619C5.4186 16.5292 5.35442 16.3534 5.36196 16.1732C5.45275 13.8735 6.39816 11.6907 8.01259 10.0535C8.84163 9.20045 9.83303 8.52266 10.9281 8.06027C12.0232 7.59788 13.1997 7.36029 14.3881 7.36155C14.5681 7.36155 14.7407 7.43319 14.8679 7.56071C14.9952 7.68823 15.0667 7.86118 15.0667 8.04152C15.0667 8.22186 14.9952 8.39481 14.8679 8.52233C14.7407 8.64985 14.5681 8.72149 14.3881 8.72149Z" fill="black"/>
</svg>
