<svg width="132" height="53" viewBox="0 0 132 53" fill="none" xmlns="http://www.w3.org/2000/svg">
<path d="M61.9388 7.30907C63.9888 6.9037 66.0387 6.52475 68.0622 6.04002C69.9354 5.5906 71.4816 4.52424 72.8335 3.16709C73.2488 2.75288 73.6553 2.32988 74.1147 1.95973C74.5742 1.58077 75.0778 1.55437 75.4136 1.80113C75.7759 2.0567 75.9526 2.62954 75.7847 3.15828C75.4401 4.22462 74.6979 5.02657 73.9557 5.81973C73.3372 6.4807 72.6745 7.11522 71.9764 7.69682C70.978 8.52523 70.4655 9.51223 70.5097 10.8253C70.5715 12.5262 70.5185 14.227 70.5715 15.9279C70.5892 16.4478 70.4743 16.7387 69.9707 16.9325C67.6951 17.8271 66.7379 18.2633 64.2804 18.2633C63.9181 17.5671 63.7855 16.8885 63.8032 16.1746C63.8456 14.2575 63.986 12.2881 63.8474 10.3758C63.7679 9.39764 63.6884 9.3624 62.6634 9.22137C59.4105 8.779 55.8827 8.50798 61.9388 7.30899L61.9388 7.30907Z" fill="black"/>
<path d="M62.1235 0.984648C62.2642 0.394749 62.8036 0.814124 62.8482 1.14023C63.0249 1.91574 62.9511 2.47409 62.5244 3.44988C61.9179 4.83703 62.3641 5.45316 62.6779 6.70931C62.3326 6.77675 61.9872 6.8443 61.6419 6.9126C61.1433 7.0113 60.6578 7.13785 60.1671 7.29353C59.8955 6.13766 59.0268 5.55129 58.1406 4.97375C57.6546 4.65648 57.1863 4.28633 56.7799 3.88097C56.3137 3.50108 56.6114 2.73099 57.2026 3.11171C58.1347 3.71185 59.203 4.48963 60.3521 4.02961C61.6537 3.50852 61.7455 2.13664 62.1235 0.984613V0.984648Z" fill="black"/>
<path d="M72.1469 1.41705C72.5652 1.17617 72.8864 1.90728 72.3915 2.24164C71.9888 2.66005 70.9919 3.52937 70.8394 4.21959C70.0493 4.7774 69.1931 5.22269 68.2523 5.51034C68.1124 4.4444 68.8452 3.63199 68.532 2.58506C70.1313 2.91113 70.8834 2.09559 72.1469 1.41701V1.41705Z" fill="black"/>
<path d="M42.7891 26.9787H38.0527V35.2576H42.7891V36.2569H37.0508V25.9795H42.7891V26.9787Z" fill="black"/>
<path d="M53.3828 26.9787H48.6464V30.3736H52.6891V31.3728H48.6464V36.2569H47.6445V25.9795H53.3828V26.9787Z" fill="black"/>
<path d="M37.5547 30.374H42.0955V31.3733H37.5547V30.374Z" fill="black"/>
<path d="M66.1484 36.2569L69.7337 25.9795H70.8306L74.4159 36.2569H73.3584L72.3087 33.248H68.2556L67.206 36.2569H66.1484ZM71.9601 32.2487L70.2822 27.4389L68.6043 32.2487H71.9601H71.9601Z" fill="black"/>
<path d="M63.6992 26.9787H58.9628V30.3736H63.0055V31.3728H58.9628V36.2569H57.9609V25.9795H63.6992V26.9787Z" fill="black"/>
<path d="M84.2383 26.9787H79.5018V30.3736H83.5445V31.3728H79.5018V36.2569H78.5V25.9795H84.2383V26.9787Z" fill="black"/>
<path d="M86.6875 36.2569L90.2728 25.9795H91.3696L94.955 36.2569H93.8974L92.8478 33.248H88.7947L87.745 36.2569H86.6875ZM92.4992 32.2487L90.8212 27.4389L89.1433 32.2487H92.4992H92.4992Z" fill="black"/>
<path d="M131.353 51.4423H0V52.8H131.353V51.4423Z" fill="black"/>
<path fill-rule="evenodd" clip-rule="evenodd" d="M1.36126 10.5785V52.8H0V10.5785V9.2208H1.36126H48.5638V10.5785H1.36126Z" fill="black"/>
<path fill-rule="evenodd" clip-rule="evenodd" d="M130.64 10.5785V52.8H132.001V10.5785V9.2208H130.64H83.4375V10.5785H130.64Z" fill="black"/>
<path d="M59.6466 3.30287C60.1785 3.30287 60.6097 2.87283 60.6097 2.34235C60.6097 1.81187 60.1785 1.38184 59.6466 1.38184C59.1148 1.38184 58.6836 1.81187 58.6836 2.34235C58.6836 2.87283 59.1148 3.30287 59.6466 3.30287Z" fill="black"/>
<path d="M65.6705 5.78434C67.1109 5.78434 68.2785 4.61977 68.2785 3.18319C68.2785 1.74661 67.1109 0.582031 65.6705 0.582031C64.2301 0.582031 63.0625 1.74661 63.0625 3.18319C63.0625 4.61977 64.2301 5.78434 65.6705 5.78434Z" fill="black"/>
<path d="M69.2155 2.08179C69.7919 2.08179 70.2591 1.61576 70.2591 1.04089C70.2591 0.466024 69.7919 0 69.2155 0C68.6391 0 68.1719 0.466024 68.1719 1.04089C68.1719 1.61576 68.6391 2.08179 69.2155 2.08179Z" fill="black"/>
</svg>
