<svg width="24" height="24" viewBox="0 0 24 24" fill="none" xmlns="http://www.w3.org/2000/svg">
<g clip-path="url(#clip0_2920_54598)">
<path d="M12 24C18.6274 24 24 18.6274 24 12C24 5.37258 18.6274 0 12 0C5.37258 0 0 5.37258 0 12C0 18.6274 5.37258 24 12 24Z" fill="#F0F0F0"/>
<path d="M23.2536 16.1739C23.736 14.8739 24 13.4678 24 12C24 10.5321 23.736 9.12607 23.2536 7.82609H0.746391C0.264047 9.12607 0 10.5321 0 12C0 13.4678 0.264047 14.8739 0.746391 16.1739L12 17.2174L23.2536 16.1739Z" fill="#0052B4"/>
<g clip-path="url(#clip1_2920_54598)">
<path d="M-2 0V24H26V0H-2Z" fill="#012169"/>
<path d="M-2 3L26 20L-2 3ZM26 3L-2 20L26 3Z" fill="black"/>
<path fill-rule="evenodd" clip-rule="evenodd" d="M8.73467 11.5L-2.86435 4.45774L-1.13564 1.54226L12 9.51747L25.1357 1.54226L26.8644 4.45774L15.2653 11.5L26.8644 18.5423L25.1357 21.4577L12 13.4825L-1.13564 21.4577L-2.86435 18.5423L8.73467 11.5Z" fill="white"/>
<mask id="mask0_2920_54598" style="mask-type:luminance" maskUnits="userSpaceOnUse" x="-2" y="3" width="28" height="17">
<path d="M12 11.5H26V20L12 11.5ZM12 11.5V20H-2L12 11.5ZM12 11.5H-2V3L12 11.5ZM12 11.5V3H26L12 11.5Z" fill="white"/>
</mask>
<g mask="url(#mask0_2920_54598)">
<path d="M-2 3L26 20L-2 3ZM26 3L-2 20L26 3Z" fill="black"/>
<path fill-rule="evenodd" clip-rule="evenodd" d="M9.82311 11.5L-2.57623 3.97183L-1.42376 2.02818L12 10.1783L25.4238 2.02818L26.5762 3.97183L14.1769 11.5L26.5762 19.0282L25.4238 20.9718L12 12.8217L-1.42376 20.9718L-2.57623 19.0282L9.82311 11.5Z" fill="#C8102E"/>
</g>
<path d="M-2.56 9.23334H9.76V-1H14.24V9.23334H26.56V13.7667H14.24V25H9.76V13.7667H-2.56V9.23334Z" fill="#C8102E"/>
<path fill-rule="evenodd" clip-rule="evenodd" d="M9.2 -2.13333H14.8V8.66667H27.12V14.3333H14.8V26.1333H9.2V14.3333H-3.12V8.66667H9.2V-2.13333ZM10.32 -0.999998V9.8H-2V13.2H10.32V25H13.68V13.2H26V9.8H13.68V-0.999998H10.32Z" fill="white"/>
</g>
</g>
<defs>
<clipPath id="clip0_2920_54598">
<rect width="24" height="24" rx="12" fill="white"/>
</clipPath>
<clipPath id="clip1_2920_54598">
<rect width="32" height="30" fill="white" transform="translate(-4 -3)"/>
</clipPath>
</defs>
</svg>
