<svg width="86" height="126" viewBox="0 0 86 126" fill="none" xmlns="http://www.w3.org/2000/svg">
<rect width="86" height="126" rx="43" fill="#5AF8A3"/>
<g clip-path="url(#clip0_2934_8610)">
<path d="M38.9609 63.0264V85.8958" stroke="#2B2A29" stroke-width="0.749875" stroke-miterlimit="22.9256"/>
<path d="M36.2446 63.0347C36.2446 61.5403 37.456 60.3288 38.9504 60.3288C40.4448 60.3288 41.6563 61.5403 41.6563 63.0347C41.6563 64.529 40.4448 65.7405 38.9504 65.7405C37.456 65.7405 36.2446 64.529 36.2446 63.0347Z" fill="#2B2A29"/>
<path d="M48.5156 54.3849V86.0001" stroke="#2B2A29" stroke-width="0.749875" stroke-miterlimit="22.9256"/>
<path d="M43.1122 55.5816C43.1122 52.6042 45.5259 50.1905 48.5034 50.1905C51.4808 50.1905 53.8945 52.6042 53.8945 55.5816C53.8945 58.5591 51.4808 60.9728 48.5034 60.9728C45.5259 60.9728 43.1122 58.5591 43.1122 55.5816Z" fill="#2B2A29"/>
<path d="M29.4062 76.8369V85.9743" stroke="#2B2A29" stroke-width="0.749875" stroke-miterlimit="22.9256"/>
<path d="M24.0028 74.5358C24.0028 71.5584 26.4165 69.1447 29.394 69.1447C32.3715 69.1447 34.7852 71.5584 34.7852 74.5358C34.7852 77.5133 32.3715 79.927 29.394 79.927C26.4165 79.927 24.0028 77.5133 24.0028 74.5358Z" fill="#2B2A29"/>
<path d="M58.0703 47.3101V86.0002" stroke="#2B2A29" stroke-width="0.749875" stroke-miterlimit="22.9256"/>
<path d="M54.3284 43.7465C54.3284 41.6787 56.0047 40.0025 58.0724 40.0025C60.1402 40.0025 61.8164 41.6787 61.8164 43.7465C61.8164 45.8142 60.1402 47.4905 58.0724 47.4905C56.0047 47.4905 54.3284 45.8142 54.3284 43.7465Z" fill="#2B2A29"/>
</g>
<defs>
<clipPath id="clip0_2934_8610">
<rect width="46" height="46" fill="white" transform="translate(20 40)"/>
</clipPath>
</defs>
</svg>
