<svg width="86" height="126" viewBox="0 0 86 126" fill="none" xmlns="http://www.w3.org/2000/svg">
<rect width="86" height="126" rx="43" fill="#5AF8A3"/>
<path d="M59.4495 54.7955C62.1766 54.7955 64.3873 52.5848 64.3873 49.8577C64.3873 47.1306 62.1766 44.9199 59.4495 44.9199C56.7224 44.9199 54.5117 47.1306 54.5117 49.8577C54.5117 52.5848 56.7224 54.7955 59.4495 54.7955Z" fill="#2B2A29"/>
<path d="M54.7768 74.9026C54.7768 77.6297 56.9875 79.8404 59.7146 79.8404C62.4416 79.8404 64.6523 77.6297 64.6523 74.9026C64.6523 72.1756 62.4416 69.9648 59.7146 69.9648C56.9875 69.9648 54.7768 72.1756 54.7768 74.9026Z" fill="#2B2A29"/>
<path d="M35.9534 85.9996C38.6805 85.9996 40.8912 83.7889 40.8912 81.0618C40.8912 78.3347 38.6805 76.124 35.9534 76.124C33.2264 76.124 31.0156 78.3347 31.0156 81.0618C31.0156 83.7889 33.2264 85.9996 35.9534 85.9996Z" fill="#2B2A29"/>
<path d="M22.4213 44.9388C22.4213 47.6658 24.632 49.8766 27.3591 49.8766C30.0862 49.8766 32.2969 47.6658 32.2969 44.9388C32.2969 42.2117 30.0862 40.001 27.3591 40.001C24.632 40.001 22.4213 42.2117 22.4213 44.9388Z" fill="#2B2A29"/>
<path d="M59.4494 49.8574L35.9531 81.0622" stroke="#2B2A29" stroke-width="0.757283" stroke-miterlimit="22.9256"/>
<path d="M59.7157 74.9027L27.6055 44.1997" stroke="#2B2A29" stroke-width="0.757283" stroke-miterlimit="22.9256"/>
<path d="M58.8939 65.6453C60.4081 65.6453 61.6355 64.4179 61.6355 62.9037C61.6355 61.3896 60.4081 60.1621 58.8939 60.1621C57.3798 60.1621 56.1523 61.3896 56.1523 62.9037C56.1523 64.4179 57.3798 65.6453 58.8939 65.6453Z" fill="#2B2A29"/>
<path d="M26.3197 69.9686C27.8339 69.9686 29.0613 68.7411 29.0613 67.227C29.0613 65.7128 27.8339 64.4854 26.3197 64.4854C24.8056 64.4854 23.5781 65.7128 23.5781 67.227C23.5781 68.7411 24.8056 69.9686 26.3197 69.9686Z" fill="#2B2A29"/>
<path d="M58.8962 62.9038L26.3242 67.2271" stroke="#2B2A29" stroke-width="0.757283" stroke-miterlimit="22.9256"/>
</svg>
