<svg width="45" height="45" viewBox="0 0 45 45" fill="none" xmlns="http://www.w3.org/2000/svg">
<circle cx="22.5" cy="22.5" r="22.5" fill="#E0E0E0"/>
<path d="M17.9 22.4444V25.2222M17.9 22.4444V15.7778C17.9 14.8573 18.6611 14.1111 19.6 14.1111C20.5389 14.1111 21.3 14.8573 21.3 15.7778M17.9 22.4444C17.9 21.524 17.1389 20.7778 16.2 20.7778C15.2611 20.7778 14.5 21.524 14.5 22.4444V24.6667C14.5 29.269 18.3056 33 23 33C27.6944 33 31.5 29.269 31.5 24.6667V19.1111C31.5 18.1906 30.7389 17.4444 29.8 17.4444C28.8611 17.4444 28.1 18.1906 28.1 19.1111M21.3 15.7778V21.8889M21.3 15.7778V14.6667C21.3 13.7462 22.0611 13 23 13C23.9389 13 24.7 13.7462 24.7 14.6667V15.7778M24.7 15.7778V21.8889M24.7 15.7778C24.7 14.8573 25.4611 14.1111 26.4 14.1111C27.3389 14.1111 28.1 14.8573 28.1 15.7778V19.1111M28.1 19.1111V21.8889" stroke="black" stroke-linecap="round" stroke-linejoin="round"/>
</svg>
