<svg width="86" height="126" viewBox="0 0 86 126" fill="none" xmlns="http://www.w3.org/2000/svg">
<rect width="86" height="126" rx="43" fill="#5AF8A3"/>
<g clip-path="url(#clip0_2934_8511)">
<path d="M42.9953 70.099C46.9191 70.099 50.1 66.9181 50.1 62.9943C50.1 59.0705 46.9191 55.8896 42.9953 55.8896C39.0715 55.8896 35.8906 59.0705 35.8906 62.9943C35.8906 66.9181 39.0715 70.099 42.9953 70.099Z" fill="#2B2A29"/>
<path d="M23.9443 66.9385C26.1226 66.9385 27.8886 65.1726 27.8886 62.9942C27.8886 60.8158 26.1226 59.0499 23.9443 59.0499C21.7659 59.0499 20 60.8158 20 62.9942C20 65.1726 21.7659 66.9385 23.9443 66.9385Z" fill="#2B2A29"/>
<path d="M23.9453 62.9943H32.7173" stroke="#2B2A29" stroke-width="0.759506" stroke-miterlimit="22.9256"/>
<path d="M62.0576 66.9385C64.2359 66.9385 66.0018 65.1726 66.0018 62.9942C66.0018 60.8158 64.2359 59.0499 62.0576 59.0499C59.8792 59.0499 58.1133 60.8158 58.1133 62.9942C58.1133 65.1726 59.8792 66.9385 62.0576 66.9385Z" fill="#2B2A29"/>
<path d="M62.0571 62.9943H53.2852" stroke="#2B2A29" stroke-width="0.759506" stroke-miterlimit="22.9256"/>
<path d="M26.7352 73.6861C25.195 75.2263 25.195 77.7234 26.7352 79.2637C28.2754 80.8039 30.7726 80.8039 32.3128 79.2637C33.853 77.7234 33.853 75.2263 32.3128 73.6861C30.7726 72.1458 28.2754 72.1458 26.7352 73.6861Z" fill="#2B2A29"/>
<path d="M29.5156 76.4693L35.7244 70.2729" stroke="#2B2A29" stroke-width="0.759506" stroke-miterlimit="22.9256"/>
<path d="M53.6839 46.7355C55.2241 45.1953 57.7212 45.1953 59.2615 46.7355C60.8017 48.2757 60.8017 50.7729 59.2615 52.3131C57.7212 53.8533 55.2241 53.8533 53.6839 52.3131C52.1436 50.7729 52.1436 48.2757 53.6839 46.7355Z" fill="#2B2A29"/>
<path d="M56.4698 49.519L50.2734 55.7279" stroke="#2B2A29" stroke-width="0.759506" stroke-miterlimit="22.9256"/>
<path d="M53.6878 79.2634C55.228 80.8036 57.7252 80.8036 59.2654 79.2634C60.8056 77.7232 60.8056 75.226 59.2654 73.6858C57.7252 72.1456 55.228 72.1456 53.6878 73.6858C52.1476 75.226 52.1476 77.7232 53.6878 79.2634Z" fill="#2B2A29"/>
<path d="M56.4698 76.4694L50.2734 70.2731" stroke="#2B2A29" stroke-width="0.759506" stroke-miterlimit="22.9256"/>
<path d="M26.7352 52.3127C25.195 50.7725 25.195 48.2753 26.7352 46.7351C28.2754 45.1949 30.7726 45.1949 32.3128 46.7351C33.853 48.2753 33.853 50.7725 32.3128 52.3127C30.7726 53.8529 28.2754 53.8529 26.7352 52.3127Z" fill="#2B2A29"/>
<path d="M29.5195 49.5189L35.7283 55.7277" stroke="#2B2A29" stroke-width="0.759506" stroke-miterlimit="22.9256"/>
<path d="M39.0535 82.0563C39.0535 84.2344 40.8193 86.0002 42.9974 86.0002C45.1756 86.0002 46.9414 84.2344 46.9414 82.0563C46.9414 79.8781 45.1756 78.1123 42.9974 78.1123C40.8193 78.1123 39.0535 79.8781 39.0535 82.0563Z" fill="#2B2A29"/>
<path d="M42.9922 82.0562V73.2842" stroke="#2B2A29" stroke-width="0.759506" stroke-miterlimit="22.9256"/>
<path d="M39.0535 43.9425C39.0535 41.7643 40.8193 39.9986 42.9974 39.9986C45.1756 39.9986 46.9414 41.7643 46.9414 43.9425C46.9414 46.1207 45.1756 47.8865 42.9974 47.8865C40.8193 47.8865 39.0535 46.1207 39.0535 43.9425Z" fill="#2B2A29"/>
<path d="M42.9922 43.9443V52.7163" stroke="#2B2A29" stroke-width="0.759506" stroke-miterlimit="22.9256"/>
</g>
<defs>
<clipPath id="clip0_2934_8511">
<rect width="46" height="46.0007" fill="white" transform="translate(20 40)"/>
</clipPath>
</defs>
</svg>
