<svg width="86" height="126" viewBox="0 0 86 126" fill="none" xmlns="http://www.w3.org/2000/svg">
<rect width="86" height="126" rx="43" fill="#5AF8A3"/>
<path fill-rule="evenodd" clip-rule="evenodd" d="M40.4866 68.1115C41.6148 68.4499 42.9365 68.6756 44.1292 68.6756H47.933C48.6422 68.6756 49.7865 67.7246 49.0935 66.403C49.3997 66.3385 49.7382 65.8711 49.851 65.5326C50.0928 64.8396 49.6898 64.3399 49.6737 64.211C49.851 64.1626 50.0605 63.8886 50.1572 63.7436C50.5279 63.1633 50.4151 62.3897 49.9477 61.9223C49.8671 61.8417 49.7221 61.7611 49.6737 61.6966C49.7221 61.5193 50.0444 61.1486 49.8671 60.4878C49.7059 59.8431 49.0935 59.3595 48.3682 59.3595H45.3058C45.3058 59.1016 45.6926 57.5866 45.6926 56.5389C45.6926 55.8136 45.741 54.8143 45.0479 54.4597C44.5644 54.2019 43.9358 54.2341 43.5329 54.637L43.2911 54.9594C43.2266 55.0883 43.1783 55.2012 43.1138 55.3462C43.001 55.6525 42.324 57.4899 42.1467 57.7961C42.0017 58.054 41.631 58.5698 41.4214 58.7632L41.2119 58.9727C41.0185 59.1984 40.7606 59.4079 40.5511 59.6013L40.2448 59.8592C40.0192 60.0365 39.9064 60.1009 39.8419 60.1815H36.4894C36.1832 60.1815 35.9414 60.4233 35.9414 60.649V67.7408C35.9414 67.9664 36.2799 68.1759 36.6184 68.1759H40.4544V68.1276L40.4866 68.1115Z" fill="black"/>
<path d="M25.1727 48.9313C26.8106 48.9313 28.1384 47.6036 28.1384 45.9657C28.1384 44.3278 26.8106 43 25.1727 43C23.5348 43 22.207 44.3278 22.207 45.9657C22.207 47.6036 23.5348 48.9313 25.1727 48.9313Z" fill="#2B2A29"/>
<path fill-rule="evenodd" clip-rule="evenodd" d="M25.1738 54.492H30.3476C30.3476 51.6392 28.0266 49.3182 25.1738 49.3182C22.321 49.3182 20 51.6392 20 54.492H25.1738Z" fill="#2B2A29"/>
<path d="M31.1211 55.1851L34.7315 58.7954" stroke="#2B2A29" stroke-width="0.754856" stroke-miterlimit="22.9256"/>
<path d="M60.825 48.9313C62.4629 48.9313 63.7907 47.6036 63.7907 45.9657C63.7907 44.3278 62.4629 43 60.825 43C59.1871 43 57.8594 44.3278 57.8594 45.9657C57.8594 47.6036 59.1871 48.9313 60.825 48.9313Z" fill="#2B2A29"/>
<path fill-rule="evenodd" clip-rule="evenodd" d="M60.8261 54.492H55.6523C55.6523 51.6392 57.9733 49.3182 60.8261 49.3182C63.679 49.3182 65.9999 51.6392 65.9999 54.492H60.8261Z" fill="#2B2A29"/>
<path d="M54.8799 55.1851L51.2695 58.7954" stroke="#2B2A29" stroke-width="0.754856" stroke-miterlimit="22.9256"/>
<path d="M25.1727 77.5887C26.8106 77.5887 28.1384 76.2609 28.1384 74.623C28.1384 72.9851 26.8106 71.6573 25.1727 71.6573C23.5348 71.6573 22.207 72.9851 22.207 74.623C22.207 76.2609 23.5348 77.5887 25.1727 77.5887Z" fill="#2B2A29"/>
<path fill-rule="evenodd" clip-rule="evenodd" d="M25.1738 83.1494H30.3476C30.3476 80.2965 28.0266 77.9756 25.1738 77.9756C22.321 77.9756 20 80.2965 20 83.1494H25.1738Z" fill="#2B2A29"/>
<path d="M31.1211 74.2523L34.7315 70.642" stroke="#2B2A29" stroke-width="0.754856" stroke-miterlimit="22.9256"/>
<path d="M60.825 77.5887C62.4629 77.5887 63.7907 76.2609 63.7907 74.623C63.7907 72.9851 62.4629 71.6573 60.825 71.6573C59.1871 71.6573 57.8594 72.9851 57.8594 74.623C57.8594 76.2609 59.1871 77.5887 60.825 77.5887Z" fill="#2B2A29"/>
<path fill-rule="evenodd" clip-rule="evenodd" d="M60.8261 83.1494H55.6523C55.6523 80.2965 57.9733 77.9756 60.8261 77.9756C63.679 77.9756 65.9999 80.2965 65.9999 83.1494H60.8261Z" fill="#2B2A29"/>
<path d="M54.8799 74.2523L51.2695 70.642" stroke="#2B2A29" stroke-width="0.754856" stroke-miterlimit="22.9256"/>
</svg>
