
<svg width="18" height="18" viewBox="0 0 18 18" fill="none" xmlns="http://www.w3.org/2000/svg">
    <rect x="9" y="8.25" width="0.00863636" height="0.00863636" stroke="#38496C" stroke-width="2.25" stroke-linejoin="round"/>
    <path fill-rule="evenodd" clip-rule="evenodd" d="M12.4964 4.45678C10.5654 2.56187 7.4346 2.56187 5.50359 4.45678C3.57257 6.3517 3.57257 9.42396 5.50359 11.3189L9 14.7499L12.4964 11.3189C14.4274 9.42396 14.4274 6.3517 12.4964 4.45678ZM4.75736 3.7245C7.1005 1.42517 10.8995 1.42517 13.2426 3.7245C15.5858 6.02384 15.5858 9.75181 13.2426 12.0512L9.37311 15.8483C9.27416 15.9454 9.13994 16 9 16C8.86005 16 8.72584 15.9454 8.62689 15.8483L4.75736 12.0512C2.41421 9.75182 2.41421 6.02384 4.75736 3.7245Z" fill="#38496C"/>
</svg>
