<svg width="65" height="137" viewBox="0 0 65 137" fill="none" xmlns="http://www.w3.org/2000/svg">
<path d="M5.08236 3.17656C5.13748 2.34983 5.85004 1.72782 6.67676 1.77899C7.50349 1.83411 8.12551 2.54667 8.07433 3.3734L3.49977 71.3776C3.4171 75.2554 4.13359 77.9796 5.25952 79.3418C5.63745 79.7984 6.039 80.0583 6.43662 80.1016C6.86573 80.1488 7.37358 79.9795 7.92473 79.578C9.68448 78.2946 11.5505 75.09 13.0189 69.6061C13.2315 68.8069 14.0583 68.3306 14.8574 68.5431C15.6369 68.7518 16.1093 69.5431 15.9322 70.3226L8.70028 114.824C8.3499 118.351 9.07428 120.509 10.2789 121.599C10.7986 122.072 11.4324 122.347 12.1017 122.446C12.8182 122.552 13.5898 122.462 14.3417 122.206C16.1881 121.576 17.8888 119.962 18.4911 117.753L27.9866 77.2592C28.1756 76.4522 28.9827 75.9522 29.7897 76.1372C30.5377 76.3104 31.018 77.0151 30.9432 77.7592C30.6322 87.0776 30.2818 94.9157 29.9354 102.746C29.585 110.663 29.2307 118.584 28.9236 127.812L28.9157 127.938C28.6756 130.599 29.5653 132.3 30.8408 133.185C31.3841 133.563 32.0061 133.807 32.6399 133.918C33.2738 134.028 33.9273 134.008 34.5217 133.866C35.6122 133.607 36.5098 132.926 36.7342 131.91L43.5882 78.7985C43.6905 77.9796 44.4425 77.4009 45.2574 77.5033C45.9896 77.5978 46.5329 78.208 46.5644 78.9205L48.7847 127.359C49.3635 129.54 50.2965 130.874 51.3633 131.496C51.9932 131.863 52.69 131.985 53.3869 131.886C54.1467 131.78 54.934 131.414 55.6781 130.831L55.7529 130.776C57.4221 129.43 58.7842 127.028 59.174 123.922C60.0676 109.927 60.6109 96.1361 60.8747 82.2865C61.1384 68.4526 61.1305 54.5163 60.9298 40.2415L45.8991 3.04664C45.592 2.27897 45.966 1.405 46.7337 1.09793C47.5014 0.790858 48.3753 1.16485 48.6824 1.93253L63.8154 39.3754C63.8784 39.5408 63.9178 39.7258 63.9217 39.9147C64.1304 54.3234 64.1383 68.3817 63.8706 82.3337C63.6068 96.3133 63.0635 110.163 62.1699 124.119L62.158 124.28C61.6659 128.213 59.855 131.319 57.6189 133.114L57.5323 133.189C56.3788 134.095 55.0954 134.67 53.8002 134.855C52.446 135.047 51.0838 134.811 49.8516 134.091C48.1076 133.071 46.6431 131.087 45.8479 127.977L45.8085 127.674L44.3677 96.1834L39.675 132.548C39.179 134.811 37.3798 136.28 35.2185 136.791C34.2383 137.024 33.1753 137.055 32.1321 136.874C31.0888 136.693 30.0535 136.288 29.1362 135.65C27.0576 134.205 25.5931 131.599 25.9434 127.69C26.2545 118.336 26.6048 110.474 26.9552 102.62L27.3725 93.0891L21.4122 118.505C20.5461 121.749 18.0462 124.115 15.318 125.044C14.1252 125.45 12.8733 125.587 11.6804 125.414C10.4482 125.233 9.27505 124.713 8.28692 123.82C6.42481 122.135 5.27527 119.127 5.73981 114.509L11.2553 80.5267C10.7395 81.1291 10.2199 81.6212 9.70023 81.9991C8.50738 82.8652 7.29091 83.2156 6.12561 83.0857C4.92883 82.9518 3.84621 82.3259 2.96437 81.259C1.4172 79.389 0.429068 75.964 0.527488 71.3225L5.10205 3.18049L5.08236 3.17656Z" fill="#2B2A29"/>
</svg>
