<svg width="89" height="134" viewBox="0 0 89 134" fill="none" xmlns="http://www.w3.org/2000/svg">
    <g clip-path="url(#clip0_666_4533)">
        <path d="M11.0388 131.214C11.2708 131.993 10.8263 132.815 10.0466 133.047C9.2681 133.279 8.44511 132.835 8.21415 132.055C5.01107 121.422 2.60172 110.678 1.24632 99.7965C-0.107989 88.9197 -0.410514 77.8814 0.595733 66.6576C0.665129 65.8509 1.37969 65.2513 2.18643 65.3207C2.99424 65.39 3.59279 66.1046 3.52339 66.9113C2.53883 77.8901 2.84027 88.7267 4.17398 99.4398C5.50661 110.152 7.88235 120.736 11.0377 131.214H11.0388Z" fill="#2B2A29"/>
        <path d="M30.7206 120.042C30.7032 120.854 30.0288 121.496 29.2166 121.478C28.4045 121.461 27.7626 120.785 27.781 119.974C27.9274 114.469 29.0486 109.485 31.3603 105.15C33.3479 101.422 36.2094 98.186 40.0717 95.5262C37.7144 93.9528 36.0576 92.1984 34.9342 90.3139C33.6916 88.2331 33.1223 86.0135 32.989 83.7071C27.6531 82.3778 22.6056 80.8933 19.0869 78.6271C14.9308 75.9488 12.8489 72.2947 14.6369 66.8341C14.8689 66.1217 15.5933 65.7064 16.31 65.8419L42.3813 69.2358C42.8378 69.2944 43.2184 69.559 43.4429 69.9222L61.2886 98.8019C61.5423 99.215 61.5694 99.7062 61.3992 100.126L48.3266 132.276C48.0209 133.029 47.161 133.394 46.4063 133.089C45.6527 132.783 45.2884 131.923 45.5931 131.169L58.3913 99.7062L41.3089 72.0616L17.1308 68.9138C16.5052 72.144 17.9939 74.4167 20.6776 76.1462C24.0748 78.3354 29.3023 79.7776 34.7727 81.1156C35.4178 81.2718 35.8971 81.8529 35.8971 82.5458C35.8906 84.7665 36.3146 86.8831 37.4629 88.8132C38.6209 90.7682 40.5564 92.5823 43.5654 94.1892C43.7974 94.3128 43.9991 94.4993 44.1412 94.7422C44.551 95.4416 44.3168 96.3438 43.6175 96.7536C39.1858 99.3462 36.0272 102.645 33.954 106.532C31.8678 110.444 30.8529 114.99 30.7206 120.04V120.042Z" fill="#2B2A29"/>
        <path d="M28.7284 64.6505C28.749 65.4627 28.1093 66.1393 27.2982 66.161C26.4861 66.1816 25.8095 65.5418 25.7878 64.7308C25.2977 47.5563 26.6021 31.6602 28.0941 13.4827L28.4335 9.42083C28.8694 5.14428 30.2259 2.53758 31.8415 1.20062C32.7242 0.471959 33.6935 0.0935319 34.6618 0.0154611C35.6334 -0.0626098 36.5843 0.167266 37.4312 0.643281C38.8907 1.46194 40.0476 3.03854 40.4196 5.01742L40.7188 8.01772C41.4171 5.05428 42.6814 3.16215 44.1767 2.19928C45.2393 1.51399 46.4006 1.2852 47.5685 1.45977C48.6625 1.62242 49.7414 2.14506 50.713 2.97023C52.7396 4.68995 54.4083 7.84315 54.8442 11.8855L59.3929 94.5213C59.4374 95.3324 58.8161 96.0285 58.0039 96.0719C57.1918 96.1163 56.4967 95.495 56.4534 94.6829L51.9133 12.162C51.5587 8.93614 50.3107 6.48992 48.81 5.2191C48.257 4.74851 47.6812 4.45574 47.1412 4.37659C46.6717 4.30719 46.2011 4.40044 45.7685 4.67911C44.8663 5.25922 44.0661 6.58426 43.5652 8.80602L41.6936 56.362C41.7012 57.1091 41.1395 57.7586 40.3816 57.841C39.5738 57.9299 38.8451 57.3455 38.7573 56.5377C37.7847 47.7449 37.9571 39.271 38.1284 30.8047C38.2986 22.4673 38.4678 14.1268 37.5147 5.49777C37.3011 4.43948 36.7134 3.62082 35.9923 3.21637C35.6486 3.02336 35.269 2.92902 34.8939 2.9583C34.5144 2.98758 34.1132 3.15456 33.7239 3.4766C32.6374 4.3755 31.7049 6.32619 31.3633 9.71793L31.037 13.7158C29.5493 31.851 28.2481 47.7113 28.7306 64.6549L28.7284 64.6505Z" fill="#2B2A29"/>
        <path d="M7.76459 47.6777L7.87736 47.6788C9.85515 47.668 11.6746 48.4476 13.0094 49.7195C14.3789 51.025 15.2572 52.8564 15.306 54.8939L15.6031 67.0187C15.6519 69.054 14.8669 70.9233 13.5635 72.295C12.258 73.6645 10.4266 74.5428 8.38807 74.5916L8.24169 74.5927C6.2639 74.6024 4.44766 73.8239 3.10853 72.552C1.73904 71.2454 0.860742 69.414 0.811948 67.3765L0.514845 55.2528C0.46605 53.2186 1.2511 51.3449 2.55445 49.9765C3.86105 48.607 5.69246 47.7287 7.72989 47.6799L7.76351 47.6777H7.76459ZM7.76784 50.626C6.55883 50.6596 5.47018 51.1866 4.68947 52.0074C3.90117 52.8358 3.42624 53.9646 3.45551 55.1845L3.75262 67.3082C3.78189 68.527 4.31212 69.6297 5.13946 70.418C5.94185 71.1803 7.02726 71.652 8.20482 71.6531L8.35121 71.6455C9.56022 71.6119 10.6489 71.0849 11.4296 70.2641C12.2157 69.4356 12.6928 68.3069 12.6635 67.087L12.3664 54.9611C12.3372 53.7434 11.8069 52.6417 10.9785 51.8534C10.1761 51.089 9.09071 50.6195 7.91314 50.6184L7.76676 50.626H7.76784Z" fill="#2B2A29"/>
        <path d="M20.1806 41.5079L20.2902 41.509C22.3493 41.4971 24.2414 42.306 25.6326 43.631C27.0563 44.9886 27.9693 46.8937 28.0203 49.0114L28.3315 61.7304C28.3813 63.8438 27.567 65.7901 26.2105 67.2149C24.853 68.6419 22.9489 69.5527 20.8312 69.6047L20.6881 69.6058C18.629 69.6178 16.7369 68.8099 15.3457 67.4838C13.9187 66.1263 13.0079 64.2211 12.9569 62.1034L12.6457 49.3844C12.5958 47.2711 13.4102 45.3247 14.7666 43.8999C16.1242 42.473 18.0294 41.5621 20.147 41.5101L20.1806 41.5068V41.5079ZM20.1817 44.4562C18.8946 44.493 17.7323 45.0547 16.8995 45.9298C16.0592 46.8124 15.5539 48.0149 15.5842 49.315L15.8954 62.0351C15.9279 63.3341 16.4929 64.5095 17.3755 65.3499C18.2332 66.1664 19.3913 66.6663 20.6491 66.6663L20.7955 66.6587C22.0825 66.6218 23.2438 66.0601 24.0766 65.184C24.9169 64.3014 25.4222 63.0988 25.3919 61.7987L25.0807 49.0786C25.0481 47.7796 24.4843 46.6042 23.6017 45.7639C22.744 44.9474 21.5859 44.4475 20.3281 44.4475L20.1817 44.4551V44.4562Z" fill="#2B2A29"/>
        <path fill-rule="evenodd" clip-rule="evenodd" d="M67.6726 57.6599L88.9035 57.6794L77.9704 68.2797L67.6726 57.6599Z" fill="#2B2A29"/>
        <path d="M79.764 57.6707C79.764 58.485 79.1026 59.1465 78.2883 59.1465C77.4739 59.1465 76.8125 58.485 76.8125 57.6707V9.46306C76.8125 8.64874 77.4739 7.9873 78.2883 7.9873C79.1026 7.9873 79.764 8.64874 79.764 9.46306V57.6707Z" fill="#2B2A29"/>
    </g>
    <defs>
        <clipPath id="clip0_666_4533">
            <rect width="88.9032" height="133.198" fill="white"/>
        </clipPath>
    </defs>
</svg>
