<svg width="24" height="25" viewBox="0 0 24 25" fill="none" xmlns="http://www.w3.org/2000/svg">
    <g clip-path="url(#clip0_1322_3296)">
        <path fill-rule="evenodd" clip-rule="evenodd" d="M24 12.4116C24 19.039 18.6274 24.4116 12 24.4116C5.37258 24.4116 0 19.039 0 12.4116C0 5.7842 5.37258 0.411621 12 0.411621C18.6274 0.411621 24 5.7842 24 12.4116ZM12.43 9.27056C11.2628 9.75603 8.9301 10.7608 5.43185 12.285C4.86379 12.5109 4.56622 12.7318 4.53913 12.9479C4.49335 13.3131 4.95067 13.4569 5.57344 13.6528C5.65814 13.6794 5.74592 13.707 5.8359 13.7362C6.4486 13.9354 7.27279 14.1684 7.70125 14.1777C8.0899 14.1861 8.52369 14.0258 9.0026 13.697C12.2711 11.4906 13.9583 10.3754 14.0643 10.3514C14.139 10.3344 14.2426 10.3131 14.3127 10.3755C14.3829 10.4378 14.376 10.556 14.3686 10.5876C14.3233 10.7808 12.5281 12.4497 11.5991 13.3134C11.3095 13.5827 11.104 13.7737 11.062 13.8173C10.968 13.915 10.8721 14.0074 10.7799 14.0962C10.2107 14.645 9.78387 15.0565 10.8036 15.7284C11.2936 16.0513 11.6857 16.3184 12.0769 16.5848C12.5041 16.8757 12.9302 17.1659 13.4816 17.5273C13.622 17.6194 13.7562 17.715 13.8868 17.8082C14.384 18.1626 14.8307 18.481 15.3825 18.4303C15.7032 18.4008 16.0344 18.0992 16.2026 17.2C16.6002 15.0748 17.3816 10.4701 17.5622 8.57261C17.578 8.40636 17.5581 8.1936 17.5421 8.10021C17.5261 8.00681 17.4927 7.87374 17.3713 7.77523C17.2276 7.65857 17.0056 7.63397 16.9063 7.63572C16.455 7.64367 15.7625 7.88445 12.43 9.27056Z" fill="#7F90B4"/>
    </g>
    <defs>
        <clipPath id="clip0_1322_3296">
            <rect width="24" height="24" fill="white" transform="translate(0 0.411621)"/>
        </clipPath>
    </defs>
</svg>
