<svg width="24" height="25" viewBox="0 0 24 25" fill="none" xmlns="http://www.w3.org/2000/svg">
    <path d="M23.7609 7.61191C23.7609 7.61191 23.5266 5.95723 22.8047 5.23066C21.8906 4.27441 20.8688 4.26973 20.4 4.21348C17.0438 3.96973 12.0047 3.96973 12.0047 3.96973H11.9953C11.9953 3.96973 6.95625 3.96973 3.6 4.21348C3.13125 4.26973 2.10938 4.27441 1.19531 5.23066C0.473438 5.95723 0.24375 7.61191 0.24375 7.61191C0.24375 7.61191 0 9.55723 0 11.4979V13.3166C0 15.2572 0.239062 17.2025 0.239062 17.2025C0.239062 17.2025 0.473437 18.8572 1.19062 19.5838C2.10469 20.54 3.30469 20.5072 3.83906 20.6104C5.76094 20.7932 12 20.8494 12 20.8494C12 20.8494 17.0438 20.84 20.4 20.601C20.8688 20.5447 21.8906 20.54 22.8047 19.5838C23.5266 18.8572 23.7609 17.2025 23.7609 17.2025C23.7609 17.2025 24 15.2619 24 13.3166V11.4979C24 9.55723 23.7609 7.61191 23.7609 7.61191ZM9.52031 15.5244V8.7791L16.0031 12.1635L9.52031 15.5244Z" fill="#7F90B4"/>
</svg>
