<svg width="159" height="214" viewBox="0 0 159 214" fill="none" xmlns="http://www.w3.org/2000/svg">
    <path d="M83.4956 119.677H28.7108L28.4178 89.5014H74.4136C82.519 89.5014 89.1596 88.476 94.3354 86.4253C99.5111 84.2768 103.369 81.2007 105.908 77.1968C108.544 73.0953 109.863 68.1148 109.863 62.2555C109.863 55.6149 108.593 50.2438 106.054 46.1423C103.613 42.0408 99.7553 39.0623 94.4819 37.2068C89.3061 35.3514 82.6167 34.4236 74.4136 34.4236H43.9451V213.28H0V0H74.4136C86.8159 0 97.8998 1.17187 107.665 3.5156C117.529 5.85934 125.878 9.42377 132.714 14.2089C139.55 18.994 144.775 25.0487 148.388 32.3729C152.001 39.5994 153.808 48.1931 153.808 58.154C153.808 66.943 151.806 75.0484 147.802 82.4702C143.896 89.8921 137.695 95.9467 129.198 100.634C120.8 105.322 109.814 107.91 96.2397 108.398L83.4956 119.677ZM81.5913 213.28H16.6991L33.8377 179.003H81.5913C89.3061 179.003 95.6049 177.782 100.488 175.341C105.37 172.802 108.984 169.384 111.327 165.087C113.671 160.79 114.843 155.858 114.843 150.292C114.843 144.042 113.769 138.622 111.62 134.032C109.57 129.443 106.249 125.927 101.66 123.486C97.0697 120.947 91.0151 119.677 83.4956 119.677H41.1619L41.4548 89.5014H94.1889L104.296 101.367C117.284 101.171 127.734 103.466 135.644 108.251C143.652 112.939 149.462 119.042 153.075 126.562C156.786 134.081 158.642 142.138 158.642 150.732C158.642 164.403 155.663 175.927 149.706 185.302C143.749 194.579 135.009 201.561 123.486 206.249C112.06 210.936 98.0951 213.28 81.5913 213.28Z" fill="#E6E6E6"/>
</svg>
