<svg width="24" height="25" viewBox="0 0 24 25" fill="none" xmlns="http://www.w3.org/2000/svg">
    <g clip-path="url(#clip0_1322_3285)">
        <path d="M24 12.4116C24 5.7842 18.6274 0.411621 12 0.411621C5.37258 0.411621 0 5.7842 0 12.4116C0 18.4011 4.3882 23.3656 10.125 24.2658V15.8804H7.07812V12.4116H10.125V9.76787C10.125 6.76037 11.9166 5.09912 14.6576 5.09912C15.9701 5.09912 17.3438 5.3335 17.3438 5.3335V8.28662H15.8306C14.34 8.28662 13.875 9.2117 13.875 10.1616V12.4116H17.2031L16.6711 15.8804H13.875V24.2658C19.6118 23.3656 24 18.4011 24 12.4116Z" fill="#7F90B4"/>
    </g>
    <defs>
        <clipPath id="clip0_1322_3285">
            <rect width="24" height="24" fill="white" transform="translate(0 0.411621)"/>
        </clipPath>
    </defs>
</svg>
