<svg width="24" height="25" viewBox="0 0 24 25" fill="none" xmlns="http://www.w3.org/2000/svg">
    <g clip-path="url(#clip0_1322_3287)">
        <path d="M7.55016 22.1618C16.6045 22.1618 21.5583 14.6586 21.5583 8.15373C21.5583 7.94279 21.5536 7.72716 21.5442 7.51623C22.5079 6.81933 23.3395 5.95612 24 4.96716C23.1025 5.36646 22.1496 5.62725 21.1739 5.7406C22.2013 5.12477 22.9705 4.15734 23.3391 3.01763C22.3726 3.59042 21.3156 3.99448 20.2134 4.21248C19.4708 3.42343 18.489 2.90098 17.4197 2.72592C16.3504 2.55085 15.2532 2.73292 14.2977 3.24396C13.3423 3.75501 12.5818 4.56657 12.1338 5.55318C11.6859 6.53978 11.5754 7.64648 11.8195 8.70216C9.86249 8.60396 7.94794 8.09557 6.19998 7.20996C4.45203 6.32436 2.90969 5.0813 1.67297 3.56138C1.0444 4.64511 0.852057 5.92751 1.13503 7.14796C1.418 8.3684 2.15506 9.43531 3.19641 10.1319C2.41463 10.107 1.64998 9.89654 0.965625 9.51779V9.57872C0.964925 10.716 1.3581 11.8185 2.07831 12.6986C2.79852 13.5788 3.80132 14.1824 4.91625 14.4068C4.19206 14.605 3.43198 14.6339 2.69484 14.4912C3.00945 15.4693 3.62157 16.3248 4.44577 16.9382C5.26997 17.5516 6.26512 17.8925 7.29234 17.9131C5.54842 19.283 3.39417 20.026 1.17656 20.0225C0.783287 20.0219 0.390399 19.9978 0 19.9503C2.25286 21.3956 4.87353 22.1632 7.55016 22.1618Z" fill="#7F90B4"/>
    </g>
    <defs>
        <clipPath id="clip0_1322_3287">
            <rect width="24" height="24" fill="white" transform="translate(0 0.411621)"/>
        </clipPath>
    </defs>
</svg>
