<svg width="86" height="126" viewBox="0 0 86 126" fill="none" xmlns="http://www.w3.org/2000/svg">
<rect width="86" height="126" rx="43" fill="#5AF8A3"/>
<g clip-path="url(#clip0_2934_8539)">
<path d="M43.0028 71.109C46.9264 71.109 50.1072 67.9283 50.1072 64.0046C50.1072 60.081 46.9264 56.9003 43.0028 56.9003C39.0792 56.9003 35.8984 60.081 35.8984 64.0046C35.8984 67.9283 39.0792 71.109 43.0028 71.109Z" fill="#2B2A29"/>
<path fill-rule="evenodd" clip-rule="evenodd" d="M43.006 84.4492H55.4104C55.4104 77.593 49.851 72.0448 43.006 72.0448C36.1497 72.0448 30.6016 77.6042 30.6016 84.4492H43.006Z" fill="#2B2A29"/>
<path d="M23.9469 67.9515C26.1267 67.9515 27.8937 66.1844 27.8937 64.0046C27.8937 61.8248 26.1267 60.0577 23.9469 60.0577C21.7671 60.0577 20 61.8248 20 64.0046C20 66.1844 21.7671 67.9515 23.9469 67.9515Z" fill="#2B2A29"/>
<path d="M23.9453 64.0048H32.7074" stroke="#2B2A29" stroke-width="0.758348" stroke-miterlimit="22.9256"/>
<path d="M62.0523 67.9512C64.2321 67.9512 65.9992 66.1842 65.9992 64.0044C65.9992 61.8246 64.2321 60.0575 62.0523 60.0575C59.8725 60.0575 58.1055 61.8246 58.1055 64.0044C58.1055 66.1842 59.8725 67.9512 62.0523 67.9512Z" fill="#2B2A29"/>
<path d="M62.0511 64.0046H53.2891" stroke="#2B2A29" stroke-width="0.758348" stroke-miterlimit="22.9256"/>
<path d="M53.6879 47.7355C55.228 46.1954 57.7251 46.1954 59.2652 47.7355C60.8054 49.2757 60.8054 51.7727 59.2652 53.3129C57.7251 54.853 55.228 54.853 53.6879 53.3129C52.1477 51.7727 52.1477 49.2757 53.6879 47.7355Z" fill="#2B2A29"/>
<path d="M56.4796 50.5292L50.2773 56.7201" stroke="#2B2A29" stroke-width="0.758348" stroke-miterlimit="22.9256"/>
<path d="M39.0578 44.9423C39.0578 42.7642 40.8234 40.9985 43.0015 40.9985C45.1796 40.9985 46.9453 42.7642 46.9453 44.9423C46.9453 47.1204 45.1796 48.8861 43.0015 48.8861C40.8234 48.8861 39.0578 47.1204 39.0578 44.9423Z" fill="#2B2A29"/>
<path d="M43.0039 44.9471V53.7092" stroke="#2B2A29" stroke-width="0.758348" stroke-miterlimit="22.9256"/>
<path d="M26.7355 53.3125C25.1954 51.7723 25.1954 49.2753 26.7355 47.7351C28.2757 46.195 30.7727 46.195 32.3129 47.7351C33.853 49.2753 33.853 51.7723 32.3129 53.3125C30.7727 54.8526 28.2757 54.8526 26.7355 53.3125Z" fill="#2B2A29"/>
<path d="M29.5312 50.5292L35.7222 56.7201" stroke="#2B2A29" stroke-width="0.758348" stroke-miterlimit="22.9256"/>
</g>
<defs>
<clipPath id="clip0_2934_8539">
<rect width="46" height="45" fill="white" transform="translate(20 41)"/>
</clipPath>
</defs>
</svg>
