<svg width="86" height="126" viewBox="0 0 86 126" fill="none" xmlns="http://www.w3.org/2000/svg">
<rect width="86" height="126" rx="43" fill="#5AF8A3"/>
<g clip-path="url(#clip0_2934_8559)">
<path d="M26.2903 85.0119C29.7622 85.0119 32.5767 82.1974 32.5767 78.7255C32.5767 75.2536 29.7622 72.4391 26.2903 72.4391C22.8184 72.4391 20.0039 75.2536 20.0039 78.7255C20.0039 82.1974 22.8184 85.0119 26.2903 85.0119Z" fill="#2B2A29"/>
<path d="M35.0721 65.6022C36.9996 65.6022 38.5621 64.0396 38.5621 62.1121C38.5621 60.1846 36.9996 58.6221 35.0721 58.6221C33.1446 58.6221 31.582 60.1846 31.582 62.1121C31.582 64.0396 33.1446 65.6022 35.0721 65.6022Z" fill="#2B2A29"/>
<path d="M51.9153 68.062C55.3872 68.062 58.2017 65.2475 58.2017 61.7757C58.2017 58.3038 55.3872 55.4893 51.9153 55.4893C48.4434 55.4893 45.6289 58.3038 45.6289 61.7757C45.6289 65.2475 48.4434 68.062 51.9153 68.062Z" fill="#2B2A29"/>
<path d="M62.5057 47.9801C64.4332 47.9801 65.9957 46.4176 65.9957 44.4901C65.9957 42.5626 64.4332 41 62.5057 41C60.5782 41 59.0156 42.5626 59.0156 44.4901C59.0156 46.4176 60.5782 47.9801 62.5057 47.9801Z" fill="#2B2A29"/>
<path d="M26.2891 78.7257L35.0714 62.1122L51.9138 61.776L62.5056 44.4902" stroke="#2B2A29" stroke-width="0.751823" stroke-miterlimit="22.9256"/>
</g>
<defs>
<clipPath id="clip0_2934_8559">
<rect width="46" height="44" fill="white" transform="translate(20 41)"/>
</clipPath>
</defs>
</svg>
