<svg width="120" height="120" viewBox="0 0 120 120" fill="none" xmlns="http://www.w3.org/2000/svg">
<circle cx="60" cy="60" r="60" fill="white"/>
<g clip-path="url(#clip0_666_4695)">
<path d="M54.439 72.2185V51.2873C54.439 48.8022 56.4615 46.7756 58.9417 46.7756C61.4219 46.7756 63.4444 48.8022 63.4444 51.2873V72.2185" stroke="#5A60F8" stroke-width="1.5" stroke-miterlimit="22.9256"/>
<path d="M70.6782 72.2184V62.5294C70.6782 60.5324 69.0543 58.9053 67.0613 58.9053C65.0683 58.9053 63.4443 60.5324 63.4443 62.5294V72.2184" stroke="#5A60F8" stroke-width="1.5" stroke-miterlimit="22.9256"/>
<path d="M70.6782 72.2185V63.9791C70.6782 61.9821 72.3022 60.355 74.2952 60.355C76.2882 60.355 77.9121 61.9821 77.9121 63.9791V72.2185" stroke="#5A60F8" stroke-width="1.5" stroke-miterlimit="22.9256"/>
<path d="M77.9117 72.2184C77.9117 70.4876 77.9117 68.7569 77.9117 67.0262C77.9117 65.0293 79.5357 63.4021 81.5287 63.4021C83.5217 63.4021 85.1456 65.0293 85.1456 67.0262C85.1456 68.7569 85.1456 70.4876 85.1456 72.2184C85.1456 78.8601 82.503 83.8304 81.1891 89.629C71.6079 89.629 62.0267 89.629 52.4455 89.629C50.7478 85.8421 49.0501 82.0701 47.3523 78.2832C45.7579 76.1383 44.1783 73.9786 42.5839 71.8338C39.7641 66.9375 45.5512 64.1417 48.5776 67.1742C49.1239 67.6031 49.6553 68.0321 50.2016 68.4611" stroke="#5A60F8" stroke-width="1.5" stroke-miterlimit="22.9256"/>
<path d="M58.5283 39.2018C61.064 39.2018 63.1196 37.1421 63.1196 34.6014C63.1196 32.0607 61.064 30.001 58.5283 30.001C55.9926 30.001 53.937 32.0607 53.937 34.6014C53.937 37.1421 55.9926 39.2018 58.5283 39.2018Z" fill="#5A60F8"/>
<path d="M75.1069 43.7875C77.6426 43.7875 79.6982 41.7278 79.6982 39.1871C79.6982 36.6464 77.6426 34.5867 75.1069 34.5867C72.5712 34.5867 70.5156 36.6464 70.5156 39.1871C70.5156 41.7278 72.5712 43.7875 75.1069 43.7875Z" stroke="#5A60F8" stroke-width="1.5" stroke-miterlimit="22.9256"/>
<path d="M42.3037 43.7875C44.8394 43.7875 46.895 41.7278 46.895 39.1871C46.895 36.6464 44.8394 34.5867 42.3037 34.5867C39.768 34.5867 37.7124 36.6464 37.7124 39.1871C37.7124 41.7278 39.768 43.7875 42.3037 43.7875Z" stroke="#5A60F8" stroke-width="1.5" stroke-miterlimit="22.9256"/>
<path d="M33.4458 59.4377C35.9815 59.4377 38.0371 57.378 38.0371 54.8372C38.0371 52.2965 35.9815 50.2368 33.4458 50.2368C30.9101 50.2368 28.8545 52.2965 28.8545 54.8372C28.8545 57.378 30.9101 59.4377 33.4458 59.4377Z" stroke="#5A60F8" stroke-width="1.5" stroke-miterlimit="22.9256"/>
</g>
<defs>
<clipPath id="clip0_666_4695">
<rect width="57" height="60" fill="white" transform="translate(28.5 30)"/>
</clipPath>
</defs>
</svg>
