<svg width="120" height="120" viewBox="0 0 120 120" fill="none" xmlns="http://www.w3.org/2000/svg">
<circle cx="60" cy="60" r="60" fill="white"/>
<g clip-path="url(#clip0_666_4732)">
<path d="M60.4214 46.0125V78.5939" stroke="#5A60F8" stroke-width="1.5" stroke-miterlimit="22.9256"/>
<path d="M76.7119 62.3032H44.1304" stroke="#5A60F8" stroke-width="1.5" stroke-miterlimit="22.9256"/>
<path d="M36.1587 81.577C42.0347 88.9831 50.9708 93.2904 60.4212 93.2904C77.5349 93.2904 91.4084 79.4169 91.4084 62.3033C91.4084 45.1897 77.5349 31.3162 60.4212 31.3162" stroke="#5A60F8" stroke-width="1.5" stroke-miterlimit="22.9256"/>
<path d="M36.1589 86.1156C38.6656 86.1156 40.6977 84.0836 40.6977 81.5769C40.6977 79.0702 38.6656 77.0381 36.1589 77.0381C33.6522 77.0381 31.6201 79.0702 31.6201 81.5769C31.6201 84.0836 33.6522 86.1156 36.1589 86.1156Z" fill="#5A60F8"/>
<path d="M60.4216 35.8549C62.9283 35.8549 64.9604 33.8228 64.9604 31.3161C64.9604 28.8094 62.9283 26.7773 60.4216 26.7773C57.9149 26.7773 55.8828 28.8094 55.8828 31.3161C55.8828 33.8228 57.9149 35.8549 60.4216 35.8549Z" fill="#5A60F8"/>
<path d="M93.2343 43.3638C86.4711 31.6375 73.9605 24.4243 60.4213 24.4243C39.5018 24.4243 22.5425 41.3837 22.5425 62.3032C22.5425 83.2227 39.5018 100.182 60.4213 100.182C63.7386 100.182 67.0302 99.7449 70.2318 98.8963" stroke="#5A60F8" stroke-width="1.5" stroke-miterlimit="22.9256"/>
<path d="M70.2317 101.815C71.8436 101.815 73.1504 100.508 73.1504 98.8962C73.1504 97.2843 71.8436 95.9775 70.2317 95.9775C68.6197 95.9775 67.313 97.2843 67.313 98.8962C67.313 100.508 68.6197 101.815 70.2317 101.815Z" fill="#5A60F8"/>
<path d="M93.2341 46.2825C94.8461 46.2825 96.1528 44.9757 96.1528 43.3638C96.1528 41.7518 94.8461 40.4451 93.2341 40.4451C91.6222 40.4451 90.3154 41.7518 90.3154 43.3638C90.3154 44.9757 91.6222 46.2825 93.2341 46.2825Z" fill="#5A60F8"/>
</g>
<defs>
<clipPath id="clip0_666_4732">
<rect width="78" height="78" fill="white" transform="translate(21 24)"/>
</clipPath>
</defs>
</svg>
