<svg width="88" height="101" viewBox="0 0 88 101" fill="none" xmlns="http://www.w3.org/2000/svg">
<path d="M72.8842 0.609375V16.7495H23.159V0.609375H72.8842ZM87.582 0.609375V100.609H66.9776V0.609375H87.582ZM20.5491 0.609375H41.0848L38.5436 50.8154C38.1773 58.3246 37.4676 64.8493 36.4144 70.3896C35.4071 75.9299 34.0335 80.646 32.2936 84.5379C30.5536 88.3841 28.4016 91.4977 25.8375 93.8786C23.3192 96.2138 20.343 97.9308 16.909 99.0297C13.4749 100.083 9.56005 100.609 5.16445 100.609H0.0820312V84.5379L2.69192 84.3319C4.93551 84.103 6.90438 83.5077 8.59851 82.5462C10.2927 81.5846 11.735 80.1423 12.9254 78.2193C14.1617 76.2962 15.169 73.8466 15.9474 70.8704C16.7716 67.8484 17.4126 64.1625 17.8705 59.8127C18.3742 55.4629 18.7176 50.3804 18.9007 44.5654L20.5491 0.609375Z" fill="#E6E6E6"/>
</svg>
