<svg width="77" height="99" viewBox="0 0 77 99" fill="none" xmlns="http://www.w3.org/2000/svg">
<path d="M39.1133 64.5948H14.1735V47.3922H39.1133C42.7929 47.3922 45.7457 46.7802 47.9717 45.5563C50.2431 44.3324 51.9012 42.6552 52.946 40.5247C54.0363 38.3489 54.5814 35.9011 54.5814 33.1813C54.5814 30.3709 54.0363 27.7644 52.946 25.362C51.9012 22.9141 50.2431 20.9423 47.9717 19.4464C45.7457 17.9506 42.7929 17.2026 39.1133 17.2026H22.2142V99H0V0H39.1133C47.0177 0 53.7864 1.42788 59.4195 4.28365C65.0979 7.13942 69.4363 11.0604 72.4345 16.0467C75.4782 20.9876 77 26.6538 77 33.0453C77 39.4368 75.4782 44.9897 72.4345 49.704C69.4363 54.4183 65.0979 58.09 59.4195 60.7191C53.7864 63.3029 47.0177 64.5948 39.1133 64.5948Z" fill="#E6E6E6"/>
</svg>
