<svg width="81" height="101" viewBox="0 0 81 101" fill="none" xmlns="http://www.w3.org/2000/svg">
<path d="M59.9202 66.4551H79.8935C79.4927 73.0016 77.6891 78.8132 74.4827 83.89C71.3208 88.9668 66.8897 92.9303 61.1894 95.7804C55.5336 98.6306 48.72 100.056 40.7485 100.056C34.5138 100.056 28.9249 98.9869 23.9817 96.8493C19.0384 94.6671 14.8078 91.5498 11.2896 87.4972C7.81599 83.4447 5.16625 78.546 3.34037 72.8012C1.5145 67.0563 0.601562 60.6212 0.601562 53.4959V46.7491C0.601562 39.6237 1.53677 33.1886 3.40717 27.4438C5.32211 21.6544 8.03866 16.7335 11.5568 12.6809C15.1195 8.62837 19.3724 5.51102 24.3157 3.32888C29.2589 1.14674 34.781 0.0556641 40.8821 0.0556641C48.9872 0.0556641 55.8231 1.52527 61.3898 4.46448C67.001 7.40369 71.343 11.4562 74.4159 16.6221C77.5332 21.788 79.4036 27.6664 80.0271 34.2574H59.987C59.7643 30.3385 58.985 27.0207 57.649 24.3042C56.313 21.5431 54.2867 19.4723 51.5702 18.0917C48.8982 16.6667 45.3355 15.9541 40.8821 15.9541C37.5421 15.9541 34.6252 16.5776 32.1313 17.8245C29.6374 19.0715 27.5443 20.9641 25.8521 23.5026C24.1598 26.041 22.8906 29.2474 22.0444 33.1218C21.2428 36.9517 20.842 41.4496 20.842 46.6155V53.4959C20.842 58.5282 21.2206 62.9593 21.9776 66.7891C22.7347 70.5745 23.8926 73.7809 25.4513 76.4084C27.0545 78.9913 29.103 80.9508 31.5969 82.2868C34.1353 83.5783 37.1858 84.224 40.7485 84.224C44.9347 84.224 48.386 83.556 51.1026 82.22C53.8191 80.884 55.8899 78.9022 57.315 76.2748C58.7846 73.6473 59.653 70.3741 59.9202 66.4551Z" fill="#E6E6E6"/>
</svg>
