<svg width="80" height="101" viewBox="0 0 80 101" fill="none" xmlns="http://www.w3.org/2000/svg">
<path id="&#208;&#167;" d="M0.664062 0.609375H21.3371V31.3099C21.3371 35.7055 22.0011 39.1396 23.3289 41.6121C24.7025 44.0846 26.763 45.8246 29.5102 46.8319C32.3033 47.7934 35.7602 48.2742 39.8811 48.2742C41.4379 48.2742 43.2694 48.2055 45.3756 48.0682C47.5276 47.9308 49.7254 47.7248 51.969 47.45C54.2126 47.1295 56.3646 46.7861 58.4251 46.4198C60.4855 46.0077 62.2025 45.5499 63.5761 45.0462V61.1176C62.2025 61.5755 60.4855 62.0105 58.4251 62.4226C56.3646 62.8346 54.2126 63.201 51.969 63.5215C49.7254 63.7962 47.5276 64.0022 45.3756 64.1396C43.2694 64.277 41.4379 64.3456 39.8811 64.3456C31.9141 64.3456 25.0001 63.201 19.1393 60.9116C13.2785 58.6222 8.72267 55.0508 5.47176 50.1973C2.26663 45.298 0.664062 39.0022 0.664062 31.3099V0.609375ZM59.2492 0.609375H79.8536V100.609H59.2492V0.609375Z" fill="#E6E6E6"/>
</svg>
