<svg width="78" height="100" viewBox="0 0 78 100" fill="none" xmlns="http://www.w3.org/2000/svg">
    <path d="M64.3928 63.6676H37.1787L30.2378 60.783C22.4035 58.3104 16.4017 54.6016 12.2326 49.6566C8.10923 44.7115 6.04756 38.4158 6.04756 30.7692C6.04756 24.0385 7.53654 18.4066 10.5145 13.8736C13.5383 9.29487 17.7991 5.83791 23.2968 3.50275C28.8404 1.16758 35.4149 0 43.0201 0H77.931V100H57.2456V16.1401H43.0201C37.3849 16.1401 33.2387 17.5366 30.5814 20.3297C27.9241 23.1227 26.5955 27.0833 26.5955 32.2115C26.5955 35.9661 27.214 39.0568 28.451 41.4835C29.688 43.8645 31.4977 45.6502 33.8801 46.8407C36.2624 47.9853 39.2633 48.5577 42.8827 48.5577H64.324L64.3928 63.6676ZM44.532 55.3571L22.3347 100H0L22.266 55.3571H44.532Z" fill="#E6E6E6"/>
</svg>
