<svg width="24" height="24" viewBox="0 0 24 24" fill="none" xmlns="http://www.w3.org/2000/svg">
<g id="Flag">
<g clip-path="url(#clip0_2923_55972)">
<path id="Vector" d="M0 14H25V24H0V14Z" fill="#1EB53A"/>
<path id="Vector_2" d="M0 0H25V12H0V0Z" fill="#0099B5"/>
<path id="Vector_3" d="M-1 9H25V15H-1V9Z" fill="white"/>
<path id="Vector_4" d="M6.5 8C7.88071 8 9 6.88071 9 5.5C9 4.11929 7.88071 3 6.5 3C5.11929 3 4 4.11929 4 5.5C4 6.88071 5.11929 8 6.5 8Z" fill="white"/>
<path id="Vector_5" d="M7 8C8.10457 8 9 6.88071 9 5.5C9 4.11929 8.10457 3 7 3C5.89543 3 5 4.11929 5 5.5C5 6.88071 5.89543 8 7 8Z" fill="#0099B5"/>
<g id="Group">
<g id="e">
<g id="d">
<g id="c">
<g id="b">
<path id="a" d="M10.9979 6.69928L10.8582 7.12926L11.0732 7.19911" fill="white"/>
<path id="a_2" d="M10.9979 6.69928L11.1376 7.12926L10.9226 7.19911" fill="white"/>
</g>
<g id="b_2">
<path id="a_3" d="M11.4277 7.0117H10.9756V7.23776" fill="white"/>
<path id="a_4" d="M11.4277 7.0117L11.0619 7.27744L10.929 7.09456" fill="white"/>
</g>
</g>
<g id="b_3">
<path id="a_5" d="M10.5678 7.0117L10.9336 7.27744L11.0664 7.09456" fill="white"/>
<path id="a_6" d="M10.5678 7.0117H11.0199V7.23776" fill="white"/>
</g>
<g id="c_2">
<g id="b_4">
<path id="a_7" d="M11.2641 7.51717L11.1244 7.08718L10.9094 7.15703" fill="white"/>
<path id="a_8" d="M11.2641 7.51717L10.8983 7.25142L11.0312 7.06855" fill="white"/>
</g>
<g id="b_5">
<path id="a_9" d="M10.7328 7.51717L11.0986 7.25143L10.9657 7.06855" fill="white"/>
<path id="a_10" d="M10.7328 7.51717L10.8725 7.08719L11.0875 7.15704" fill="white"/>
</g>
</g>
</g>
<g id="d_2">
<g id="c_3">
<g id="b_6">
<path id="a_11" d="M10.9979 4.89085L10.8582 5.32083L11.0732 5.39068" fill="white"/>
<path id="a_12" d="M10.9979 4.89085L11.1376 5.32083L10.9226 5.39068" fill="white"/>
</g>
<g id="b_7">
<path id="a_13" d="M11.4277 5.20326H10.9756V5.42931" fill="white"/>
<path id="a_14" d="M11.4277 5.20326L11.0619 5.469L10.929 5.28612" fill="white"/>
</g>
</g>
<g id="b_8">
<path id="a_15" d="M10.5678 5.20328L10.9336 5.46902L11.0664 5.28614" fill="white"/>
<path id="a_16" d="M10.5678 5.20328H11.0199V5.42933" fill="white"/>
</g>
<g id="c_4">
<g id="b_9">
<path id="a_17" d="M11.2641 5.70874L11.1244 5.27875L10.9094 5.3486" fill="white"/>
<path id="a_18" d="M11.2641 5.70874L10.8983 5.44299L11.0312 5.26012" fill="white"/>
</g>
<g id="b_10">
<path id="a_19" d="M10.7328 5.70874L11.0986 5.443L10.9657 5.26012" fill="white"/>
<path id="a_20" d="M10.7328 5.70874L10.8725 5.27876L11.0875 5.34862" fill="white"/>
</g>
</g>
</g>
<g id="d_3">
<g id="c_5">
<g id="b_11">
<path id="a_21" d="M10.9987 3.08249L10.859 3.51247L11.074 3.58232" fill="white"/>
<path id="a_22" d="M10.9987 3.08249L11.1385 3.51247L10.9235 3.58232" fill="white"/>
</g>
<g id="b_12">
<path id="a_23" d="M11.4285 3.3949H10.9764V3.62095" fill="white"/>
<path id="a_24" d="M11.4285 3.3949L11.0627 3.66064L10.9299 3.47776" fill="white"/>
</g>
</g>
<g id="b_13">
<path id="a_25" d="M10.5674 3.39485L10.9331 3.66059L11.066 3.47771" fill="white"/>
<path id="a_26" d="M10.5674 3.39485H11.0195V3.6209" fill="white"/>
</g>
<g id="c_6">
<g id="b_14">
<path id="a_27" d="M11.2641 3.90036L11.1243 3.47037L10.9094 3.54022" fill="white"/>
<path id="a_28" d="M11.2641 3.90036L10.8983 3.63461L11.0312 3.45174" fill="white"/>
</g>
<g id="b_15">
<path id="a_29" d="M10.7337 3.90034L11.0995 3.6346L10.9666 3.45172" fill="white"/>
<path id="a_30" d="M10.7337 3.90034L10.8734 3.47037L11.0884 3.54022" fill="white"/>
</g>
</g>
</g>
</g>
<g id="e_2">
<g id="d_4">
<g id="c_7">
<g id="b_16">
<path id="a_31" d="M12.8067 6.69933L12.667 7.1293L12.882 7.19916" fill="white"/>
<path id="a_32" d="M12.8067 6.69933L12.9464 7.1293L12.7314 7.19916" fill="white"/>
</g>
<g id="b_17">
<path id="a_33" d="M13.2358 7.01172H12.7837V7.23777" fill="white"/>
<path id="a_34" d="M13.2358 7.01172L12.87 7.27746L12.7372 7.09458" fill="white"/>
</g>
</g>
<g id="b_18">
<path id="a_35" d="M12.3748 7.01173L12.7406 7.27747L12.8735 7.09459" fill="white"/>
<path id="a_36" d="M12.3748 7.01173H12.827V7.23779" fill="white"/>
</g>
<g id="c_8">
<g id="b_19">
<path id="a_37" d="M13.0725 7.51718L12.9328 7.0872L12.7178 7.15704" fill="white"/>
<path id="a_38" d="M13.0725 7.51718L12.7067 7.25143L12.8396 7.06856" fill="white"/>
</g>
<g id="b_20">
<path id="a_39" d="M12.5415 7.51718L12.9073 7.25144L12.7744 7.06856" fill="white"/>
<path id="a_40" d="M12.5415 7.51718L12.6812 7.0872L12.8962 7.15706" fill="white"/>
</g>
</g>
</g>
<g id="d_5">
<g id="c_9">
<g id="b_21">
<path id="a_41" d="M12.8067 4.8909L12.667 5.32088L12.882 5.39073" fill="white"/>
<path id="a_42" d="M12.8067 4.8909L12.9464 5.32088L12.7314 5.39073" fill="white"/>
</g>
<g id="b_22">
<path id="a_43" d="M13.2358 5.20329H12.7837V5.42934" fill="white"/>
<path id="a_44" d="M13.2358 5.20329L12.87 5.46903L12.7372 5.28615" fill="white"/>
</g>
</g>
<g id="b_23">
<path id="a_45" d="M12.3748 5.20332L12.7406 5.46906L12.8735 5.28618" fill="white"/>
<path id="a_46" d="M12.3748 5.20332H12.827V5.42938" fill="white"/>
</g>
<g id="c_10">
<g id="b_24">
<path id="a_47" d="M13.0725 5.70877L12.9328 5.27879L12.7178 5.34863" fill="white"/>
<path id="a_48" d="M13.0725 5.70877L12.7067 5.44302L12.8396 5.26015" fill="white"/>
</g>
<g id="b_25">
<path id="a_49" d="M12.5415 5.70877L12.9073 5.44303L12.7744 5.26015" fill="white"/>
<path id="a_50" d="M12.5415 5.70877L12.6812 5.27879L12.8962 5.34865" fill="white"/>
</g>
</g>
</g>
<g id="d_6">
<g id="c_11">
<g id="b_26">
<path id="a_51" d="M12.8067 3.0825L12.667 3.51248L12.882 3.58233" fill="white"/>
<path id="a_52" d="M12.8067 3.0825L12.9464 3.51248L12.7314 3.58233" fill="white"/>
</g>
<g id="b_27">
<path id="a_53" d="M13.2358 3.3949H12.7837V3.62095" fill="white"/>
<path id="a_54" d="M13.2358 3.3949L12.87 3.66064L12.7372 3.47776" fill="white"/>
</g>
</g>
<g id="b_28">
<path id="a_55" d="M12.3748 3.39488L12.7406 3.66062L12.8735 3.47774" fill="white"/>
<path id="a_56" d="M12.3748 3.39488H12.827V3.62093" fill="white"/>
</g>
<g id="c_12">
<g id="b_29">
<path id="a_57" d="M13.0725 3.90034L12.9328 3.47036L12.7178 3.5402" fill="white"/>
<path id="a_58" d="M13.0725 3.90034L12.7067 3.63459L12.8396 3.45172" fill="white"/>
</g>
<g id="b_30">
<path id="a_59" d="M12.5415 3.90034L12.9073 3.6346L12.7744 3.45172" fill="white"/>
<path id="a_60" d="M12.5415 3.90034L12.6812 3.47037L12.8962 3.54022" fill="white"/>
</g>
</g>
</g>
</g>
<g id="e_3">
<g id="d_7">
<g id="c_13">
<g id="b_31">
<path id="a_61" d="M14.614 6.69931L14.4742 7.12929L14.6892 7.19914" fill="white"/>
<path id="a_62" d="M14.614 6.69931L14.7537 7.12929L14.5387 7.19914" fill="white"/>
</g>
<g id="b_32">
<path id="a_63" d="M15.0434 7.0117H14.5913V7.23776" fill="white"/>
<path id="a_64" d="M15.0434 7.0117L14.6777 7.27744L14.5448 7.09456" fill="white"/>
</g>
</g>
<g id="b_33">
<path id="a_65" d="M14.1826 7.01176L14.5483 7.2775L14.6812 7.09462" fill="white"/>
<path id="a_66" d="M14.1826 7.01176H14.6347V7.23782" fill="white"/>
</g>
<g id="c_14">
<g id="b_34">
<path id="a_67" d="M14.8799 7.5172L14.7402 7.08721L14.5252 7.15706" fill="white"/>
<path id="a_68" d="M14.8799 7.5172L14.5141 7.25145L14.647 7.06858" fill="white"/>
</g>
<g id="b_35">
<path id="a_69" d="M14.3465 7.51721L14.7123 7.25147L14.5794 7.06859" fill="white"/>
<path id="a_70" d="M14.3465 7.51721L14.4862 7.08724L14.7012 7.15709" fill="white"/>
</g>
</g>
</g>
<g id="d_8">
<g id="c_15">
<g id="b_36">
<path id="a_71" d="M14.6135 4.89087L14.4738 5.32085L14.6888 5.3907" fill="white"/>
<path id="a_72" d="M14.6135 4.89087L14.7532 5.32085L14.5382 5.3907" fill="white"/>
</g>
<g id="b_37">
<path id="a_73" d="M15.043 5.20326H14.5909V5.42931" fill="white"/>
<path id="a_74" d="M15.043 5.20326L14.6773 5.469L14.5444 5.28612" fill="white"/>
</g>
</g>
<g id="b_38">
<path id="a_75" d="M14.1821 5.20331L14.5479 5.46905L14.6807 5.28617" fill="white"/>
<path id="a_76" d="M14.1821 5.20331H14.6342V5.42936" fill="white"/>
</g>
<g id="c_16">
<g id="b_39">
<path id="a_77" d="M14.8795 5.70876L14.7398 5.27877L14.5248 5.34862" fill="white"/>
<path id="a_78" d="M14.8795 5.70874L14.5137 5.44299L14.6466 5.26012" fill="white"/>
</g>
<g id="b_40">
<path id="a_79" d="M14.3466 5.70874L14.7123 5.443L14.5795 5.26012" fill="white"/>
<path id="a_80" d="M14.3466 5.70874L14.4863 5.27876L14.7013 5.34862" fill="white"/>
</g>
</g>
</g>
<g id="d_9">
<g id="c_17">
<g id="b_41">
<path id="a_81" d="M14.614 3.08247L14.4742 3.51245L14.6892 3.5823" fill="white"/>
<path id="a_82" d="M14.614 3.08247L14.7537 3.51245L14.5387 3.5823" fill="white"/>
</g>
<g id="b_42">
<path id="a_83" d="M15.0434 3.39488H14.5913V3.62093" fill="white"/>
<path id="a_84" d="M15.0434 3.39488L14.6777 3.66062L14.5448 3.47774" fill="white"/>
</g>
</g>
<g id="b_43">
<path id="a_85" d="M14.1826 3.39488L14.5483 3.66062L14.6812 3.47774" fill="white"/>
<path id="a_86" d="M14.1826 3.39488H14.6347V3.62093" fill="white"/>
</g>
<g id="c_18">
<g id="b_44">
<path id="a_87" d="M14.8799 3.90034L14.7402 3.47036L14.5252 3.5402" fill="white"/>
<path id="a_88" d="M14.8799 3.90034L14.5141 3.63459L14.647 3.45172" fill="white"/>
</g>
<g id="b_45">
<path id="a_89" d="M14.3465 3.90033L14.7123 3.63459L14.5794 3.45171" fill="white"/>
<path id="a_90" d="M14.3465 3.90033L14.4862 3.47035L14.7012 3.54021" fill="white"/>
</g>
</g>
</g>
</g>
<g id="d_10">
<g id="c_19">
<g id="b_46">
<path id="a_91" d="M7.38016 6.69931L7.24045 7.12929L7.45544 7.19914" fill="white"/>
<path id="a_92" d="M7.38016 6.69931L7.51987 7.12929L7.30488 7.19914" fill="white"/>
</g>
<g id="b_47">
<path id="a_93" d="M7.81027 7.0117H7.35817V7.23776" fill="white"/>
<path id="a_94" d="M7.81027 7.0117L7.44451 7.27744L7.31164 7.09456" fill="white"/>
</g>
</g>
<g id="b_48">
<path id="a_95" d="M6.95102 7.01173L7.31678 7.27747L7.44965 7.09459" fill="white"/>
<path id="a_96" d="M6.95102 7.01173H7.40312V7.23779" fill="white"/>
</g>
<g id="c_20">
<g id="b_49">
<path id="a_97" d="M7.64682 7.51718L7.5071 7.0872L7.29212 7.15704" fill="white"/>
<path id="a_98" d="M7.64682 7.51717L7.28105 7.25142L7.41391 7.06855" fill="white"/>
</g>
<g id="b_50">
<path id="a_99" d="M7.11499 7.51715L7.48075 7.25141L7.34788 7.06853" fill="white"/>
<path id="a_100" d="M7.11499 7.51715L7.2547 7.08717L7.46969 7.15703" fill="white"/>
</g>
</g>
</g>
<g id="d_11">
<g id="c_21">
<g id="b_51">
<path id="a_101" d="M9.18872 6.69936L9.04901 7.12933L9.264 7.19919" fill="white"/>
<path id="a_102" d="M9.18872 6.69936L9.32843 7.12933L9.11344 7.19919" fill="white"/>
</g>
<g id="b_52">
<path id="a_103" d="M9.61823 7.01172H9.16612V7.23777" fill="white"/>
<path id="a_104" d="M9.61823 7.01172L9.25247 7.27746L9.11959 7.09458" fill="white"/>
</g>
</g>
<g id="b_53">
<path id="a_105" d="M8.75861 7.01175L9.12437 7.27749L9.25724 7.09461" fill="white"/>
<path id="a_106" d="M8.75861 7.01175H9.21071V7.2378" fill="white"/>
</g>
<g id="c_22">
<g id="b_54">
<path id="a_107" d="M9.45404 7.51723L9.31432 7.08724L9.09934 7.15709" fill="white"/>
<path id="a_108" d="M9.45404 7.51721L9.08827 7.25146L9.22113 7.06859" fill="white"/>
</g>
<g id="b_55">
<path id="a_109" d="M8.92297 7.51723L9.28873 7.25149L9.15586 7.06861" fill="white"/>
<path id="a_110" d="M8.92297 7.51723L9.06268 7.08725L9.27767 7.1571" fill="white"/>
</g>
</g>
</g>
<g id="d_12">
<g id="c_23">
<g id="b_56">
<path id="a_111" d="M9.18872 4.89091L9.04901 5.32089L9.264 5.39075" fill="white"/>
<path id="a_112" d="M9.18872 4.89091L9.32843 5.32089L9.11344 5.39075" fill="white"/>
</g>
<g id="b_57">
<path id="a_113" d="M9.61823 5.20331H9.16612V5.42936" fill="white"/>
<path id="a_114" d="M9.61823 5.20331L9.25247 5.46905L9.11959 5.28617" fill="white"/>
</g>
</g>
<g id="b_58">
<path id="a_115" d="M8.75861 5.20334L9.12437 5.46908L9.25724 5.2862" fill="white"/>
<path id="a_116" d="M8.75861 5.20334H9.21071V5.42939" fill="white"/>
</g>
<g id="c_24">
<g id="b_59">
<path id="a_117" d="M9.45404 5.70879L9.31432 5.2788L9.09934 5.34865" fill="white"/>
<path id="a_118" d="M9.45404 5.70876L9.08827 5.44301L9.22113 5.26014" fill="white"/>
</g>
<g id="b_60">
<path id="a_119" d="M8.92297 5.70876L9.28873 5.44302L9.15586 5.26014" fill="white"/>
<path id="a_120" d="M8.92297 5.70876L9.06268 5.27878L9.27767 5.34863" fill="white"/>
</g>
</g>
</g>
</g>
<path id="Vector_6" d="M-6 15H31V15.5H-6V15Z" fill="#CE1126"/>
<path id="Vector_7" d="M-6 9H31V9.5H-6V9Z" fill="#CE1126"/>
</g>
</g>
<defs>
<clipPath id="clip0_2923_55972">
<rect width="24" height="24" rx="12" fill="white"/>
</clipPath>
</defs>
</svg>
